<?xml version="1.0" standalone="no"?>
<!DOCTYPE svg PUBLIC "-//W3C//DTD SVG 1.1//EN" "http://www.w3.org/Graphics/SVG/1.1/DTD/svg11.dtd" >
<svg>
<metadata>
Created by FontForge 20110222 at Thu Jul 31 09:12:36 2014
 By deploy user
Copyright (c) 1992-95 ElseWare.  All rights reserved.
</metadata>
<defs>
<font id="UniversLightCondensed-Regular" horiz-adv-x="834" >
  <font-face 
    font-family="Univers Light Condensed"
    font-weight="400"
    font-stretch="condensed"
    units-per-em="2048"
    panose-1="2 11 4 6 2 2 2 5 2 4"
    ascent="1638"
    descent="-410"
    x-height="982"
    cap-height="1410"
    bbox="-478 -512 1647 1881"
    underline-thickness="105"
    underline-position="-355"
    unicode-range="U+0020-EFF9"
  />
<missing-glyph horiz-adv-x="669" 
d="M0 1274h569v-1274h-569v1274zM100 1174v-1074h369v1074h-369z" />
    <glyph glyph-name=".notdef" horiz-adv-x="669" 
d="M0 1274h569v-1274h-569v1274zM100 1174v-1074h369v1074h-369z" />
    <glyph glyph-name="glyph1" horiz-adv-x="0" 
 />
    <glyph glyph-name="space" unicode=" " horiz-adv-x="455" 
 />
    <glyph glyph-name="exclam" unicode="!" horiz-adv-x="607" 
d="M267 297l-17 1120h116l-18 -1120h-81zM236 158h160v-158h-160v158z" />
    <glyph glyph-name="quotedbl" unicode="&#x22;" 
d="M189 939l-30 471h149l-30 -471h-89zM555 939l-30 471h149l-30 -471h-89z" />
    <glyph glyph-name="numbersign" unicode="#" 
d="M577 1424l-139 -452h153l139 452h93l-139 -452h166l-25 -80h-165l-117 -380h166l-25 -80h-166l-159 -518h-93l159 518h-153l-159 -518h-93l159 518h-185l25 80h185l117 380h-186l25 80h185l139 452h93zM413 892l-117 -380h154l117 380h-154z" />
    <glyph glyph-name="dollar" unicode="$" 
d="M585 902v0q0 114 -38.5 167t-122.5 53q-71 0 -105 -37t-34 -113q0 -64 43 -111q42 -46 156 -107q124 -66 177 -131q52 -65 52 -153q0 -143 -66 -207q-52 -49 -160 -62v-269h-110v270q-115 12 -170.5 75t-56.5 198l2 47v0h115v0q-8 -126 31 -181.5t135 -55.5
q84 0 124.5 42.5t40.5 130.5q0 65 -47 114q-46 49 -169 114q-116 61 -165 128q-49 66 -49 161q0 118 67 177q52 45 142 55v243h110v-242q107 -11 155 -67q60 -70 60 -239v0h-117z" />
    <glyph glyph-name="percent" unicode="%" horiz-adv-x="1365" 
d="M321 618q-100 0 -146 61t-46 193v306q0 128 46 187t146 59t146.5 -59t46.5 -187v-306q0 -132 -46.5 -193t-146.5 -61v0zM321 1347q-58 0 -80.5 -37.5t-22.5 -132.5v-306q0 -98 22.5 -137t80.5 -39t81 39t23 137v306q0 95 -23 132.5t-81 37.5v0zM356 -70l558 1522h95
l-558 -1522h-95zM1043 -14q-100 0 -146 61t-46 193v306q0 128 46 187t146 59t146.5 -59t46.5 -187v-306q0 -132 -46.5 -193t-146.5 -61v0zM1043 715q-58 0 -80.5 -37.5t-22.5 -132.5v-306q0 -98 22.5 -137t80.5 -39t81 39t23 137v306q0 95 -23 132.5t-81 37.5v0z" />
    <glyph glyph-name="ampersand" unicode="&#x26;" horiz-adv-x="1062" 
d="M202 1161q0 119 75.5 194.5t194.5 75.5t194.5 -69.5t75.5 -179.5q0 -126 -75 -235q-63 -92 -171 -162l291 -435q17 59 29 139q23 158 12 328v0h55h55v0q11 -174 -19 -347q-23 -133 -63 -224l165 -246v0h-68h-68v0l-95 141q-51 -57 -125 -100q-108 -62 -221 -62
q-155 0 -254 107.5t-99 276.5q0 112 80 237q65 103 177 201q-68 104 -106 194q-40 96 -40 166zM444 76q88 0 173 49q71 42 115 103l-328 491q-92 -82 -142 -160q-63 -98 -63 -197q0 -126 69 -206q68 -80 176 -80zM316 1151q0 -50 32 -122q31 -68 92 -161q86 55 132 122
q56 82 56 189q0 67 -43.5 109.5t-112.5 42.5t-113 -51q-43 -50 -43 -129z" />
    <glyph glyph-name="quotesingle" unicode="'" horiz-adv-x="455" 
d="M183 939l-30 471h149l-30 -471h-89z" />
    <glyph glyph-name="parenleft" unicode="(" horiz-adv-x="455" 
d="M119 639q0 155 32.5 380.5t79.5 397.5h80q-32 -158 -54.5 -383.5t-22.5 -394.5q0 -171 22.5 -396.5t54.5 -381.5h-80q-47 173 -80 399q-32 225 -32 379z" />
    <glyph glyph-name="parenright" unicode=")" horiz-adv-x="455" 
d="M346 639q0 -156 -32 -381.5t-79 -396.5h-80q32 155 54 381t22 397q0 173 -22 398.5t-54 379.5h80q47 -172 79 -398q32 -225 32 -380z" />
    <glyph glyph-name="asterisk" unicode="*" 
d="M591 1373l-133 -192v0l231 21v-92l-231 21v0l135 -189l-80 -48l-99 210v0l-98 -211l-81 46l133 192v0l-231 -21v92l231 -21v0l-135 189l80 48l99 -210v0l98 211z" />
    <glyph glyph-name="plus" unicode="+" horiz-adv-x="1365" 
d="M638 527h-329v88h329v329h88v-329h329v-88h-329v-329h-88v329z" />
    <glyph glyph-name="comma" unicode="," horiz-adv-x="455" 
d="M107 -269l96 426h144l-147 -426h-93z" />
    <glyph glyph-name="hyphen" unicode="-" horiz-adv-x="455" 
d="M56 551h342v-81h-342v81z" />
    <glyph glyph-name="period" unicode="." horiz-adv-x="455" 
d="M152 158h160v-158h-160v158z" />
    <glyph glyph-name="slash" unicode="/" horiz-adv-x="455" 
d="M435 1410l-322 -1495h-92l322 1495h92z" />
    <glyph glyph-name="zero" unicode="0" 
d="M418 -21q-165 0 -241.5 85.5t-76.5 270.5v755q0 177 76.5 259t241.5 82t241.5 -82t76.5 -259v-755q0 -185 -76.5 -270.5t-241.5 -85.5v0zM418 75q114 0 159 60.5t45 213.5v726q0 146 -45 203t-159 57t-159 -57t-45 -203v-726q0 -153 45 -213.5t159 -60.5v0z" />
    <glyph glyph-name="one" unicode="1" 
d="M420 0v1277v0q-37 -43 -71 -75q-62 -60 -156 -133v135q73 55 122 100t111 113h110v0v-1417v0h-58h-58v0z" />
    <glyph glyph-name="two" unicode="2" 
d="M737 1128q0 -204 -136 -457q-130 -245 -413 -578v0h562v-93h-654v69v70q255 299 393 557t138 436q0 95 -52.5 149t-146.5 54q-116 0 -163 -75t-36 -245v0h-114v0q-14 220 59 318t252 98q149 0 230 -79t81 -224z" />
    <glyph glyph-name="three" unicode="3" 
d="M608 1150q0 89 -49.5 137t-141.5 48q-109 0 -150 -60.5t-41 -221.5v0h-114v0q0 200 71.5 289t233.5 89q146 0 225.5 -77t79.5 -219v-136q0 -129 -73 -189q-38 -31 -97 -45v0q68 -22 108 -62q74 -76 74 -240v-160q0 -169 -74.5 -246.5t-236.5 -77.5q-165 0 -238 95.5
t-73 311.5v0h114v0q0 -177 42.5 -244t154.5 -67q110 0 153.5 57t43.5 201v160q0 107 -56.5 160.5t-168.5 53.5h-97v96h107q93 0 148 51.5t55 139.5v156z" />
    <glyph glyph-name="four" unicode="4" 
d="M526 381h-464v46v46l413 937h83h84v-936v0h145v-93h-145v0v-381h-116v381v0zM526 474v0v828v0v0l-354 -828v0h354z" />
    <glyph glyph-name="five" unicode="5" 
d="M761 349q0 -204 -69 -287t-238 -83q-172 0 -245.5 96t-60.5 305v0h114v0q-10 -162 35 -233.5t157 -71.5t152.5 58t40.5 219v183q0 155 -39 211.5t-146 56.5q-87 0 -132 -43t-55 -137h-121l24 787v0h522v-93h-415v0l-16 -516v0q25 30 43 46q57 47 179 47q140 0 205 -87
t65 -275v-183z" />
    <glyph glyph-name="six" unicode="6" 
d="M442 1431q179 0 244 -78.5t65 -294.5v0h-114v0q0 161 -41 219t-154 58q-124 0 -165.5 -55.5t-41.5 -221.5v-272v0q94 102 219 102q154 0 225.5 -73t71.5 -232v-290q0 -163 -74 -238.5t-235 -75.5q-180 0 -250.5 94.5t-70.5 335.5v599q0 254 64 339q64 84 257 84zM237 300
q0 -112 51 -170t149 -58q112 0 156 50t44 178v272q0 123 -44 171.5t-156 48.5q-98 0 -149 -56t-51 -164v-272z" />
    <glyph glyph-name="seven" unicode="7" 
d="M232 0l382 1308l2 7v0h-484v95h589v-51v-51l-368 -1308h-121z" />
    <glyph glyph-name="eight" unicode="8" 
d="M579 760v0q58 -20 91 -52q70 -69 70 -231v-191q0 -154 -76 -230.5t-229 -76.5q-152 0 -228 76.5t-76 230.5v191q0 162 70 231q34 33 89 51v0q-46 17 -78 42q-66 57 -66 193v165q0 136 72 204t217 68t217 -68t72 -204v-165q0 -136 -67 -194q-30 -26 -78 -40zM435 803
q94 0 134.5 44.5t40.5 149.5v151q0 101 -40.5 144t-134.5 43t-134.5 -43t-40.5 -144v-151q0 -105 41 -150q40 -44 134 -44zM435 707q-103 0 -146.5 -52t-43.5 -173v-175q0 -125 43.5 -178.5t146.5 -53.5t147 53.5t44 178.5v175q0 121 -44 173t-147 52z" />
    <glyph glyph-name="nine" unicode="9" 
d="M427 -21q-180 0 -245 78.5t-65 294.5v0h114v0q0 -161 41 -219t155 -58q125 0 167 55.5t42 221.5v272v0q-96 -102 -221 -102q-155 0 -226.5 73t-71.5 232v290q0 163 74.5 238.5t236.5 75.5q180 0 251 -94.5t71 -335.5v-599q0 -254 -65 -339q-64 -84 -258 -84zM634 1110
q0 112 -51.5 170t-149.5 58q-113 0 -157.5 -50t-44.5 -178v-272q0 -123 44.5 -171.5t157.5 -48.5q98 0 149.5 56t51.5 164v272z" />
    <glyph glyph-name="colon" unicode=":" horiz-adv-x="455" 
d="M154 158h160v-158h-160v158zM154 982h160v-158h-160v158z" />
    <glyph glyph-name="semicolon" unicode=";" horiz-adv-x="455" 
d="M89 -269l96 427h144l-147 -427h-93zM169 982h160v-158h-160v158z" />
    <glyph glyph-name="less" unicode="&#x3c;" horiz-adv-x="1348" 
d="M212 527v44v44l925 443v-98l-813 -389v0l813 -389v-98z" />
    <glyph glyph-name="equal" unicode="=" horiz-adv-x="1365" 
d="M309 527h746v-89h-746v89zM309 739h746v-89h-746v89z" />
    <glyph glyph-name="greater" unicode="&#x3e;" horiz-adv-x="1348" 
d="M1137 527l-925 -443v98l813 389v0l-813 389v98l925 -443v-44v-44z" />
    <glyph glyph-name="question" unicode="?" 
d="M439 1331q-88 0 -123 -57t-35 -202v0h-116v0q0 201 60.5 280t213.5 79q142 0 207.5 -68.5t65.5 -217.5q0 -108 -36 -210t-116 -220q-52 -77 -67 -126t-15 -143v-155h-112v155q0 103 20.5 168.5t83.5 160.5q80 123 103 190t23 180q0 102 -36 144q-35 42 -121 42zM342 158
h160v-158h-160v158z" />
    <glyph glyph-name="at" unicode="@" horiz-adv-x="1365" 
d="M1032 234q38 0 53.5 33t15.5 113v518q0 241 -92 339.5t-318 98.5t-318.5 -99t-92.5 -341v-673q0 -210 87.5 -296t301.5 -86q75 0 156.5 16.5t124.5 40.5v-93q-45 -25 -128.5 -42t-159.5 -17q-270 0 -380 106.5t-110 366.5v673q1 296 117.5 417.5t401.5 121.5t402 -120
t116 -413v-518q0 -135 -41.5 -190.5t-143.5 -55.5q-100 0 -141 143v0q-13 -30 -30 -54q-63 -89 -180 -89q-116 0 -178.5 69.5t-62.5 197.5v349q0 124 63 191t179 67q104 1 164 -72v0v51v0h116v-609q0 -79 17.5 -111.5t60.5 -32.5zM693 918q-74 0 -109.5 -41t-35.5 -127v-349
q0 -90 35.5 -133.5t109.5 -43.5t109.5 61.5t35.5 188.5v194q0 127 -35.5 188.5t-109.5 61.5z" />
    <glyph glyph-name="A" unicode="A" horiz-adv-x="948" 
d="M44 0l366 1410h64h64l366 -1410v0h-60h-60v0l-97 394v0h-428v0l-95 -394v0h-60h-60v0zM473 1264l-188 -770v0h378v0l-190 770v0v0z" />
    <glyph glyph-name="B" unicode="B" horiz-adv-x="948" 
d="M149 0v1410v0h58v0h250q223 0 297 -71t74 -283q0 -200 -74 -267q-40 -36 -124 -52v0q100 -17 144 -68q61 -73 61 -294q0 -225 -70.5 -300t-282.5 -75h-275v0h-58v0zM265 1310v-527v0h192q153 0 204 53t51 213q0 157 -51 209t-204 52h-192v0zM265 683v-583v0h217
q142 0 189.5 59t47.5 235q0 173 -57.5 231t-229.5 58h-167v0z" />
    <glyph glyph-name="C" unicode="C" horiz-adv-x="872" 
d="M778 381v0q0 -213 -71.5 -307.5t-233.5 -94.5q-168 0 -252 98t-84 295v682q0 181 87.5 279t248.5 98q159 0 232 -89.5t73 -283.5v0h-116v0q0 145 -44.5 209t-144.5 64q-121 0 -170.5 -62.5t-49.5 -215.5v-682q0 -155 51.5 -223.5t168.5 -68.5q104 0 146.5 68t42.5 234v0
h116z" />
    <glyph glyph-name="D" unicode="D" horiz-adv-x="986" 
d="M148 0v1410v0h58v0h224q239 0 333 -83.5t94 -296.5v-634q0 -222 -94 -309t-333 -87h-224v0h-58v0zM264 100v0h166q177 0 244 63.5t67 231.5v634q0 160 -67 220.5t-244 60.5h-166v0v-1210z" />
    <glyph glyph-name="E" unicode="E" horiz-adv-x="796" 
d="M153 0v0v1410v0h563v0v-50v-50v0h-447v0v-536v0h424v-50v-50v0h-424v0v-574v0h459v0v-50v-50v0h-575z" />
    <glyph glyph-name="F" unicode="F" horiz-adv-x="721" 
d="M144 0v1410v0h551v0v-50v-50v0h-435v0v-536v0h418v-50v-50v0h-418v0v-674h-58h-58z" />
    <glyph glyph-name="G" unicode="G" horiz-adv-x="986" 
d="M496 -21q-169 0 -261 102t-92 291v682q0 181 95.5 279t272.5 98q170 0 251.5 -91.5t81.5 -281.5v0h-116v0q0 131 -56.5 202t-160.5 71q-128 0 -190 -68t-62 -210v-682q0 -149 64 -220.5t198 -71.5q118 0 207 36v0v490v0h-199v100h315v-656v0q-132 -70 -348 -70z" />
    <glyph glyph-name="H" unicode="H" horiz-adv-x="986" 
d="M141 0v1410v0h58h58v0v-636v0h468v0v636v0h58h58v0v-1410v0h-58h-58v0v674v0h-468v0v-674v0h-58h-58v0z" />
    <glyph glyph-name="I" unicode="I" horiz-adv-x="417" 
d="M152 0v1410v0h58h58v0v-1410v0h-58h-58v0z" />
    <glyph glyph-name="J" unicode="J" horiz-adv-x="796" 
d="M550 1410v0h58h58v0v-1145q0 -132 -83 -209t-224 -77q-168 0 -237 85.5t-69 295.5v0h116v0q0 -156 41 -219.5t142 -63.5q93 0 145.5 50t52.5 138v0v1145z" />
    <glyph glyph-name="K" unicode="K" horiz-adv-x="910" 
d="M261 1410v-1410v0h-58h-58v0v1410v0h58h58v0zM738 0l-462 761v0l442 649v0h64h64v0l-459 -645v0l488 -765v0h-68h-69v0z" />
    <glyph glyph-name="L" unicode="L" horiz-adv-x="721" 
d="M145 0v0v1410v0h58h58v0v-1310v0h431v0v-50v-50v0h-547z" />
    <glyph glyph-name="M" unicode="M" horiz-adv-x="1327" 
d="M271 0v0h-58h-58v0v1410v0h101h101v0l313 -1235v0v0l295 1235v0h101h101v0v-1410v0h-58h-58v0v1322v0l-315 -1322h-75h-75l-315 1291v0v-1291z" />
    <glyph glyph-name="N" unicode="N" horiz-adv-x="1062" 
d="M261 0v0h-60h-60v0v1410v0h81h81v0l488 -1202v0v0v1202v0h60h60v0v-1410h-80h-80l-490 1207v0v0v-1207z" />
    <glyph glyph-name="O" unicode="O" horiz-adv-x="986" 
d="M491 -21q-170 0 -262 102t-92 291v682q0 181 92 279t262 98t262.5 -98t92.5 -279v-682q0 -189 -92.5 -291t-262.5 -102v0zM491 79q122 0 180.5 71.5t58.5 220.5v682q0 142 -58.5 210t-180.5 68q-121 0 -179.5 -68t-58.5 -210v-682q0 -149 58.5 -220.5t179.5 -71.5v0z" />
    <glyph glyph-name="P" unicode="P" horiz-adv-x="872" 
d="M155 0v1410v0h58v0h230q225 0 300 -77.5t75 -310.5q0 -238 -75 -317.5t-300 -79.5h-172v0v-625v0h-58h-58v0zM271 725v0h172q155 0 207 59t52 236q0 174 -52 232t-207 58h-172v0v-585z" />
    <glyph glyph-name="Q" unicode="Q" horiz-adv-x="986" 
d="M949 0h-237q-69 0 -118 -10q-34 -8 -78 -10v0l-40 -1q-170 0 -262 102t-92 291v682q0 181 92 279t262 98t262.5 -88.5t92.5 -252.5v-754q0 -145 -91 -246v0l209 8v-98zM476 1331q-121 0 -179.5 -68t-58.5 -210v-682q0 -149 58.5 -220.5t179.5 -71.5q122 0 180.5 63
t58.5 193v754q0 123 -58.5 182.5t-180.5 59.5v0z" />
    <glyph glyph-name="R" unicode="R" horiz-adv-x="948" 
d="M154 0v1410v0h58v0h236q230 0 307 -75t77 -299q0 -185 -83 -255q-47 -40 -140 -58v0q100 -9 150 -59q63 -61 61 -194q-2 -124 5 -236.5t24 -233.5v0h-59h-59v0q-15 122 -20.5 234.5t-1.5 235.5q3 107 -53.5 156.5t-182.5 49.5h-203v0v-676v0h-58h-58v0zM270 776v0h178
q161 0 214.5 54t53.5 216q0 158 -53.5 211t-214.5 53h-178v0v-534z" />
    <glyph glyph-name="S" unicode="S" horiz-adv-x="872" 
d="M644 1058v0q0 142 -49.5 207.5t-157.5 65.5q-91 0 -142.5 -51t-51.5 -142t46 -162q45 -70 189 -201q177 -161 233 -244q55 -83 55 -185q0 -172 -90 -269.5t-249 -97.5q-173 0 -249.5 94.5t-76.5 307.5v0h110v0q0 -160 52.5 -231t170.5 -71q102 0 159 65t57 180
q0 76 -43 136q-42 60 -196 200q-166 151 -225 243q-59 91 -59 197q0 156 82 243.5t228 87.5q171 0 247 -87.5t76 -285.5v0h-116z" />
    <glyph glyph-name="T" unicode="T" 
d="M360 0v1310v0h-329v0v50v50v0h775v0v-50v-50v0h-330v0v-1310v0h-58h-58v0z" />
    <glyph glyph-name="U" unicode="U" horiz-adv-x="986" 
d="M846 295q0 -152 -91 -234t-260 -82t-260 82t-91 234v1115v0h58h58v0v-1095q0 -120 58 -178t178 -58t177.5 58t57.5 178v1095v0h57h58v0v-1115z" />
    <glyph glyph-name="V" unicode="V" horiz-adv-x="910" 
d="M40 1410v0h59h60v0l305 -1274v0v0l283 1274v0h60h60v0l-334 -1410h-80h-80z" />
    <glyph glyph-name="W" unicode="W" horiz-adv-x="1403" 
d="M307 0l-257 1410v0h64h65v0l214 -1280v0v0l221 1280h88h88l232 -1339v0v0l204 1339v0h58h59v0l-236 -1410h-88h-88l-240 1280v0v0l-216 -1280h-84h-84z" />
    <glyph glyph-name="X" unicode="X" horiz-adv-x="948" 
d="M30 0l383 744v0l-337 666v0h65h65v0l272 -539v0v0l277 539v0h62h63v0l-341 -662v0l378 -748v0h-65h-65v0l-313 621v0v0l-319 -621v0h-62h-63v0z" />
    <glyph glyph-name="Y" unicode="Y" horiz-adv-x="910" 
d="M406 625v0l-351 785v0h64h64v0l281 -678v0l291 678v0h58h59v0l-350 -788v0v-622h-58h-58v625z" />
    <glyph glyph-name="Z" unicode="Z" horiz-adv-x="796" 
d="M45 102l597 1206l1 2h-598v0v50v50v0h727v-51v-51l-597 -1206l-1 -2h598v0v-50v-50v0h-727v51v51z" />
    <glyph glyph-name="bracketleft" unicode="[" horiz-adv-x="455" 
d="M110 -202v1612v0h295v-63h-182v0v-1480v0h182v-69h-295v0z" />
    <glyph glyph-name="backslash" unicode="\" horiz-adv-x="455" 
d="M343 -85l-322 1495h92l322 -1495h-92z" />
    <glyph glyph-name="bracketright" unicode="]" horiz-adv-x="455" 
d="M353 -202v0h-295v69h182v0v1480v0h-182v63h295v0v-1612z" />
    <glyph glyph-name="asciicircum" unicode="^" horiz-adv-x="1024" 
d="M564 1536q66 -169 142 -270q75 -101 218 -211v-62q-203 114 -319 228q-47 46 -93 106v0q-48 -60 -95 -107q-116 -114 -318 -227v62q141 111 216 212q76 101 143 269h53h53z" />
    <glyph glyph-name="underscore" unicode="_" horiz-adv-x="1024" 
d="M0 -512v105h1024v-105h-1024z" />
    <glyph glyph-name="grave" unicode="`" 
d="M381 1103l-155 300h130l123 -300h-98z" />
    <glyph glyph-name="a" unicode="a" horiz-adv-x="759" 
d="M312 -21q-125 0 -185.5 72t-60.5 222v17q0 163 94.5 230t326.5 67h37v0v143q0 84 -44 133.5t-118 49.5q-90 0 -126.5 -48t-36.5 -166v0h-116v0q0 164 64 234t214 70q137 0 208 -65.5t71 -191.5v-746v0v0h-116v0v75v0q-73 -96 -212 -96zM524 344v153v0h-62
q-154 0 -217 -46.5t-63 -160.5v-17q0 -104 39 -154t121 -50q96 0 138.5 66t43.5 209v0z" />
    <glyph glyph-name="b" unicode="b" horiz-adv-x="796" 
d="M119 1410v0h58h58v0v-503v0q75 96 206 96q121 0 186.5 -78.5t65.5 -223.5v-409q0 -150 -65.5 -231.5t-186.5 -81.5q-131 0 -206 95v0v-74v0h-116v0v1410zM406 69q87 0 129 54.5t42 168.5v409q0 108 -42 160t-129 52t-129 -74.5t-42 -229.5v0v-236v0q0 -155 42 -230
q42 -74 129 -74z" />
    <glyph glyph-name="c" unicode="c" horiz-adv-x="683" 
d="M606 304v0q0 -172 -62 -248.5t-202 -76.5q-132 0 -197.5 78t-65.5 235v409q0 145 68.5 223.5t194.5 78.5q137 0 200.5 -73.5t63.5 -232.5v0h-115v0q0 114 -35 165t-114 51q-75 0 -111.5 -52t-36.5 -160v-409q0 -109 38 -166t110 -57q82 0 115.5 53t33.5 182v0h115z" />
    <glyph glyph-name="d" unicode="d" horiz-adv-x="796" 
d="M363 -21q-123 0 -190 81.5t-67 231.5v409q0 145 67 223.5t190 78.5q129 0 201 -95v0v502v0h58h58v0v-1410v0h-58h-58v0v74v0q-72 -95 -201 -95zM393 913q-87 0 -129 -52t-42 -160v-409q0 -114 42 -168.5t129 -54.5t129 74.5t42 229.5v236q0 155 -42 229.5t-129 74.5z" />
    <glyph glyph-name="e" unicode="e" horiz-adv-x="759" 
d="M382 -21q-138 0 -212.5 81.5t-74.5 231.5v409q0 145 74.5 223.5t212.5 78.5t212.5 -78.5t74.5 -223.5v-246v0h-459v0v-163q0 -114 42 -168.5t129 -54.5q93 0 133 52t40 174v0h115v0q0 -167 -67.5 -241.5t-219.5 -74.5zM554 545v0v156q0 108 -42 160t-130 52t-130 -52
t-42 -160v-156v0h344z" />
    <glyph glyph-name="f" unicode="f" horiz-adv-x="493" 
d="M304 897v0v-897v0h-58h-58v0v897v0h-155v85h155v0v238q0 114 45 159t159 45l68 -3v-91q-26 5 -56 4q-59 0 -79.5 -23.5t-20.5 -90.5v-238v0h156v-85h-156z" />
    <glyph glyph-name="g" unicode="g" horiz-adv-x="796" 
d="M375 -298q98 0 143.5 44t45.5 140v168v0q-69 -76 -191 -75q-128 0 -197.5 81.5t-69.5 231.5v409q0 145 69.5 223.5t198.5 78.5q122 0 190 -72v0v51v0h116v-1096q0 -134 -73 -204t-214 -70q-127 0 -195.5 66.5t-68.5 189.5v0h116v0q0 -80 34 -123t96 -43zM393 913
q-87 0 -129 -52t-42 -160v-409q0 -114 42 -168.5t129 -54.5q80 0 122 74.5t49 229.5v236q0 155 -42 229.5t-129 74.5z" />
    <glyph glyph-name="h" unicode="h" horiz-adv-x="796" 
d="M110 0v1410v0h58h58v0v-500l1 1v0q73 92 213 92q119 0 181 -73t62 -214v-716v0h-58h-58v0v713q0 94 -40.5 146.5t-112.5 52.5q-98 0 -143 -65t-45 -206v0v-641v0h-58h-58v0z" />
    <glyph glyph-name="i" unicode="i" horiz-adv-x="341" 
d="M115 0v982v0h58h58v0v-982v0h-58h-58v0zM109 1410h128v-141h-128v141z" />
    <glyph glyph-name="j" unicode="j" horiz-adv-x="341" 
d="M116 982v0h58h58v0v-1184q0 -85 -39.5 -123t-129.5 -38h-59v90h32q45 0 62.5 18t17.5 64v0v1173zM110 1410h128v-141h-128v141z" />
    <glyph glyph-name="k" unicode="k" horiz-adv-x="759" 
d="M229 1410v-1410v0h-58h-58v0v1410v0h58h58v0zM598 0l-350 560v0l328 422v0h64h65v0l-329 -426v0l360 -556v0h-69h-69v0z" />
    <glyph glyph-name="l" unicode="l" horiz-adv-x="341" 
d="M118 0v1410v0h58h58v0v-1410v0h-58h-58v0z" />
    <glyph glyph-name="m" unicode="m" horiz-adv-x="1252" 
d="M108 0v982v0h59h59v0v-68v0v0q75 89 212 89q110 0 177 -79q19 -22 33 -50v0q15 25 32 45q73 84 214 84q120 0 182.5 -73.5t62.5 -215.5v-714v0h-58h-58v0v713q0 94 -40.5 146.5t-112.5 52.5q-98 0 -143 -57t-45 -181v0v-674v0h-58h-58v0v728q0 86 -41 135t-113 49
q-98 0 -143 -65t-45 -206v0v-641v0h-58h-58v0z" />
    <glyph glyph-name="n" unicode="n" horiz-adv-x="796" 
d="M112 0v982v0h55h55v0v-80v0v0l7 9q73 92 213 92q119 0 181 -73t62 -214v-716v0h-58h-58v0v713q0 94 -40.5 146.5t-112.5 52.5q-98 0 -143 -65t-45 -206v0v-641v0h-58h-58v0z" />
    <glyph glyph-name="o" unicode="o" horiz-adv-x="796" 
d="M399 -21q-137 0 -211.5 81.5t-74.5 231.5v409q0 145 74.5 223.5t211.5 78.5q138 0 212.5 -78.5t74.5 -223.5v-409q0 -150 -74.5 -231.5t-212.5 -81.5v0zM399 69q88 0 130 54.5t42 168.5v409q0 108 -42 160t-130 52q-87 0 -129 -52t-42 -160v-409q0 -114 42 -168.5
t129 -54.5v0z" />
    <glyph glyph-name="p" unicode="p" horiz-adv-x="796" 
d="M120 982v0h58h58v0v-75v0q75 96 206 96q121 0 186.5 -78.5t65.5 -223.5v-409q0 -150 -65.5 -231.5t-186.5 -81.5q-131 0 -206 95v0v-441v0h-58h-58v0v1349zM407 69q87 0 129 54.5t42 168.5v409q0 108 -42 160t-129 52t-129 -74.5t-42 -229.5v0v-236v0q0 -155 42 -229.5
t129 -74.5z" />
    <glyph glyph-name="q" unicode="q" horiz-adv-x="796" 
d="M359 -21q-123 0 -190 81.5t-67 231.5v409q0 145 67 223.5t190 78.5q129 0 201 -95v0v74v0h116v0v-1349v0h-58h-58v0v441v0q-72 -95 -201 -95zM389 913q-87 0 -129 -52t-42 -160v-409q0 -114 42 -168.5t129 -54.5t129 74.5t42 229.5v236q0 155 -42 229.5t-129 74.5z" />
    <glyph glyph-name="r" unicode="r" horiz-adv-x="531" 
d="M132 0v982v0h57h57v0v-122v0v0q16 24 34 44q75 79 220 79h10v-93l-25 2q-123 0 -180 -52.5t-57 -166.5v0v-673v0h-58h-58v0z" />
    <glyph glyph-name="s" unicode="s" horiz-adv-x="645" 
d="M461 697v0q0 112 -34.5 164t-109.5 52q-63 0 -93.5 -35.5t-30.5 -108.5q0 -45 33 -86q32 -41 127 -117q127 -102 176 -170q49 -67 49 -140q0 -139 -65 -208t-195 -69q-138 0 -199 76.5t-61 248.5v0h112v0q0 -125 35 -180t113 -55q75 0 111.5 43t36.5 132q0 52 -37 99
t-146 135q-114 91 -158 152q-44 60 -44 126q0 124 61.5 185.5t184.5 61.5q130 0 188 -72t58 -234v0h-112z" />
    <glyph glyph-name="t" unicode="t" horiz-adv-x="531" 
d="M473 -12q-51 -9 -118 -9q-95 0 -132 53t-37 187v680v0h-152v83h152v0v147l116 48v-195v0h171v-83h-171v0v-585q0 -144 17 -194.5t66 -50.5q50 0 88 6v-87z" />
    <glyph glyph-name="u" unicode="u" horiz-adv-x="796" 
d="M228 982v-733q0 -89 38.5 -134t114.5 -45q98 0 143 65t45 206v0v641v0h58h58v0v-982v0h-55h-55v0v83v0v0l-10 -12q-75 -92 -221 -92q-114 0 -173 70t-59 204v729v0h58h58v0z" />
    <glyph glyph-name="v" unicode="v" horiz-adv-x="721" 
d="M27 982v0h60h60v0l211 -913v0v0l225 913v0h51h52v0l-240 -982h-89h-90z" />
    <glyph glyph-name="w" unicode="w" horiz-adv-x="1252" 
d="M252 0l-218 982v0h59h60v0l192 -913v0v0l181 913h91h91l199 -897v0v0l183 897v0h57h58v0l-212 -982h-92h-92l-191 902v0v0l-182 -902h-92h-92z" />
    <glyph glyph-name="x" unicode="x" horiz-adv-x="721" 
d="M42 0l252 520v0l-235 462v0h64h65v0l181 -381v0v0l182 381v0h58h59v0l-243 -494v0l266 -488v0h-62h-63v0l-210 407v0v0l-197 -407v0h-58h-59v0z" />
    <glyph glyph-name="y" unicode="y" horiz-adv-x="759" 
d="M703 982l-356 -1341v0h-55h-56v0l92 352v0l-274 989v0h60h61v0l208 -840v0v0l216 840v0h52h52v0z" />
    <glyph glyph-name="z" unicode="z" horiz-adv-x="569" 
d="M33 115l374 752l13 25v0h-387v0v45v45v0h505v-57v-58l-374 -752l-13 -25v0h387v0v-45v-45v0h-505v57v58z" />
    <glyph glyph-name="braceleft" unicode="{" horiz-adv-x="910" 
d="M709 -476q-177 0 -241 68.5t-64 257.5v264q0 180 -44.5 261.5t-157.5 108.5v116q113 27 157.5 108.5t44.5 261.5v264q0 189 64 257.5t241 68.5v-77q-125 10 -174 -45t-49 -204v-264q0 -224 -60 -320q-42 -67 -137 -107v0q95 -43 137 -109q60 -96 60 -320v-264
q0 -149 49 -204t174 -45v-77z" />
    <glyph glyph-name="bar" unicode="|" horiz-adv-x="1024" 
d="M459 -512v2048h105v-2048h-105z" />
    <glyph glyph-name="braceright" unicode="}" horiz-adv-x="910" 
d="M202 -476v77q124 -10 173 45t49 204v264q0 224 60 320q42 66 137 109v0q-95 40 -137 107q-60 96 -60 320v264q0 149 -49 204t-173 45v77q176 0 240 -68.5t64 -257.5v-264q0 -180 44.5 -261.5t157.5 -108.5v-116q-113 -27 -157.5 -108.5t-44.5 -261.5v-264
q0 -189 -64 -258q-64 -68 -240 -68z" />
    <glyph glyph-name="asciitilde" unicode="~" horiz-adv-x="2048" 
d="M399 477q48 106 136.5 168t191.5 62q51 0 131.5 -20t183.5 -59q105 -40 170 -57.5t107 -17.5q74 0 136 46t95 125l97 -49q-48 -106 -136.5 -168t-191.5 -62q-51 0 -131.5 20t-183.5 59q-105 40 -170 57.5t-107 17.5q-74 0 -136 -46t-95 -125z" />
    <glyph glyph-name="uni00A0" unicode="&#xa0;" horiz-adv-x="455" 
 />
    <glyph glyph-name="exclamdown" unicode="&#xa1;" horiz-adv-x="607" 
d="M353 731l17 -1120h-116l18 1120h81zM384 870h-160v158h160v-158z" />
    <glyph glyph-name="cent" unicode="&#xa2;" 
d="M368 1465h112v-249q99 -15 149 -71q65 -73 65 -232v0h-115v0q0 117 -36.5 168.5t-118.5 51.5q-78 0 -116 -52t-38 -160v-400q0 -108 39.5 -164.5t114.5 -56.5q82 0 118.5 51.5t36.5 168.5v0h115v0q0 -162 -64 -234q-49 -56 -150 -68v-259h-112v258q-99 13 -150 70
q-63 72 -63 235v400q0 142 70 219q55 60 143 72v252z" />
    <glyph glyph-name="sterling" unicode="&#xa3;" 
d="M754 0h-651v89h113v622h-126v96h126v308q0 155 71 232t214 77q132 0 192.5 -86t60.5 -272v0h-113v0q0 138 -36 202t-114 64t-120 -49t-42 -140v-336h206v-96h-206v-622h425v0v-44v-45v0z" />
    <glyph glyph-name="currency" unicode="&#xa4;" 
d="M746 728q0 137 -94.5 231.5t-231.5 94.5t-231 -94.5t-94 -231.5t94 -231t231 -94t231.5 94t94.5 231zM420 283q-158 0 -275 92v0l-137 -137l-79 79l137 137v0q-90 117 -91 274q0 159 92 275v0l-138 138l79 79l138 -138v0q117 93 274 92q157 0 274 -92v0l138 138l79 -79
l-138 -138v0q93 -116 93 -275q0 -156 -92 -274v0l137 -137l-79 -79l-137 137v0q-116 -91 -275 -92z" />
    <glyph glyph-name="yen" unicode="&#xa5;" 
d="M51 609v100h273v0l-315 701v0h64h65v0l283 -676v0l292 676v0h58h59v0l-314 -701v0h273v-100h-311v0v-99v0h311v-100h-311v0v-410v0h-58h-58v0v410v0h-311v100h311v0v99v0h-311z" />
    <glyph glyph-name="brokenbar" unicode="&#xa6;" horiz-adv-x="1024" 
d="M459 -461v919h105v-919h-105zM459 564v919h105v-919h-105z" />
    <glyph glyph-name="section" unicode="&#xa7;" 
d="M487 1431q48 0 89.5 -8t70.5 -22v0v-86v0q-21 11 -62.5 16.5t-97.5 5.5q-88 0 -135.5 -42.5t-47.5 -121.5q0 -58 43.5 -101.5t141.5 -84.5q113 -47 163.5 -102.5t50.5 -133.5q0 -121 -74 -187q-41 -37 -102 -52q80 -39 116 -77q55 -58 55 -163q0 -143 -88 -220t-250 -77
q-46 0 -93.5 5.5t-88.5 15.5v0v88v0q29 -7 76.5 -11t105.5 -4q109 0 168.5 51t59.5 146q0 62 -44 105t-143 79q-139 50 -200.5 112.5t-61.5 154.5q0 112 89 180q45 35 103 51q-50 30 -81 62q-61 64 -61 160q0 125 78 193q77 68 220 68zM593 729q0 61 -33.5 100t-108.5 66
l-43 16q-46 -14 -90 -50q-69 -56 -69 -114q0 -70 44 -117q39 -42 122 -75h6q62 0 117 55.5t55 118.5z" />
    <glyph glyph-name="dieresis" unicode="&#xa8;" 
d="M258 1245h130v-142h-130v142zM472 1245h130v-142h-130v142z" />
    <glyph glyph-name="glyph106" horiz-adv-x="0" 
d="M-1 1529q201 0 339.5 -138.5t138.5 -339.5q0 -200 -138.5 -338.5t-339.5 -138.5q-200 0 -338.5 138.5t-138.5 338.5q0 201 138.5 339.5t338.5 138.5v0zM412 1051q0 173 -120 293t-293 120t-292.5 -120t-119.5 -293t119.5 -292.5t292.5 -119.5t293 119.5t120 292.5v0z" />
    <glyph glyph-name="glyph107" horiz-adv-x="0" 
d="M215 866q-24 -34 -81 -57t-115 -23q-110 0 -186.5 79.5t-76.5 194.5q0 116 75.5 195.5t184.5 79.5q58 0 114.5 -22t79.5 -54l-58 -62q-19 26 -58.5 44.5t-77.5 18.5q-78 0 -131.5 -58t-53.5 -142t54.5 -141.5t133.5 -57.5q37 0 77 19.5t61 47.5z" />
    <glyph glyph-name="copyright" unicode="&#xa9;" horiz-adv-x="1024" 
d="M509 1529q201 0 339.5 -138.5t138.5 -339.5q0 -200 -138.5 -338.5t-339.5 -138.5q-200 0 -338.5 138.5t-138.5 338.5q0 201 138.5 339.5t338.5 138.5v0zM922 1051q0 173 -120 293t-293 120t-292.5 -120t-119.5 -293t119.5 -292.5t292.5 -119.5t293 119.5t120 292.5v0z
M739 866q-24 -34 -81 -57t-115 -23q-110 0 -186.5 79.5t-76.5 194.5q0 116 75.5 195.5t184.5 79.5q58 0 114.5 -22t79.5 -54l-58 -62q-19 26 -58.5 44.5t-77.5 18.5q-78 0 -131.5 -58t-53.5 -142t54.5 -141.5t133.5 -57.5q37 0 77 19.5t61 47.5z" />
    <glyph glyph-name="ordfeminine" unicode="&#xaa;" horiz-adv-x="531" 
d="M209 769q-68 0 -109.5 53t-41.5 139v4q0 115 64.5 162t222.5 47h25v0v74q0 47 -27.5 74.5t-74.5 27.5q-53 0 -75 -22.5t-22 -77.5v0h-91v0q0 94 43.5 134t146.5 40q94 0 142.5 -42.5t48.5 -123.5v-482v0v0h-91v0v88v0l-12 -18q-51 -77 -149 -77zM370 1053v51v0h-39
q-99 0 -139.5 -29t-40.5 -99v-4q0 -65 23 -95t72 -30q66 0 95 52q27 48 29 154v0z" />
    <glyph glyph-name="guillemotleft" unicode="&#xab;" horiz-adv-x="721" 
d="M322 854l-99 -365v0l99 -366h-83l-121 366v0l121 365h83zM599 854l-99 -365v0l99 -366h-83l-121 366v0l121 365h83z" />
    <glyph glyph-name="logicalnot" unicode="&#xac;" horiz-adv-x="1365" 
d="M966 691h-657v89h746v-418h-89v329z" />
    <glyph glyph-name="uni00AD" unicode="&#xad;" horiz-adv-x="455" 
d="M56 551h342v-81h-342v81z" />
    <glyph glyph-name="glyph113" horiz-adv-x="0" 
d="M-1 1524q201 0 339.5 -138.5t138.5 -339.5q0 -200 -138.5 -338.5t-339.5 -138.5q-200 0 -338.5 138.5t-138.5 338.5q0 201 138.5 339.5t338.5 138.5v0zM412 1046q0 173 -120 293t-293 120t-292.5 -120t-119.5 -293t119.5 -292.5t292.5 -119.5t293 119.5t120 292.5v0z" />
    <glyph glyph-name="glyph114" horiz-adv-x="0" 
d="M-160 807v506h187q62 0 104.5 -42.5t42.5 -104.5t-43 -105q-20 -20 -46 -31l89 -223h-91l-84 212v0h-84v-212h-75zM99 1166q0 30 -21 51t-51 21h-112v0v-72v-72h112q30 0 51 21t21 51z" />
    <glyph glyph-name="registered" unicode="&#xae;" horiz-adv-x="1024" 
d="M509 1524q201 0 339.5 -138.5t138.5 -339.5q0 -200 -138.5 -338.5t-339.5 -138.5q-200 0 -338.5 138.5t-138.5 338.5q0 201 138.5 339.5t338.5 138.5v0zM922 1046q0 173 -120 293t-293 120t-292.5 -120t-119.5 -293t119.5 -292.5t292.5 -119.5t293 119.5t120 292.5v0z
M342 807v506h187q62 0 104.5 -42.5t42.5 -104.5t-43 -105q-20 -20 -46 -31l89 -223h-91l-84 212v0h-84v-212h-75zM601 1166q0 30 -21 51t-51 21h-112v0v-72v-72h112q30 0 51 21t21 51z" />
    <glyph glyph-name="macron" unicode="&#xaf;" horiz-adv-x="1024" 
d="M0 1526v105h1024v-105h-1024z" />
    <glyph glyph-name="degree" unicode="&#xb0;" 
d="M435 1431q125 0 211 -86t86 -211t-86 -211t-211 -86t-211 86t-86 211t86 211t211 86zM647 1134q0 89 -61.5 150.5t-150.5 61.5t-150.5 -61.5t-61.5 -150.5t61.5 -150.5t150.5 -61.5t150.5 61.5t61.5 150.5z" />
    <glyph glyph-name="plusminus" unicode="&#xb1;" horiz-adv-x="1365" 
d="M638 527h-329v88h329v329h88v-329h329v-88h-329v-329h-88v329zM309 127h746v-89h-746v89z" />
    <glyph glyph-name="uni00B2" unicode="&#xb2;" horiz-adv-x="531" 
d="M461 1246q0 -100 -81 -231q-73 -116 -223 -277v0h308v-75h-400v48v49q146 151 226 279q79 127 79 211q0 46 -25 71.5t-69 25.5q-55 0 -76.5 -38t-16.5 -123v0h-94v0q-8 126 35.5 182t150.5 56q89 0 138 -47q48 -46 48 -131z" />
    <glyph glyph-name="uni00B3" unicode="&#xb3;" horiz-adv-x="531" 
d="M357 1253q0 45 -24 69.5t-68 24.5q-52 0 -72 -32t-20 -116v0h-94v0q0 119 43.5 172t142.5 53q89 0 137.5 -45t48.5 -129v-70q0 -76 -45 -111l-23 -15v0q17 -8 30 -21q45 -44 45 -139v-59q0 -97 -45.5 -141.5t-144.5 -44.5q-100 0 -144.5 54t-44.5 175v0h94v0
q0 -87 20.5 -119.5t74.5 -32.5t75 27t21 96v59q0 51 -29 76.5t-86 25.5h-68v76h74q47 0 74.5 26t27.5 71v70z" />
    <glyph glyph-name="acute" unicode="&#xb4;" 
d="M350 1103l123 300h130l-155 -300h-98z" />
    <glyph glyph-name="uni00B5" unicode="&#xb5;" horiz-adv-x="1138" 
d="M428 982l-200 -648q-34 -111 19 -187.5t164 -76.5t215.5 90t145.5 221v0l185 601h116l-302 -982h-104l59 193v0v0q-36 -53 -84 -98q-121 -116 -247 -116q-125 0 -186 87q-27 40 -36 87v0l-182 -594h-116l225 736l212 687h116z" />
    <glyph glyph-name="paragraph" unicode="&#xb6;" 
d="M444 566v0q-215 39 -333 163t-118 316q0 216 161.5 348.5t425.5 132.5h260v-80h-138v0v-1772h-80v1772v0h-98v0v-1772h-80v892z" />
    <glyph glyph-name="periodcentered" unicode="&#xb7;" horiz-adv-x="455" 
d="M149 784h160v-158h-160v158z" />
    <glyph glyph-name="cedilla" unicode="&#xb8;" 
d="M272 -370l121 259h95l-93 -259h-123z" />
    <glyph glyph-name="uni00B9" unicode="&#xb9;" horiz-adv-x="531" 
d="M249 663v647v0l-37 -32q-40 -32 -100 -72v104q44 30 74 54l68 60h86v0v-761v0h-45h-46v0z" />
    <glyph glyph-name="ordmasculine" unicode="&#xba;" horiz-adv-x="531" 
d="M267 762q-99 0 -152.5 55t-53.5 157v244q0 99 53.5 152.5t152.5 53.5t152.5 -53.5t53.5 -152.5v-244q0 -102 -53.5 -157t-152.5 -55v0zM267 838q58 0 86 33.5t28 102.5v244q0 66 -28 98t-86 32t-86 -32t-28 -98v-244q0 -69 28 -102.5t86 -33.5v0z" />
    <glyph glyph-name="guillemotright" unicode="&#xbb;" horiz-adv-x="721" 
d="M118 123l99 365v0l-99 366h83l121 -366v0l-121 -365h-83zM394 123l99 365v0l-99 366h83l121 -366v0l-121 -365h-83z" />
    <glyph glyph-name="uni2215" unicode="&#x2215;" horiz-adv-x="228" 
d="M420 1438l-540 -1537h-95l540 1537h95z" />
    <glyph glyph-name="uni2074" unicode="&#x2074;" horiz-adv-x="531" 
d="M326 842h-261v36v36l240 496h56h56v-493v0h88v-75h-88v0v-179h-91v179v0zM326 917v0v371v0v0l-170 -371v0h170z" />
    <glyph glyph-name="onequarter" unicode="&#xbc;" horiz-adv-x="1365" 
d="M955 1438l-540 -1537h-95l540 1537h95zM296 663v647v0l-37 -32q-40 -32 -100 -72v104q44 30 74 54l68 60h86v0v-761v0h-45h-46v0zM1017 179h-261v36v36l240 496h56h56v-493v0h88v-75h-88v0v-179h-91v179v0zM1017 254v0v371v0v0l-170 -371v0h170z" />
    <glyph glyph-name="onehalf" unicode="&#xbd;" horiz-adv-x="1365" 
d="M934 1438l-540 -1537h-95l540 1537h95zM309 663v647v0l-37 -32q-40 -32 -100 -72v104q44 30 74 54l68 60h86v0v-761v0h-45h-46v0zM1201 583q0 -100 -81 -231q-73 -116 -223 -277v0h308v-75h-400v48v49q146 151 226 279q79 127 79 211q0 46 -25 71.5t-69 25.5
q-55 0 -76.5 -38t-16.5 -123v0h-94v0q-8 126 35.5 182t150.5 56q89 0 138 -47q48 -46 48 -131z" />
    <glyph glyph-name="threequarters" unicode="&#xbe;" horiz-adv-x="1365" 
d="M970 1438l-540 -1537h-95l540 1537h95zM413 1253q0 45 -24 69.5t-68 24.5q-52 0 -72 -32t-20 -116v0h-94v0q0 119 43.5 172t142.5 53q89 0 137.5 -45t48.5 -129v-70q0 -76 -45 -111l-23 -15v0q17 -8 30 -21q45 -44 45 -139v-59q0 -97 -45.5 -141.5t-144.5 -44.5
q-100 0 -144.5 54t-44.5 175v0h94v0q0 -87 20.5 -119.5t74.5 -32.5t75 27t21 96v59q0 51 -29 76.5t-86 25.5h-68v76h74q47 0 74.5 26t27.5 71v70zM991 179h-261v36v36l240 496h56h56v-493v0h88v-75h-88v0v-179h-91v179v0zM991 254v0v371v0v0l-170 -371v0h170z" />
    <glyph glyph-name="questiondown" unicode="&#xbf;" 
d="M424 -271q89 0 124 59t35 210v0h116v0q0 -207 -60.5 -288t-214.5 -81q-142 0 -208 65.5t-66 206.5q0 102 34 201t111 220q50 80 64.5 127.5t14.5 134.5v121h112v-121q0 -97 -19.5 -159.5t-79.5 -160.5q-77 -127 -99 -192t-22 -171q0 -95 36 -134q35 -38 122 -38zM510 832
h-160v158h160v-158z" />
    <glyph glyph-name="glyph135" horiz-adv-x="0" 
d="M3 0l-155 300h130l123 -300h-98z" />
    <glyph glyph-name="Agrave" unicode="&#xc0;" horiz-adv-x="948" 
d="M44 0l366 1410h64h64l366 -1410v0h-60h-60v0l-97 394v0h-428v0l-95 -394v0h-60h-60v0zM473 1264l-188 -770v0h378v0l-190 770v0v0zM477 1531l-155 300h130l123 -300h-98z" />
    <glyph glyph-name="glyph137" horiz-adv-x="0" 
d="M-101 0l123 300h130l-155 -300h-98z" />
    <glyph glyph-name="Aacute" unicode="&#xc1;" horiz-adv-x="948" 
d="M44 0l366 1410h64h64l366 -1410v0h-60h-60v0l-97 394v0h-428v0l-95 -394v0h-60h-60v0zM473 1264l-188 -770v0h378v0l-190 770v0v0zM373 1531l123 300h130l-155 -300h-98z" />
    <glyph glyph-name="glyph139" horiz-adv-x="0" 
d="M60 284l123 -284h-91l-92 195v0l-92 -195h-91l123 284h60h60z" />
    <glyph glyph-name="Acircumflex" unicode="&#xc2;" horiz-adv-x="948" 
d="M44 0l366 1410h64h64l366 -1410v0h-60h-60v0l-97 394v0h-428v0l-95 -394v0h-60h-60v0zM473 1264l-188 -770v0h378v0l-190 770v0v0zM534 1815l123 -284h-91l-92 195v0l-92 -195h-91l123 284h60h60z" />
    <glyph glyph-name="glyph141" horiz-adv-x="0" 
d="M-230 6q-2 131 17 178t74 47q26 0 59 -15t105 -61q68 -43 82 -43q17 0 22.5 24.5t3.5 89.5h97q2 -131 -17 -178t-74 -47q-26 0 -59 15t-105 61q-68 43 -82 43q-17 0 -22.5 -24.5t-3.5 -89.5h-97z" />
    <glyph glyph-name="Atilde" unicode="&#xc3;" horiz-adv-x="948" 
d="M44 0l366 1410h64h64l366 -1410v0h-60h-60v0l-97 394v0h-428v0l-95 -394v0h-60h-60v0zM473 1264l-188 -770v0h378v0l-190 770v0v0zM244 1537q-2 131 17 178t74 47q26 0 59 -15t105 -61q68 -43 82 -43q17 0 22.5 24.5t3.5 89.5h97q2 -131 -17 -178t-74 -47q-26 0 -59 15
t-105 61q-68 43 -82 43q-17 0 -22.5 -24.5t-3.5 -89.5h-97z" />
    <glyph glyph-name="glyph143" horiz-adv-x="0" 
d="M-172 142h130v-142h-130v142zM42 142h130v-142h-130v142z" />
    <glyph glyph-name="Adieresis" unicode="&#xc4;" horiz-adv-x="948" 
d="M44 0l366 1410h64h64l366 -1410v0h-60h-60v0l-97 394v0h-428v0l-95 -394v0h-60h-60v0zM473 1264l-188 -770v0h378v0l-190 770v0v0zM302 1673h130v-142h-130v142zM516 1673h130v-142h-130v142z" />
    <glyph glyph-name="glyph145" horiz-adv-x="0" 
d="M0 3q-79 0 -133.5 50t-54.5 123t54.5 123.5t133.5 50.5t133.5 -50.5t54.5 -123.5t-54.5 -123t-133.5 -50v0zM0 78q38 0 64 28.5t26 69.5q0 42 -26 70.5t-64 28.5t-64 -28.5t-26 -70.5q0 -41 26 -69.5t64 -28.5v0z" />
    <glyph glyph-name="Aring" unicode="&#xc5;" horiz-adv-x="948" 
d="M44 0l366 1410h64h64l366 -1410v0h-60h-60v0l-97 394v0h-428v0l-95 -394v0h-60h-60v0zM473 1264l-188 -770v0h378v0l-190 770v0v0zM474 1534q-79 0 -133.5 50t-54.5 123t54.5 123.5t133.5 50.5t133.5 -50.5t54.5 -123.5t-54.5 -123t-133.5 -50v0zM474 1609q38 0 64 28.5
t26 69.5q0 42 -26 70.5t-64 28.5t-64 -28.5t-26 -70.5q0 -41 26 -69.5t64 -28.5v0z" />
    <glyph glyph-name="AE" unicode="&#xc6;" horiz-adv-x="1289" 
d="M693 0v0v394v0h-385v0l-161 -394v0h-54h-55v0l599 1410v0h167v0h429v0v-50v-50v0h-429v0v-536v0h375v-50v-50v0h-375v0v-574v0h429v0v-50v-50v0h-429v0h-111zM693 1332l-344 -838v0h344v0v838v0z" />
    <glyph glyph-name="glyph148" horiz-adv-x="0" 
d="M-168 -370l121 259h95l-93 -259h-123z" />
    <glyph glyph-name="Ccedilla" unicode="&#xc7;" horiz-adv-x="872" 
d="M778 381v0q0 -213 -71.5 -307.5t-233.5 -94.5q-168 0 -252 98t-84 295v682q0 181 87.5 279t248.5 98q159 0 232 -89.5t73 -283.5v0h-116v0q0 145 -44.5 209t-144.5 64q-121 0 -170.5 -62.5t-49.5 -215.5v-682q0 -155 51.5 -223.5t168.5 -68.5q104 0 146.5 68t42.5 234v0
h116zM305 -370l121 259h95l-93 -259h-123z" />
    <glyph glyph-name="Egrave" unicode="&#xc8;" horiz-adv-x="796" 
d="M153 0v0v1410v0h563v0v-50v-50v0h-447v0v-536v0h424v-50v-50v0h-424v0v-574v0h459v0v-50v-50v0h-575zM409 1531l-155 300h130l123 -300h-98z" />
    <glyph glyph-name="Eacute" unicode="&#xc9;" horiz-adv-x="796" 
d="M153 0v0v1410v0h563v0v-50v-50v0h-447v0v-536v0h424v-50v-50v0h-424v0v-574v0h459v0v-50v-50v0h-575zM305 1531l123 300h130l-155 -300h-98z" />
    <glyph glyph-name="Ecircumflex" unicode="&#xca;" horiz-adv-x="796" 
d="M153 0v0v1410v0h563v0v-50v-50v0h-447v0v-536v0h424v-50v-50v0h-424v0v-574v0h459v0v-50v-50v0h-575zM466 1815l123 -284h-91l-92 195v0l-92 -195h-91l123 284h60h60z" />
    <glyph glyph-name="Edieresis" unicode="&#xcb;" horiz-adv-x="796" 
d="M153 0v0v1410v0h563v0v-50v-50v0h-447v0v-536v0h424v-50v-50v0h-424v0v-574v0h459v0v-50v-50v0h-575zM234 1673h130v-142h-130v142zM448 1673h130v-142h-130v142z" />
    <glyph glyph-name="Igrave" unicode="&#xcc;" horiz-adv-x="417" 
d="M154 0v1410v0h58h58v0v-1410v0h-58h-58v0zM215 1531l-155 300h130l123 -300h-98z" />
    <glyph glyph-name="Iacute" unicode="&#xcd;" horiz-adv-x="417" 
d="M142 0v1410v0h58h58v0v-1410v0h-58h-58v0zM99 1531l123 300h130l-155 -300h-98z" />
    <glyph glyph-name="Icircumflex" unicode="&#xce;" horiz-adv-x="417" 
d="M156 0v1410v0h58h58v0v-1410v0h-58h-58v0zM274 1815l123 -284h-91l-92 195v0l-92 -195h-91l123 284h60h60z" />
    <glyph glyph-name="Idieresis" unicode="&#xcf;" horiz-adv-x="417" 
d="M155 0v1410v0h58h58v0v-1410v0h-58h-58v0zM41 1673h130v-142h-130v142zM255 1673h130v-142h-130v142z" />
    <glyph glyph-name="Eth" unicode="&#xd0;" horiz-adv-x="986" 
d="M119 0v0v655v0h-90v100h90v0v655v0h58v0h235q249 0 347 -83.5t98 -296.5v-634q0 -222 -98 -309t-347 -87h-235v0h-58zM235 1310v0v-555v0h228v-100h-228v0v-555v0h177q187 0 258 63.5t71 231.5v634q0 160 -71 220.5t-258 60.5h-177z" />
    <glyph glyph-name="Ntilde" unicode="&#xd1;" horiz-adv-x="1062" 
d="M261 0v0h-60h-60v0v1410v0h81h81v0l488 -1202v0v0v1202v0h60h60v0v-1410h-80h-80l-490 1207v0v0v-1207zM296 1537q-2 131 17 178t74 47q26 0 59 -15t105 -61q68 -43 82 -43q17 0 22.5 24.5t3.5 89.5h97q2 -131 -17 -178t-74 -47q-26 0 -59 15t-105 61q-68 43 -82 43
q-17 0 -22.5 -24.5t-3.5 -89.5h-97z" />
    <glyph glyph-name="Ograve" unicode="&#xd2;" horiz-adv-x="986" 
d="M491 -21q-170 0 -262 102t-92 291v682q0 181 92 279t262 98t262.5 -98t92.5 -279v-682q0 -189 -92.5 -291t-262.5 -102v0zM491 79q122 0 180.5 71.5t58.5 220.5v682q0 142 -58.5 210t-180.5 68q-121 0 -179.5 -68t-58.5 -210v-682q0 -149 58.5 -220.5t179.5 -71.5v0z
M494 1531l-155 300h130l123 -300h-98z" />
    <glyph glyph-name="Oacute" unicode="&#xd3;" horiz-adv-x="986" 
d="M491 -21q-170 0 -262 102t-92 291v682q0 181 92 279t262 98t262.5 -98t92.5 -279v-682q0 -189 -92.5 -291t-262.5 -102v0zM491 79q122 0 180.5 71.5t58.5 220.5v682q0 142 -58.5 210t-180.5 68q-121 0 -179.5 -68t-58.5 -210v-682q0 -149 58.5 -220.5t179.5 -71.5v0z
M390 1531l123 300h130l-155 -300h-98z" />
    <glyph glyph-name="Ocircumflex" unicode="&#xd4;" horiz-adv-x="986" 
d="M491 -21q-170 0 -262 102t-92 291v682q0 181 92 279t262 98t262.5 -98t92.5 -279v-682q0 -189 -92.5 -291t-262.5 -102v0zM491 79q122 0 180.5 71.5t58.5 220.5v682q0 142 -58.5 210t-180.5 68q-121 0 -179.5 -68t-58.5 -210v-682q0 -149 58.5 -220.5t179.5 -71.5v0z
M551 1815l123 -284h-91l-92 195v0l-92 -195h-91l123 284h60h60z" />
    <glyph glyph-name="Otilde" unicode="&#xd5;" horiz-adv-x="986" 
d="M491 -21q-170 0 -262 102t-92 291v682q0 181 92 279t262 98t262.5 -98t92.5 -279v-682q0 -189 -92.5 -291t-262.5 -102v0zM491 79q122 0 180.5 71.5t58.5 220.5v682q0 142 -58.5 210t-180.5 68q-121 0 -179.5 -68t-58.5 -210v-682q0 -149 58.5 -220.5t179.5 -71.5v0z
M261 1537q-2 131 17 178t74 47q26 0 59 -15t105 -61q68 -43 82 -43q17 0 22.5 24.5t3.5 89.5h97q2 -131 -17 -178t-74 -47q-26 0 -59 15t-105 61q-68 43 -82 43q-17 0 -22.5 -24.5t-3.5 -89.5h-97z" />
    <glyph glyph-name="Odieresis" unicode="&#xd6;" horiz-adv-x="986" 
d="M491 -21q-170 0 -262 102t-92 291v682q0 181 92 279t262 98t262.5 -98t92.5 -279v-682q0 -189 -92.5 -291t-262.5 -102v0zM491 79q122 0 180.5 71.5t58.5 220.5v682q0 142 -58.5 210t-180.5 68q-121 0 -179.5 -68t-58.5 -210v-682q0 -149 58.5 -220.5t179.5 -71.5v0z
M319 1673h130v-142h-130v142zM533 1673h130v-142h-130v142z" />
    <glyph glyph-name="multiply" unicode="&#xd7;" horiz-adv-x="1365" 
d="M680 509l-278 -278l-62 62l278 278l-278 278l62 62l278 -278l278 278l62 -62l-278 -278l278 -278l-62 -62z" />
    <glyph glyph-name="Oslash" unicode="&#xd8;" horiz-adv-x="986" 
d="M487 562l-146 -444q57 -39 146 -39v0q122 0 180.5 71.5t58.5 220.5v682q0 95 -26 156zM487 -21q-104 0 -179 38l-47 -144l-82 39l53 161l-7 8q-92 102 -92 291v682q0 181 92 279t262 98q105 0 179 -37l47 143l82 -39l-52 -159l7 -6q92 -98 92 -279v-682
q0 -189 -92.5 -291t-262.5 -102v0zM487 1331q-121 0 -179.5 -68t-58.5 -210v-682q0 -99 26 -167l212 644l146 445q-55 38 -146 38z" />
    <glyph glyph-name="Ugrave" unicode="&#xd9;" horiz-adv-x="986" 
d="M846 295q0 -152 -91 -234t-260 -82t-260 82t-91 234v1115v0h58h58v0v-1095q0 -120 58 -178t178 -58t177.5 58t57.5 178v1095v0h57h58v0v-1115zM498 1531l-155 300h130l123 -300h-98z" />
    <glyph glyph-name="Uacute" unicode="&#xda;" horiz-adv-x="986" 
d="M846 295q0 -152 -91 -234t-260 -82t-260 82t-91 234v1115v0h58h58v0v-1095q0 -120 58 -178t178 -58t177.5 58t57.5 178v1095v0h57h58v0v-1115zM394 1531l123 300h130l-155 -300h-98z" />
    <glyph glyph-name="Ucircumflex" unicode="&#xdb;" horiz-adv-x="986" 
d="M846 295q0 -152 -91 -234t-260 -82t-260 82t-91 234v1115v0h58h58v0v-1095q0 -120 58 -178t178 -58t177.5 58t57.5 178v1095v0h57h58v0v-1115zM555 1815l123 -284h-91l-92 195v0l-92 -195h-91l123 284h60h60z" />
    <glyph glyph-name="Udieresis" unicode="&#xdc;" horiz-adv-x="986" 
d="M846 295q0 -152 -91 -234t-260 -82t-260 82t-91 234v1115v0h58h58v0v-1095q0 -120 58 -178t178 -58t177.5 58t57.5 178v1095v0h57h58v0v-1115zM323 1673h130v-142h-130v142zM537 1673h130v-142h-130v142z" />
    <glyph glyph-name="Yacute" unicode="&#xdd;" horiz-adv-x="910" 
d="M406 625v0l-351 785v0h64h64v0l281 -678v0l291 678v0h58h59v0l-350 -788v0v-622h-58h-58v625zM362 1531l123 300h130l-155 -300h-98z" />
    <glyph glyph-name="Thorn" unicode="&#xde;" horiz-adv-x="872" 
d="M155 0v1410v0h58h58v0v-303v0h215q193 0 262.5 -80.5t69.5 -302.5q0 -227 -69.5 -309.5t-262.5 -82.5h-215v0v-332v0h-58h-58v0zM702 722q0 174 -50.5 229.5t-208.5 55.5h-172v0v-575v0h172q158 0 209 57q50 56 50 233z" />
    <glyph glyph-name="germandbls" unicode="&#xdf;" horiz-adv-x="872" 
d="M230 1071v-1071v0h-58h-58v0v1071v0q0 173 75.5 263t221.5 90q138 0 213 -64t75 -183q0 -64 -22 -110.5t-84 -115.5q-53 -58 -71.5 -91t-18.5 -69q0 -35 31 -75.5t115 -114.5q107 -94 147 -168.5t40 -178.5q0 -132 -74.5 -203.5t-211.5 -71.5q-119 0 -179.5 70.5
t-54.5 200.5v0h111v0q-4 -87 32.5 -134t108.5 -47q73 0 113 45t40 128q0 84 -31 142.5t-115 132.5q-107 94 -147 151t-40 115q0 50 18 87.5t68 92.5q64 71 87 116.5t23 102.5q0 73 -44 112.5t-125 39.5q-92 0 -138.5 -57t-46.5 -171v-35z" />
    <glyph glyph-name="glyph174" horiz-adv-x="0" 
d="M3 0l-155 300h130l123 -300h-98z" />
    <glyph glyph-name="agrave" unicode="&#xe0;" horiz-adv-x="759" 
d="M312 -21q-125 0 -185.5 72t-60.5 222v17q0 163 94.5 230t326.5 67h37v0v143q0 84 -44 133.5t-118 49.5q-90 0 -126.5 -48t-36.5 -166v0h-116v0q0 164 64 234t214 70q137 0 208 -65.5t71 -191.5v-746v0v0h-116v0v75v0q-73 -96 -212 -96zM524 344v153v0h-62
q-154 0 -217 -46.5t-63 -160.5v-17q0 -104 39 -154t121 -50q96 0 138.5 66t43.5 209v0zM373 1103l-155 300h130l123 -300h-98z" />
    <glyph glyph-name="glyph176" horiz-adv-x="0" 
d="M-101 0l123 300h130l-155 -300h-98z" />
    <glyph glyph-name="aacute" unicode="&#xe1;" horiz-adv-x="759" 
d="M312 -21q-125 0 -185.5 72t-60.5 222v17q0 163 94.5 230t326.5 67h37v0v143q0 84 -44 133.5t-118 49.5q-90 0 -126.5 -48t-36.5 -166v0h-116v0q0 164 64 234t214 70q137 0 208 -65.5t71 -191.5v-746v0v0h-116v0v75v0q-73 -96 -212 -96zM524 344v153v0h-62
q-154 0 -217 -46.5t-63 -160.5v-17q0 -104 39 -154t121 -50q96 0 138.5 66t43.5 209v0zM269 1103l123 300h130l-155 -300h-98z" />
    <glyph glyph-name="glyph178" horiz-adv-x="0" 
d="M60 284l123 -284h-91l-92 195v0l-92 -195h-91l123 284h60h60z" />
    <glyph glyph-name="acircumflex" unicode="&#xe2;" horiz-adv-x="759" 
d="M312 -21q-125 0 -185.5 72t-60.5 222v17q0 163 94.5 230t326.5 67h37v0v143q0 84 -44 133.5t-118 49.5q-90 0 -126.5 -48t-36.5 -166v0h-116v0q0 164 64 234t214 70q137 0 208 -65.5t71 -191.5v-746v0v0h-116v0v75v0q-73 -96 -212 -96zM524 344v153v0h-62
q-154 0 -217 -46.5t-63 -160.5v-17q0 -104 39 -154t121 -50q96 0 138.5 66t43.5 209v0zM430 1387l123 -284h-91l-92 195v0l-92 -195h-91l123 284h60h60z" />
    <glyph glyph-name="glyph180" horiz-adv-x="0" 
d="M-230 6q-2 131 17 178t74 47q26 0 59 -15t105 -61q68 -43 82 -43q17 0 22.5 24.5t3.5 89.5h97q2 -131 -17 -178t-74 -47q-26 0 -59 15t-105 61q-68 43 -82 43q-17 0 -22.5 -24.5t-3.5 -89.5h-97z" />
    <glyph glyph-name="atilde" unicode="&#xe3;" horiz-adv-x="759" 
d="M312 -21q-125 0 -185.5 72t-60.5 222v17q0 163 94.5 230t326.5 67h37v0v143q0 84 -44 133.5t-118 49.5q-90 0 -126.5 -48t-36.5 -166v0h-116v0q0 164 64 234t214 70q137 0 208 -65.5t71 -191.5v-746v0v0h-116v0v75v0q-73 -96 -212 -96zM524 344v153v0h-62
q-154 0 -217 -46.5t-63 -160.5v-17q0 -104 39 -154t121 -50q96 0 138.5 66t43.5 209v0zM140 1109q-2 131 17 178t74 47q26 0 59 -15t105 -61q68 -43 82 -43q17 0 22.5 24.5t3.5 89.5h97q2 -131 -17 -178t-74 -47q-26 0 -59 15t-105 61q-68 43 -82 43q-17 0 -22.5 -24.5
t-3.5 -89.5h-97z" />
    <glyph glyph-name="glyph182" horiz-adv-x="0" 
d="M-172 142h130v-142h-130v142zM42 142h130v-142h-130v142z" />
    <glyph glyph-name="adieresis" unicode="&#xe4;" horiz-adv-x="759" 
d="M312 -21q-125 0 -185.5 72t-60.5 222v17q0 163 94.5 230t326.5 67h37v0v143q0 84 -44 133.5t-118 49.5q-90 0 -126.5 -48t-36.5 -166v0h-116v0q0 164 64 234t214 70q137 0 208 -65.5t71 -191.5v-746v0v0h-116v0v75v0q-73 -96 -212 -96zM524 344v153v0h-62
q-154 0 -217 -46.5t-63 -160.5v-17q0 -104 39 -154t121 -50q96 0 138.5 66t43.5 209v0zM198 1245h130v-142h-130v142zM412 1245h130v-142h-130v142z" />
    <glyph glyph-name="glyph184" horiz-adv-x="0" 
d="M0 3q-79 0 -133.5 50t-54.5 123t54.5 123.5t133.5 50.5t133.5 -50.5t54.5 -123.5t-54.5 -123t-133.5 -50v0zM0 78q38 0 64 28.5t26 69.5q0 42 -26 70.5t-64 28.5t-64 -28.5t-26 -70.5q0 -41 26 -69.5t64 -28.5v0z" />
    <glyph glyph-name="aring" unicode="&#xe5;" horiz-adv-x="759" 
d="M312 -21q-125 0 -185.5 72t-60.5 222v17q0 163 94.5 230t326.5 67h37v0v143q0 84 -44 133.5t-118 49.5q-90 0 -126.5 -48t-36.5 -166v0h-116v0q0 164 64 234t214 70q137 0 208 -65.5t71 -191.5v-746v0v0h-116v0v75v0q-73 -96 -212 -96zM524 344v153v0h-62
q-154 0 -217 -46.5t-63 -160.5v-17q0 -104 39 -154t121 -50q96 0 138.5 66t43.5 209v0zM370 1106q-79 0 -133.5 50t-54.5 123t54.5 123.5t133.5 50.5t133.5 -50.5t54.5 -123.5t-54.5 -123t-133.5 -50v0zM370 1181q38 0 64 28.5t26 69.5q0 42 -26 70.5t-64 28.5t-64 -28.5
t-26 -70.5q0 -41 26 -69.5t64 -28.5v0z" />
    <glyph glyph-name="ae" unicode="&#xe6;" horiz-adv-x="1176" 
d="M369 1003q137 0 208 -66l21 -22v0l8 10q74 78 212 78t212.5 -78.5t74.5 -223.5v-246v0h-459v0v-163q0 -114 42 -168.5t129 -54.5q93 0 133 52t40 174v0h115v0q0 -167 -67.5 -241.5t-219.5 -74.5q-138 0 -213 82q-25 28 -41 62v0q-12 -24 -29 -46q-76 -98 -215 -98
q-125 0 -185.5 72t-60.5 222v17q0 163 94.5 230t326.5 67h37v0v143q0 84 -44 133.5t-118 49.5q-90 0 -126.5 -48t-36.5 -166v0h-116v0q0 164 64 234t214 70zM532 344v153v0h-62q-154 0 -217 -46.5t-63 -160.5v-17q0 -104 39 -154t121 -50q96 0 138 66t44 209v0zM990 545v0
v156q0 108 -42 160t-130 52t-130 -52t-42 -160v-156v0h344z" />
    <glyph glyph-name="glyph187" horiz-adv-x="0" 
d="M-168 -370l121 259h95l-93 -259h-123z" />
    <glyph glyph-name="ccedilla" unicode="&#xe7;" horiz-adv-x="683" 
d="M606 304v0q0 -172 -62 -248.5t-202 -76.5q-132 0 -197.5 78t-65.5 235v409q0 145 68.5 223.5t194.5 78.5q137 0 200.5 -73.5t63.5 -232.5v0h-115v0q0 114 -35 165t-114 51q-75 0 -111.5 -52t-36.5 -160v-409q0 -109 38 -166t110 -57q82 0 115.5 53t33.5 182v0h115z
M174 -370l121 259h95l-93 -259h-123z" />
    <glyph glyph-name="egrave" unicode="&#xe8;" horiz-adv-x="759" 
d="M382 -21q-138 0 -212.5 81.5t-74.5 231.5v409q0 145 74.5 223.5t212.5 78.5t212.5 -78.5t74.5 -223.5v-246v0h-459v0v-163q0 -114 42 -168.5t129 -54.5q93 0 133 52t40 174v0h115v0q0 -167 -67.5 -241.5t-219.5 -74.5zM554 545v0v156q0 108 -42 160t-130 52t-130 -52
t-42 -160v-156v0h344zM396 1103l-155 300h130l123 -300h-98z" />
    <glyph glyph-name="eacute" unicode="&#xe9;" horiz-adv-x="759" 
d="M382 -21q-138 0 -212.5 81.5t-74.5 231.5v409q0 145 74.5 223.5t212.5 78.5t212.5 -78.5t74.5 -223.5v-246v0h-459v0v-163q0 -114 42 -168.5t129 -54.5q93 0 133 52t40 174v0h115v0q0 -167 -67.5 -241.5t-219.5 -74.5zM554 545v0v156q0 108 -42 160t-130 52t-130 -52
t-42 -160v-156v0h344zM292 1103l123 300h130l-155 -300h-98z" />
    <glyph glyph-name="ecircumflex" unicode="&#xea;" horiz-adv-x="759" 
d="M382 -21q-138 0 -212.5 81.5t-74.5 231.5v409q0 145 74.5 223.5t212.5 78.5t212.5 -78.5t74.5 -223.5v-246v0h-459v0v-163q0 -114 42 -168.5t129 -54.5q93 0 133 52t40 174v0h115v0q0 -167 -67.5 -241.5t-219.5 -74.5zM554 545v0v156q0 108 -42 160t-130 52t-130 -52
t-42 -160v-156v0h344zM453 1387l123 -284h-91l-92 195v0l-92 -195h-91l123 284h60h60z" />
    <glyph glyph-name="edieresis" unicode="&#xeb;" horiz-adv-x="759" 
d="M382 -21q-138 0 -212.5 81.5t-74.5 231.5v409q0 145 74.5 223.5t212.5 78.5t212.5 -78.5t74.5 -223.5v-246v0h-459v0v-163q0 -114 42 -168.5t129 -54.5q93 0 133 52t40 174v0h115v0q0 -167 -67.5 -241.5t-219.5 -74.5zM554 545v0v156q0 108 -42 160t-130 52t-130 -52
t-42 -160v-156v0h344zM221 1245h130v-142h-130v142zM435 1245h130v-142h-130v142z" />
    <glyph glyph-name="dotlessi" unicode="&#x131;" horiz-adv-x="341" 
d="M116 0v982v0h58h58v0v-982v0h-58h-58v0z" />
    <glyph glyph-name="igrave" unicode="&#xec;" horiz-adv-x="341" 
d="M114 0v982v0h58h58v0v-982v0h-58h-58v0zM175 1103l-155 300h130l123 -300h-98z" />
    <glyph glyph-name="iacute" unicode="&#xed;" horiz-adv-x="341" 
d="M113 0v982v0h58h58v0v-982v0h-58h-58v0zM70 1103l123 300h130l-155 -300h-98z" />
    <glyph glyph-name="icircumflex" unicode="&#xee;" horiz-adv-x="341" 
d="M118 0v982v0h58h58v0v-982v0h-58h-58v0zM236 1387l123 -284h-91l-92 195v0l-92 -195h-91l123 284h60h60z" />
    <glyph glyph-name="idieresis" unicode="&#xef;" horiz-adv-x="341" 
d="M126 0v982v0h58h58v0v-982v0h-58h-58v0zM12 1245h130v-142h-130v142zM226 1245h130v-142h-130v142z" />
    <glyph glyph-name="eth" unicode="&#xf0;" horiz-adv-x="796" 
d="M396 -21q-138 0 -212.5 81.5t-74.5 231.5v408q0 145 74.5 223t212.5 78q84 0 156 -55v0q-23 70 -52 134q-42 92 -97 160l-186 -91l-32 71l165 81q-70 68 -154 109h171q39 -31 73 -65l160 79l32 -71l-138 -68q71 -88 114 -193q75 -183 75 -450v-7v-282
q0 -187 -71.5 -280.5t-215.5 -93.5zM224 291q0 -113 42 -167.5t130 -54.5t130 54.5t42 167.5v408q0 108 -42 160t-130 52t-130 -52t-42 -160v-408z" />
    <glyph glyph-name="ntilde" unicode="&#xf1;" horiz-adv-x="796" 
d="M112 0v982v0h55h55v0v-80v0v0l7 9q73 92 213 92q119 0 181 -73t62 -214v-716v0h-58h-58v0v713q0 94 -40.5 146.5t-112.5 52.5q-98 0 -143 -65t-45 -206v0v-641v0h-58h-58v0zM168 1109q-2 131 17 178t74 47q26 0 59 -15t105 -61q68 -43 82 -43q17 0 22.5 24.5t3.5 89.5h97
q2 -131 -17 -178t-74 -47q-26 0 -59 15t-105 61q-68 43 -82 43q-17 0 -22.5 -24.5t-3.5 -89.5h-97z" />
    <glyph glyph-name="ograve" unicode="&#xf2;" horiz-adv-x="796" 
d="M399 -21q-137 0 -211.5 81.5t-74.5 231.5v409q0 145 74.5 223.5t211.5 78.5q138 0 212.5 -78.5t74.5 -223.5v-409q0 -150 -74.5 -231.5t-212.5 -81.5v0zM399 69q88 0 130 54.5t42 168.5v409q0 108 -42 160t-130 52q-87 0 -129 -52t-42 -160v-409q0 -114 42 -168.5
t129 -54.5v0zM402 1103l-155 300h130l123 -300h-98z" />
    <glyph glyph-name="oacute" unicode="&#xf3;" horiz-adv-x="796" 
d="M399 -21q-137 0 -211.5 81.5t-74.5 231.5v409q0 145 74.5 223.5t211.5 78.5q138 0 212.5 -78.5t74.5 -223.5v-409q0 -150 -74.5 -231.5t-212.5 -81.5v0zM399 69q88 0 130 54.5t42 168.5v409q0 108 -42 160t-130 52q-87 0 -129 -52t-42 -160v-409q0 -114 42 -168.5
t129 -54.5v0zM298 1103l123 300h130l-155 -300h-98z" />
    <glyph glyph-name="ocircumflex" unicode="&#xf4;" horiz-adv-x="796" 
d="M399 -21q-137 0 -211.5 81.5t-74.5 231.5v409q0 145 74.5 223.5t211.5 78.5q138 0 212.5 -78.5t74.5 -223.5v-409q0 -150 -74.5 -231.5t-212.5 -81.5v0zM399 69q88 0 130 54.5t42 168.5v409q0 108 -42 160t-130 52q-87 0 -129 -52t-42 -160v-409q0 -114 42 -168.5
t129 -54.5v0zM459 1387l123 -284h-91l-92 195v0l-92 -195h-91l123 284h60h60z" />
    <glyph glyph-name="otilde" unicode="&#xf5;" horiz-adv-x="796" 
d="M399 -21q-137 0 -211.5 81.5t-74.5 231.5v409q0 145 74.5 223.5t211.5 78.5q138 0 212.5 -78.5t74.5 -223.5v-409q0 -150 -74.5 -231.5t-212.5 -81.5v0zM399 69q88 0 130 54.5t42 168.5v409q0 108 -42 160t-130 52q-87 0 -129 -52t-42 -160v-409q0 -114 42 -168.5
t129 -54.5v0zM169 1109q-2 131 17 178t74 47q26 0 59 -15t105 -61q68 -43 82 -43q17 0 22.5 24.5t3.5 89.5h97q2 -131 -17 -178t-74 -47q-26 0 -59 15t-105 61q-68 43 -82 43q-17 0 -22.5 -24.5t-3.5 -89.5h-97z" />
    <glyph glyph-name="odieresis" unicode="&#xf6;" horiz-adv-x="796" 
d="M399 -21q-137 0 -211.5 81.5t-74.5 231.5v409q0 145 74.5 223.5t211.5 78.5q138 0 212.5 -78.5t74.5 -223.5v-409q0 -150 -74.5 -231.5t-212.5 -81.5v0zM399 69q88 0 130 54.5t42 168.5v409q0 108 -42 160t-130 52q-87 0 -129 -52t-42 -160v-409q0 -114 42 -168.5
t129 -54.5v0zM227 1245h130v-142h-130v142zM441 1245h130v-142h-130v142z" />
    <glyph glyph-name="divide" unicode="&#xf7;" horiz-adv-x="1365" 
d="M682 441q34 0 57 -23t23 -57t-23 -57t-57 -23t-57 23t-23 57t23 57t57 23zM306 616h752v-89h-752v89zM682 862q34 0 57 -23t23 -57t-23 -57t-57 -23t-57 23t-23 57t23 57t57 23z" />
    <glyph glyph-name="oslash" unicode="&#xf8;" horiz-adv-x="796" 
d="M393 365l-83 -280q34 -15 83 -16v0q88 0 130 54.5t42 168.5v409q0 91 -30 143zM393 -21q-60 1 -110 15l-42 -141l-66 29l43 146q-20 14 -37 33q-74 81 -74 231v409q0 145 74.5 223.5t211.5 78.5q61 0 110 -16l42 142l66 -29l-43 -143l38 -33q74 -78 74 -223v-409
q0 -150 -74.5 -231.5t-212.5 -81.5v0zM393 913q-87 0 -129 -52t-42 -160v-409q1 -96 29 -152l142 477l83 280q-34 16 -83 16z" />
    <glyph glyph-name="ugrave" unicode="&#xf9;" horiz-adv-x="796" 
d="M228 982v-733q0 -89 38.5 -134t114.5 -45q98 0 143 65t45 206v0v641v0h58h58v0v-982v0h-55h-55v0v83v0v0l-10 -12q-75 -92 -221 -92q-114 0 -173 70t-59 204v729v0h58h58v0zM401 1103l-155 300h130l123 -300h-98z" />
    <glyph glyph-name="uacute" unicode="&#xfa;" horiz-adv-x="796" 
d="M228 982v-733q0 -89 38.5 -134t114.5 -45q98 0 143 65t45 206v0v641v0h58h58v0v-982v0h-55h-55v0v83v0v0l-10 -12q-75 -92 -221 -92q-114 0 -173 70t-59 204v729v0h58h58v0zM297 1103l123 300h130l-155 -300h-98z" />
    <glyph glyph-name="ucircumflex" unicode="&#xfb;" horiz-adv-x="796" 
d="M228 982v-733q0 -89 38.5 -134t114.5 -45q98 0 143 65t45 206v0v641v0h58h58v0v-982v0h-55h-55v0v83v0v0l-10 -12q-75 -92 -221 -92q-114 0 -173 70t-59 204v729v0h58h58v0zM458 1387l123 -284h-91l-92 195v0l-92 -195h-91l123 284h60h60z" />
    <glyph glyph-name="udieresis" unicode="&#xfc;" horiz-adv-x="796" 
d="M228 982v-733q0 -89 38.5 -134t114.5 -45q98 0 143 65t45 206v0v641v0h58h58v0v-982v0h-55h-55v0v83v0v0l-10 -12q-75 -92 -221 -92q-114 0 -173 70t-59 204v729v0h58h58v0zM226 1245h130v-142h-130v142zM440 1245h130v-142h-130v142z" />
    <glyph glyph-name="yacute" unicode="&#xfd;" horiz-adv-x="759" 
d="M703 982l-356 -1341v0h-55h-56v0l92 352v0l-274 989v0h60h61v0l208 -840v0v0l216 840v0h52h52v0zM277 1103l123 300h130l-155 -300h-98z" />
    <glyph glyph-name="thorn" unicode="&#xfe;" horiz-adv-x="796" 
d="M120 1410v0h58h58v0v-503v0q75 96 206 96q121 0 186.5 -78.5t65.5 -223.5v-409q0 -150 -65.5 -231.5t-186.5 -81.5q-131 0 -206 95v0v-441v0h-58h-58v0v1777zM407 69q87 0 129 54.5t42 168.5v409q0 108 -42 160t-129 52t-129 -74.5t-42 -229.5v0v-236v0q0 -155 42 -229.5
t129 -74.5z" />
    <glyph glyph-name="ydieresis" unicode="&#xff;" horiz-adv-x="759" 
d="M703 982l-356 -1341v0h-55h-56v0l92 352v0l-274 989v0h60h61v0l208 -840v0v0l216 840v0h52h52v0zM206 1245h130v-142h-130v142zM420 1245h130v-142h-130v142z" />
    <glyph glyph-name="glyph214" horiz-adv-x="0" 
d="M-192 81h384v-81h-384v81z" />
    <glyph glyph-name="Amacron" unicode="&#x100;" horiz-adv-x="948" 
d="M44 0l366 1410h64h64l366 -1410v0h-60h-60v0l-97 394v0h-428v0l-95 -394v0h-60h-60v0zM473 1264l-188 -770v0h378v0l-190 770v0v0zM282 1612h384v-81h-384v81z" />
    <glyph glyph-name="glyph216" horiz-adv-x="0" 
d="M-192 81h384v-81h-384v81z" />
    <glyph glyph-name="amacron" unicode="&#x101;" horiz-adv-x="759" 
d="M312 -21q-125 0 -185.5 72t-60.5 222v17q0 163 94.5 230t326.5 67h37v0v143q0 84 -44 133.5t-118 49.5q-90 0 -126.5 -48t-36.5 -166v0h-116v0q0 164 64 234t214 70q137 0 208 -65.5t71 -191.5v-746v0v0h-116v0v75v0q-73 -96 -212 -96zM524 344v153v0h-62
q-154 0 -217 -46.5t-63 -160.5v-17q0 -104 39 -154t121 -50q96 0 138.5 66t43.5 209v0zM178 1184h384v-81h-384v81z" />
    <glyph glyph-name="glyph218" horiz-adv-x="0" 
d="M0 41q-116 0 -173.5 63.5t-57.5 191.5h109q0 -86 28.5 -124t93.5 -38t93.5 38t28.5 124h109q0 -128 -57.5 -191.5t-173.5 -63.5z" />
    <glyph glyph-name="Abreve" unicode="&#x102;" horiz-adv-x="948" 
d="M44 0l366 1410h64h64l366 -1410v0h-60h-60v0l-97 394v0h-428v0l-95 -394v0h-60h-60v0zM473 1264l-188 -770v0h378v0l-190 770v0v0zM474 1572q-116 0 -173.5 63.5t-57.5 191.5h109q0 -86 28.5 -124t93.5 -38t93.5 38t28.5 124h109q0 -128 -57.5 -191.5t-173.5 -63.5z" />
    <glyph glyph-name="glyph220" horiz-adv-x="0" 
d="M0 41q-116 0 -173.5 63.5t-57.5 191.5h109q0 -86 28.5 -124t93.5 -38t93.5 38t28.5 124h109q0 -128 -57.5 -191.5t-173.5 -63.5z" />
    <glyph glyph-name="abreve" unicode="&#x103;" horiz-adv-x="759" 
d="M312 -21q-125 0 -185.5 72t-60.5 222v17q0 163 94.5 230t326.5 67h37v0v143q0 84 -44 133.5t-118 49.5q-90 0 -126.5 -48t-36.5 -166v0h-116v0q0 164 64 234t214 70q137 0 208 -65.5t71 -191.5v-746v0v0h-116v0v75v0q-73 -96 -212 -96zM524 344v153v0h-62
q-154 0 -217 -46.5t-63 -160.5v-17q0 -104 39 -154t121 -50q96 0 138.5 66t43.5 209v0zM370 1144q-116 0 -173.5 63.5t-57.5 191.5h109q0 -86 28.5 -124t93.5 -38t93.5 38t28.5 124h109q0 -128 -57.5 -191.5t-173.5 -63.5z" />
    <glyph glyph-name="glyph222" horiz-adv-x="0" 
d="M-217 -186q0 71 59.5 132.5t157.5 91.5l29 -40q-66 -32 -99 -69t-33 -80q0 -38 25 -61.5t66 -23.5q31 0 65.5 12t67.5 35v0l51 -81v0q-51 -35 -104.5 -53.5t-101.5 -18.5q-77 0 -130 45t-53 111z" />
    <glyph glyph-name="Aogonek" unicode="&#x104;" horiz-adv-x="948" 
d="M44 0l366 1410h64h64l366 -1410v0h-60h-60v0l-97 394v0h-428v0l-95 -394v0h-60h-60v0zM473 1264l-188 -770v0h378v0l-190 770v0v0zM567 -186q0 71 59.5 132.5t157.5 91.5l29 -40q-66 -32 -99 -69t-33 -80q0 -38 25 -61.5t66 -23.5q31 0 65.5 12t67.5 35v0l51 -81v0
q-51 -35 -104.5 -53.5t-101.5 -18.5q-77 0 -130 45t-53 111z" />
    <glyph glyph-name="glyph224" horiz-adv-x="0" 
d="M-217 -186q0 71 59.5 132.5t157.5 91.5l29 -40q-66 -32 -99 -69t-33 -80q0 -38 25 -61.5t66 -23.5q31 0 65.5 12t67.5 35v0l51 -81v0q-51 -35 -104.5 -53.5t-101.5 -18.5q-77 0 -130 45t-53 111z" />
    <glyph glyph-name="aogonek" unicode="&#x105;" horiz-adv-x="759" 
d="M312 -21q-125 0 -185.5 72t-60.5 222v17q0 163 94.5 230t326.5 67h37v0v143q0 84 -44 133.5t-118 49.5q-90 0 -126.5 -48t-36.5 -166v0h-116v0q0 164 64 234t214 70q137 0 208 -65.5t71 -191.5v-746v0v0h-116v0v75v0q-73 -96 -212 -96zM524 344v153v0h-62
q-154 0 -217 -46.5t-63 -160.5v-17q0 -104 39 -154t121 -50q96 0 138.5 66t43.5 209v0zM330 -186q0 71 59.5 132.5t157.5 91.5l29 -40q-66 -32 -99 -69t-33 -80q0 -38 25 -61.5t66 -23.5q31 0 65.5 12t67.5 35v0l51 -81v0q-51 -35 -104.5 -53.5t-101.5 -18.5q-77 0 -130 45
t-53 111z" />
    <glyph glyph-name="Cacute" unicode="&#x106;" horiz-adv-x="872" 
d="M778 381v0q0 -213 -71.5 -307.5t-233.5 -94.5q-168 0 -252 98t-84 295v682q0 181 87.5 279t248.5 98q159 0 232 -89.5t73 -283.5v0h-116v0q0 145 -44.5 209t-144.5 64q-121 0 -170.5 -62.5t-49.5 -215.5v-682q0 -155 51.5 -223.5t168.5 -68.5q104 0 146.5 68t42.5 234v0
h116zM372 1531l123 300h130l-155 -300h-98z" />
    <glyph glyph-name="cacute" unicode="&#x107;" horiz-adv-x="683" 
d="M606 304v0q0 -172 -62 -248.5t-202 -76.5q-132 0 -197.5 78t-65.5 235v409q0 145 68.5 223.5t194.5 78.5q137 0 200.5 -73.5t63.5 -232.5v0h-115v0q0 114 -35 165t-114 51q-75 0 -111.5 -52t-36.5 -160v-409q0 -109 38 -166t110 -57q82 0 115.5 53t33.5 182v0h115z
M241 1103l123 300h130l-155 -300h-98z" />
    <glyph glyph-name="glyph228" horiz-adv-x="0" 
d="M-60 0l-123 284h91l92 -195v0l92 195h91l-123 -284h-60h-60z" />
    <glyph glyph-name="Ccaron" unicode="&#x10c;" horiz-adv-x="872" 
d="M778 381v0q0 -213 -71.5 -307.5t-233.5 -94.5q-168 0 -252 98t-84 295v682q0 181 87.5 279t248.5 98q159 0 232 -89.5t73 -283.5v0h-116v0q0 145 -44.5 209t-144.5 64q-121 0 -170.5 -62.5t-49.5 -215.5v-682q0 -155 51.5 -223.5t168.5 -68.5q104 0 146.5 68t42.5 234v0
h116zM413 1531l-123 284h91l92 -195v0l92 195h91l-123 -284h-60h-60z" />
    <glyph glyph-name="glyph230" horiz-adv-x="0" 
d="M-60 0l-123 284h91l92 -195v0l92 195h91l-123 -284h-60h-60z" />
    <glyph glyph-name="ccaron" unicode="&#x10d;" horiz-adv-x="683" 
d="M606 304v0q0 -172 -62 -248.5t-202 -76.5q-132 0 -197.5 78t-65.5 235v409q0 145 68.5 223.5t194.5 78.5q137 0 200.5 -73.5t63.5 -232.5v0h-115v0q0 114 -35 165t-114 51q-75 0 -111.5 -52t-36.5 -160v-409q0 -109 38 -166t110 -57q82 0 115.5 53t33.5 182v0h115z
M282 1103l-123 284h91l92 -195v0l92 195h91l-123 -284h-60h-60z" />
    <glyph glyph-name="Dcaron" unicode="&#x10e;" horiz-adv-x="986" 
d="M148 0v1410v0h58v0h224q239 0 333 -83.5t94 -296.5v-634q0 -222 -94 -309t-333 -87h-224v0h-58v0zM264 100v0h166q177 0 244 63.5t67 231.5v634q0 160 -67 220.5t-244 60.5h-166v0v-1210zM372 1531l-123 284h91l92 -195v0l92 195h91l-123 -284h-60h-60z" />
    <glyph glyph-name="glyph233" horiz-adv-x="0" 
d="M-201 -21q-123 0 -190 81.5t-67 231.5v409q0 145 67 223.5t190 78.5q129 0 201 -95v0v502v0h58h58v0v-1410v0h-58h-58v0v74v0q-72 -95 -201 -95zM-171 913q-87 0 -129 -52t-42 -160v-409q0 -114 42 -168.5t129 -54.5t129 74.5t42 229.5v236q0 155 -42 229.5t-129 74.5z
" />
    <glyph glyph-name="glyph234" horiz-adv-x="0" 
d="M0 0l70 228h103l-101 -228h-72z" />
    <glyph glyph-name="dcaron" unicode="&#x10f;" horiz-adv-x="820" 
d="M363 -21q-123 0 -190 81.5t-67 231.5v409q0 145 67 223.5t190 78.5q129 0 201 -95v0v502v0h58h58v0v-1410v0h-58h-58v0v74v0q-72 -95 -201 -95zM393 913q-87 0 -129 -52t-42 -160v-409q0 -114 42 -168.5t129 -54.5t129 74.5t42 229.5v236q0 155 -42 229.5t-129 74.5z
M801 1182l70 228h103l-101 -228h-72z" />
    <glyph glyph-name="Dcroat" unicode="&#x110;" horiz-adv-x="986" 
d="M119 0v0v655v0h-90v100h90v0v655v0h58v0h235q249 0 347 -83.5t98 -296.5v-634q0 -222 -98 -309t-347 -87h-235v0h-58zM235 1310v0v-555v0h228v-100h-228v0v-555v0h177q187 0 258 63.5t71 231.5v634q0 160 -71 220.5t-258 60.5h-177z" />
    <glyph glyph-name="dcroat" unicode="&#x111;" horiz-adv-x="796" 
d="M364 -21q-123 0 -190 81.5t-67 231.5v409q0 145 67 223.5t190 78.5q129 0 201 -95v0v213h-194v90h194v199v0h58h58v0v-199h91v-90h-91v-1121v0h-58h-58v0v74v0q-72 -95 -201 -95zM394 913q-87 0 -129 -52t-42 -160v-409q0 -114 42 -168.5t129 -54.5t129 74.5t42 229.5
v236q0 155 -42 229.5t-129 74.5z" />
    <glyph glyph-name="Emacron" unicode="&#x112;" horiz-adv-x="796" 
d="M153 0v0v1410v0h563v0v-50v-50v0h-447v0v-536v0h424v-50v-50v0h-424v0v-574v0h459v0v-50v-50v0h-575zM214 1612h384v-81h-384v81z" />
    <glyph glyph-name="emacron" unicode="&#x113;" horiz-adv-x="759" 
d="M382 -21q-138 0 -212.5 81.5t-74.5 231.5v409q0 145 74.5 223.5t212.5 78.5t212.5 -78.5t74.5 -223.5v-246v0h-459v0v-163q0 -114 42 -168.5t129 -54.5q93 0 133 52t40 174v0h115v0q0 -167 -67.5 -241.5t-219.5 -74.5zM554 545v0v156q0 108 -42 160t-130 52t-130 -52
t-42 -160v-156v0h344zM201 1184h384v-81h-384v81z" />
    <glyph glyph-name="glyph240" horiz-adv-x="0" 
d="M-70 171h140v-139h-140v139z" />
    <glyph glyph-name="Edotaccent" unicode="&#x116;" horiz-adv-x="796" 
d="M153 0v0v1410v0h563v0v-50v-50v0h-447v0v-536v0h424v-50v-50v0h-424v0v-574v0h459v0v-50v-50v0h-575zM336 1702h140v-139h-140v139z" />
    <glyph glyph-name="glyph242" horiz-adv-x="0" 
d="M-70 171h140v-139h-140v139z" />
    <glyph glyph-name="edotaccent" unicode="&#x117;" horiz-adv-x="759" 
d="M382 -21q-138 0 -212.5 81.5t-74.5 231.5v409q0 145 74.5 223.5t212.5 78.5t212.5 -78.5t74.5 -223.5v-246v0h-459v0v-163q0 -114 42 -168.5t129 -54.5q93 0 133 52t40 174v0h115v0q0 -167 -67.5 -241.5t-219.5 -74.5zM554 545v0v156q0 108 -42 160t-130 52t-130 -52
t-42 -160v-156v0h344zM323 1274h140v-139h-140v139z" />
    <glyph glyph-name="Eogonek" unicode="&#x118;" horiz-adv-x="796" 
d="M153 0v0v1410v0h563v0v-50v-50v0h-447v0v-536v0h424v-50v-50v0h-424v0v-574v0h459v0v-50v-50v0h-575zM396 -186q0 71 59.5 132.5t157.5 91.5l29 -40q-66 -32 -99 -69t-33 -80q0 -38 25 -61.5t66 -23.5q31 0 65.5 12t67.5 35v0l51 -81v0q-51 -35 -104.5 -53.5
t-101.5 -18.5q-77 0 -130 45t-53 111z" />
    <glyph glyph-name="eogonek" unicode="&#x119;" horiz-adv-x="759" 
d="M382 -21q-138 0 -212.5 81.5t-74.5 231.5v409q0 145 74.5 223.5t212.5 78.5t212.5 -78.5t74.5 -223.5v-246v0h-459v0v-163q0 -114 42 -168.5t129 -54.5q93 0 133 52t40 174v0h115v0q0 -167 -67.5 -241.5t-219.5 -74.5zM554 545v0v156q0 108 -42 160t-130 52t-130 -52
t-42 -160v-156v0h344zM251 -186q0 71 59.5 132.5t157.5 91.5l29 -40q-66 -32 -99 -69t-33 -80q0 -38 25 -61.5t66 -23.5q31 0 65.5 12t67.5 35v0l51 -81v0q-51 -35 -104.5 -53.5t-101.5 -18.5q-77 0 -130 45t-53 111z" />
    <glyph glyph-name="Ecaron" unicode="&#x11a;" horiz-adv-x="796" 
d="M153 0v0v1410v0h563v0v-50v-50v0h-447v0v-536v0h424v-50v-50v0h-424v0v-574v0h459v0v-50v-50v0h-575zM346 1531l-123 284h91l92 -195v0l92 195h91l-123 -284h-60h-60z" />
    <glyph glyph-name="ecaron" unicode="&#x11b;" horiz-adv-x="759" 
d="M382 -21q-138 0 -212.5 81.5t-74.5 231.5v409q0 145 74.5 223.5t212.5 78.5t212.5 -78.5t74.5 -223.5v-246v0h-459v0v-163q0 -114 42 -168.5t129 -54.5q93 0 133 52t40 174v0h115v0q0 -167 -67.5 -241.5t-219.5 -74.5zM554 545v0v156q0 108 -42 160t-130 52t-130 -52
t-42 -160v-156v0h344zM333 1103l-123 284h91l92 -195v0l92 195h91l-123 -284h-60h-60z" />
    <glyph glyph-name="Gbreve" unicode="&#x11e;" horiz-adv-x="986" 
d="M496 -21q-169 0 -261 102t-92 291v682q0 181 95.5 279t272.5 98q170 0 251.5 -91.5t81.5 -281.5v0h-116v0q0 131 -56.5 202t-160.5 71q-128 0 -190 -68t-62 -210v-682q0 -149 64 -220.5t198 -71.5q118 0 207 36v0v490v0h-199v100h315v-656v0q-132 -70 -348 -70zM511 1572
q-116 0 -173.5 63.5t-57.5 191.5h109q0 -86 28.5 -124t93.5 -38t93.5 38t28.5 124h109q0 -128 -57.5 -191.5t-173.5 -63.5z" />
    <glyph glyph-name="gbreve" unicode="&#x11f;" horiz-adv-x="796" 
d="M375 -298q98 0 143.5 44t45.5 140v168v0q-69 -76 -191 -75q-128 0 -197.5 81.5t-69.5 231.5v409q0 145 69.5 223.5t198.5 78.5q122 0 190 -72v0v51v0h116v-1096q0 -134 -73 -204t-214 -70q-127 0 -195.5 66.5t-68.5 189.5v0h116v0q0 -80 34 -123t96 -43zM393 913
q-87 0 -129 -52t-42 -160v-409q0 -114 42 -168.5t129 -54.5q80 0 122 74.5t49 229.5v236q0 155 -42 229.5t-129 74.5zM374 1144q-116 0 -173.5 63.5t-57.5 191.5h109q0 -86 28.5 -124t93.5 -38t93.5 38t28.5 124h109q0 -128 -57.5 -191.5t-173.5 -63.5z" />
    <glyph glyph-name="glyph250" horiz-adv-x="0" 
d="M-168 -370l121 259h95l-93 -259h-123z" />
    <glyph glyph-name="Gcommaaccent" unicode="&#x122;" horiz-adv-x="986" 
d="M496 -21q-169 0 -261 102t-92 291v682q0 181 95.5 279t272.5 98q170 0 251.5 -91.5t81.5 -281.5v0h-116v0q0 131 -56.5 202t-160.5 71q-128 0 -190 -68t-62 -210v-682q0 -149 64 -220.5t198 -71.5q118 0 207 36v0v490v0h-199v100h315v-656v0q-132 -70 -348 -70zM328 -370
l121 259h95l-93 -259h-123z" />
    <glyph glyph-name="glyph252" horiz-adv-x="0" 
d="M129 263l-91 -263h-124l123 263h92z" />
    <glyph glyph-name="gcommaaccent" unicode="&#x123;" horiz-adv-x="796" 
d="M375 -298q98 0 143.5 44t45.5 140v168v0q-69 -76 -191 -75q-128 0 -197.5 81.5t-69.5 231.5v409q0 145 69.5 223.5t198.5 78.5q122 0 190 -72v0v51v0h116v-1096q0 -134 -73 -204t-214 -70q-127 0 -195.5 66.5t-68.5 189.5v0h116v0q0 -80 34 -123t96 -43zM393 913
q-87 0 -129 -52t-42 -160v-409q0 -114 42 -168.5t129 -54.5q80 0 122 74.5t49 229.5v236q0 155 -42 229.5t-129 74.5zM503 1366l-91 -263h-124l123 263h92z" />
    <glyph glyph-name="Imacron" unicode="&#x12a;" horiz-adv-x="417" 
d="M154 0v1410v0h58h58v0v-1410v0h-58h-58v0zM20 1612h384v-81h-384v81z" />
    <glyph glyph-name="imacron" unicode="&#x12b;" horiz-adv-x="341" 
d="M114 0v982v0h58h58v0v-982v0h-58h-58v0zM-20 1184h384v-81h-384v81z" />
    <glyph glyph-name="Iogonek" unicode="&#x12e;" horiz-adv-x="417" 
d="M152 0v1410v0h58h58v0v-1410v0h-58h-58v0zM-7 -186q0 71 59.5 132.5t157.5 91.5l29 -40q-66 -32 -99 -69t-33 -80q0 -38 25 -61.5t66 -23.5q31 0 65.5 12t67.5 35v0l51 -81v0q-51 -35 -104.5 -53.5t-101.5 -18.5q-77 0 -130 45t-53 111z" />
    <glyph glyph-name="iogonek" unicode="&#x12f;" horiz-adv-x="341" 
d="M109 0v982v0h58h58v0v-982v0h-58h-58v0zM103 1410h128v-141h-128v141zM-50 -186q0 71 59.5 132.5t157.5 91.5l29 -40q-66 -32 -99 -69t-33 -80q0 -38 25 -61.5t66 -23.5q31 0 65.5 12t67.5 35v0l51 -81v0q-51 -35 -104.5 -53.5t-101.5 -18.5q-77 0 -130 45t-53 111z" />
    <glyph glyph-name="Idotaccent" unicode="&#x130;" horiz-adv-x="417" 
d="M152 0v1410v0h58h58v0v-1410v0h-58h-58v0zM140 1702h140v-139h-140v139z" />
    <glyph glyph-name="Kcommaaccent" unicode="&#x136;" horiz-adv-x="910" 
d="M261 1410v-1410v0h-58h-58v0v1410v0h58h58v0zM738 0l-462 761v0l442 649v0h64h64v0l-459 -645v0l488 -765v0h-68h-69v0zM331 -370l121 259h95l-93 -259h-123z" />
    <glyph glyph-name="kcommaaccent" unicode="&#x137;" horiz-adv-x="759" 
d="M229 1410v-1410v0h-58h-58v0v1410v0h58h58v0zM598 0l-350 560v0l328 422v0h64h65v0l-329 -426v0l360 -556v0h-69h-69v0zM245 -370l121 259h95l-93 -259h-123z" />
    <glyph glyph-name="Lacute" unicode="&#x139;" horiz-adv-x="721" 
d="M142 0v0v1410v0h58h58v0v-1310v0h431v0v-50v-50v0h-547zM99 1531l123 300h130l-155 -300h-98z" />
    <glyph glyph-name="lacute" unicode="&#x13a;" horiz-adv-x="341" 
d="M108 0v1410v0h58h58v0v-1410v0h-58h-58v0zM65 1531l123 300h130l-155 -300h-98z" />
    <glyph glyph-name="Lcommaaccent" unicode="&#x13b;" horiz-adv-x="721" 
d="M145 0v0v1410v0h58h58v0v-1310v0h431v0v-50v-50v0h-547zM250 -370l121 259h95l-93 -259h-123z" />
    <glyph glyph-name="lcommaaccent" unicode="&#x13c;" horiz-adv-x="341" 
d="M120 0v1410v0h58h58v0v-1410v0h-58h-58v0zM10 -370l121 259h95l-93 -259h-123z" />
    <glyph glyph-name="Lcaron" unicode="&#x13d;" horiz-adv-x="721" 
d="M145 0v0v1410v0h58h58v0v-1310v0h431v0v-50v-50v0h-547zM382 1182l70 228h103l-101 -228h-72z" />
    <glyph glyph-name="lcaron" unicode="&#x13e;" horiz-adv-x="372" 
d="M118 0v1410v0h58h58v0v-1410v0h-58h-58v0zM355 1182l70 228h103l-101 -228h-72z" />
    <glyph glyph-name="Lslash" unicode="&#x141;" horiz-adv-x="721" 
d="M154 0v0v587l-139 -206v178l139 206v645v0h58h58v0v-473l139 206v-178l-139 -206v-659v0h431v0v-50v-50v0h-547z" />
    <glyph glyph-name="lslash" unicode="&#x142;" horiz-adv-x="341" 
d="M115 0v571l-104 -197v193l104 197v646v0h58h58v0v-427l103 195v-193l-103 -195v-790v0h-58h-58v0z" />
    <glyph glyph-name="Nacute" unicode="&#x143;" horiz-adv-x="1062" 
d="M261 0v0h-60h-60v0v1410v0h81h81v0l488 -1202v0v0v1202v0h60h60v0v-1410h-80h-80l-490 1207v0v0v-1207zM425 1531l123 300h130l-155 -300h-98z" />
    <glyph glyph-name="nacute" unicode="&#x144;" horiz-adv-x="796" 
d="M112 0v982v0h55h55v0v-80v0v0l7 9q73 92 213 92q119 0 181 -73t62 -214v-716v0h-58h-58v0v713q0 94 -40.5 146.5t-112.5 52.5q-98 0 -143 -65t-45 -206v0v-641v0h-58h-58v0zM297 1103l123 300h130l-155 -300h-98z" />
    <glyph glyph-name="Ncommaaccent" unicode="&#x145;" horiz-adv-x="1062" 
d="M261 0v0h-60h-60v0v1410v0h81h81v0l488 -1202v0v0v1202v0h60h60v0v-1410h-80h-80l-490 1207v0v0v-1207zM358 -370l121 259h95l-93 -259h-123z" />
    <glyph glyph-name="ncommaaccent" unicode="&#x146;" horiz-adv-x="796" 
d="M112 0v982v0h55h55v0v-80v0v0l7 9q73 92 213 92q119 0 181 -73t62 -214v-716v0h-58h-58v0v713q0 94 -40.5 146.5t-112.5 52.5q-98 0 -143 -65t-45 -206v0v-641v0h-58h-58v0zM230 -370l121 259h95l-93 -259h-123z" />
    <glyph glyph-name="Ncaron" unicode="&#x147;" horiz-adv-x="1062" 
d="M261 0v0h-60h-60v0v1410v0h81h81v0l488 -1202v0v0v1202v0h60h60v0v-1410h-80h-80l-490 1207v0v0v-1207zM466 1531l-123 284h91l92 -195v0l92 195h91l-123 -284h-60h-60z" />
    <glyph glyph-name="ncaron" unicode="&#x148;" horiz-adv-x="796" 
d="M112 0v982v0h55h55v0v-80v0v0l7 9q73 92 213 92q119 0 181 -73t62 -214v-716v0h-58h-58v0v713q0 94 -40.5 146.5t-112.5 52.5q-98 0 -143 -65t-45 -206v0v-641v0h-58h-58v0zM338 1103l-123 284h91l92 -195v0l92 195h91l-123 -284h-60h-60z" />
    <glyph glyph-name="Omacron" unicode="&#x14c;" horiz-adv-x="986" 
d="M491 -21q-170 0 -262 102t-92 291v682q0 181 92 279t262 98t262.5 -98t92.5 -279v-682q0 -189 -92.5 -291t-262.5 -102v0zM491 79q122 0 180.5 71.5t58.5 220.5v682q0 142 -58.5 210t-180.5 68q-121 0 -179.5 -68t-58.5 -210v-682q0 -149 58.5 -220.5t179.5 -71.5v0z
M299 1612h384v-81h-384v81z" />
    <glyph glyph-name="omacron" unicode="&#x14d;" horiz-adv-x="796" 
d="M399 -21q-137 0 -211.5 81.5t-74.5 231.5v409q0 145 74.5 223.5t211.5 78.5q138 0 212.5 -78.5t74.5 -223.5v-409q0 -150 -74.5 -231.5t-212.5 -81.5v0zM399 69q88 0 130 54.5t42 168.5v409q0 108 -42 160t-130 52q-87 0 -129 -52t-42 -160v-409q0 -114 42 -168.5
t129 -54.5v0zM207 1184h384v-81h-384v81z" />
    <glyph glyph-name="glyph277" horiz-adv-x="0" 
d="M-182 0l123 300h130l-155 -300h-98zM84 0l123 300h130l-155 -300h-98z" />
    <glyph glyph-name="Ohungarumlaut" unicode="&#x150;" horiz-adv-x="986" 
d="M491 -21q-170 0 -262 102t-92 291v682q0 181 92 279t262 98t262.5 -98t92.5 -279v-682q0 -189 -92.5 -291t-262.5 -102v0zM491 79q122 0 180.5 71.5t58.5 220.5v682q0 142 -58.5 210t-180.5 68q-121 0 -179.5 -68t-58.5 -210v-682q0 -149 58.5 -220.5t179.5 -71.5v0z
M309 1531l123 300h130l-155 -300h-98zM575 1531l123 300h130l-155 -300h-98z" />
    <glyph glyph-name="glyph279" horiz-adv-x="0" 
d="M-182 0l123 300h130l-155 -300h-98zM84 0l123 300h130l-155 -300h-98z" />
    <glyph glyph-name="ohungarumlaut" unicode="&#x151;" horiz-adv-x="796" 
d="M399 -21q-137 0 -211.5 81.5t-74.5 231.5v409q0 145 74.5 223.5t211.5 78.5q138 0 212.5 -78.5t74.5 -223.5v-409q0 -150 -74.5 -231.5t-212.5 -81.5v0zM399 69q88 0 130 54.5t42 168.5v409q0 108 -42 160t-130 52q-87 0 -129 -52t-42 -160v-409q0 -114 42 -168.5
t129 -54.5v0zM217 1103l123 300h130l-155 -300h-98zM483 1103l123 300h130l-155 -300h-98z" />
    <glyph glyph-name="OE" unicode="&#x152;" horiz-adv-x="1289" 
d="M461 1431q134 1 215 -70v0v49h111v0h429v0v-50v-50v0h-429v0v-536v0h375v-50v-50v0h-375v0v-574v0h429v0v-50v-50v0h-429v0h-111v51v0q-81 -72 -215 -72q-158 0 -244 102t-86 291v682q0 181 86 279t244 98zM461 1331q-109 0 -161.5 -68t-52.5 -210v-682
q0 -149 52.5 -220.5t161.5 -71.5q110 0 162.5 71.5t52.5 220.5v682q0 142 -53 210q-52 68 -162 68z" />
    <glyph glyph-name="oe" unicode="&#x153;" horiz-adv-x="1252" 
d="M403 1003q137 0 212 -79l16 -18v0l18 19q74 78 212 78t212.5 -78.5t74.5 -223.5v-246v0h-459v0v-163q0 -114 42 -168.5t129 -54.5q93 0 133 52t40 174v0h115v0q0 -167 -67.5 -241.5t-219.5 -74.5q-138 0 -213 82l-17 21v0l-17 -22q-74 -81 -211 -81t-211.5 81.5
t-74.5 231.5v409q0 145 75 224q74 78 211 78zM403 913q-87 0 -129 -52t-42 -160v-409q0 -114 42 -168.5t129 -54.5t129 54.5t42 168.5v409q0 108 -42 160t-129 52zM1033 545v0v156q0 108 -42 160t-130 52t-130 -52t-42 -160v-156v0h344z" />
    <glyph glyph-name="Racute" unicode="&#x154;" horiz-adv-x="948" 
d="M154 0v1410v0h58v0h236q230 0 307 -75t77 -299q0 -185 -83 -255q-47 -40 -140 -58v0q100 -9 150 -59q63 -61 61 -194q-2 -124 5 -236.5t24 -233.5v0h-59h-59v0q-15 122 -20.5 234.5t-1.5 235.5q3 107 -53.5 156.5t-182.5 49.5h-203v0v-676v0h-58h-58v0zM270 776v0h178
q161 0 214.5 54t53.5 216q0 158 -53.5 211t-214.5 53h-178v0v-534zM358 1531l123 300h130l-155 -300h-98z" />
    <glyph glyph-name="racute" unicode="&#x155;" horiz-adv-x="531" 
d="M132 0v982v0h57h57v0v-122v0v0q16 24 34 44q75 79 220 79h10v-93l-25 2q-123 0 -180 -52.5t-57 -166.5v0v-673v0h-58h-58v0zM220 1103l123 300h130l-155 -300h-98z" />
    <glyph glyph-name="Rcommaaccent" unicode="&#x156;" horiz-adv-x="948" 
d="M154 0v1410v0h58v0h236q230 0 307 -75t77 -299q0 -185 -83 -255q-47 -40 -140 -58v0q100 -9 150 -59q63 -61 61 -194q-2 -124 5 -236.5t24 -233.5v0h-59h-59v0q-15 122 -20.5 234.5t-1.5 235.5q3 107 -53.5 156.5t-182.5 49.5h-203v0v-676v0h-58h-58v0zM270 776v0h178
q161 0 214.5 54t53.5 216q0 158 -53.5 211t-214.5 53h-178v0v-534zM332 -370l121 259h95l-93 -259h-123z" />
    <glyph glyph-name="rcommaaccent" unicode="&#x157;" horiz-adv-x="531" 
d="M110 0v982v0h57h57v0v-122v0v0q16 24 34 44q75 79 220 79h10v-93l-25 2q-123 0 -180 -52.5t-57 -166.5v0v-673v0h-58h-58v0zM0 -370l121 259h95l-93 -259h-123z" />
    <glyph glyph-name="Rcaron" unicode="&#x158;" horiz-adv-x="948" 
d="M154 0v1410v0h58v0h236q230 0 307 -75t77 -299q0 -185 -83 -255q-47 -40 -140 -58v0q100 -9 150 -59q63 -61 61 -194q-2 -124 5 -236.5t24 -233.5v0h-59h-59v0q-15 122 -20.5 234.5t-1.5 235.5q3 107 -53.5 156.5t-182.5 49.5h-203v0v-676v0h-58h-58v0zM270 776v0h178
q161 0 214.5 54t53.5 216q0 158 -53.5 211t-214.5 53h-178v0v-534zM399 1531l-123 284h91l92 -195v0l92 195h91l-123 -284h-60h-60z" />
    <glyph glyph-name="rcaron" unicode="&#x159;" horiz-adv-x="531" 
d="M132 0v982v0h57h57v0v-122v0v0q16 24 34 44q75 79 220 79h10v-93l-25 2q-123 0 -180 -52.5t-57 -166.5v0v-673v0h-58h-58v0zM261 1103l-123 284h91l92 -195v0l92 195h91l-123 -284h-60h-60z" />
    <glyph glyph-name="Sacute" unicode="&#x15a;" horiz-adv-x="872" 
d="M644 1058v0q0 142 -49.5 207.5t-157.5 65.5q-91 0 -142.5 -51t-51.5 -142t46 -162q45 -70 189 -201q177 -161 233 -244q55 -83 55 -185q0 -172 -90 -269.5t-249 -97.5q-173 0 -249.5 94.5t-76.5 307.5v0h110v0q0 -160 52.5 -231t170.5 -71q102 0 159 65t57 180
q0 76 -43 136q-42 60 -196 200q-166 151 -225 243q-59 91 -59 197q0 156 82 243.5t228 87.5q171 0 247 -87.5t76 -285.5v0h-116zM336 1531l123 300h130l-155 -300h-98z" />
    <glyph glyph-name="sacute" unicode="&#x15b;" horiz-adv-x="645" 
d="M461 697v0q0 112 -34.5 164t-109.5 52q-63 0 -93.5 -35.5t-30.5 -108.5q0 -45 33 -86q32 -41 127 -117q127 -102 176 -170q49 -67 49 -140q0 -139 -65 -208t-195 -69q-138 0 -199 76.5t-61 248.5v0h112v0q0 -125 35 -180t113 -55q75 0 111.5 43t36.5 132q0 52 -37 99
t-146 135q-114 91 -158 152q-44 60 -44 126q0 124 61.5 185.5t184.5 61.5q130 0 188 -72t58 -234v0h-112zM226 1103l123 300h130l-155 -300h-98z" />
    <glyph glyph-name="Scedilla" unicode="&#x15e;" horiz-adv-x="872" 
d="M644 1058v0q0 142 -49.5 207.5t-157.5 65.5q-91 0 -142.5 -51t-51.5 -142t46 -162q45 -70 189 -201q177 -161 233 -244q55 -83 55 -185q0 -172 -90 -269.5t-249 -97.5q-173 0 -249.5 94.5t-76.5 307.5v0h110v0q0 -160 52.5 -231t170.5 -71q102 0 159 65t57 180
q0 76 -43 136q-42 60 -196 200q-166 151 -225 243q-59 91 -59 197q0 156 82 243.5t228 87.5q171 0 247 -87.5t76 -285.5v0h-116zM259 -370l121 259h95l-93 -259h-123z" />
    <glyph glyph-name="scedilla" unicode="&#x15f;" horiz-adv-x="645" 
d="M461 697v0q0 112 -34.5 164t-109.5 52q-63 0 -93.5 -35.5t-30.5 -108.5q0 -45 33 -86q32 -41 127 -117q127 -102 176 -170q49 -67 49 -140q0 -139 -65 -208t-195 -69q-138 0 -199 76.5t-61 248.5v0h112v0q0 -125 35 -180t113 -55q75 0 111.5 43t36.5 132q0 52 -37 99
t-146 135q-114 91 -158 152q-44 60 -44 126q0 124 61.5 185.5t184.5 61.5q130 0 188 -72t58 -234v0h-112zM150 -370l121 259h95l-93 -259h-123z" />
    <glyph glyph-name="Scaron" unicode="&#x160;" horiz-adv-x="872" 
d="M644 1058v0q0 142 -49.5 207.5t-157.5 65.5q-91 0 -142.5 -51t-51.5 -142t46 -162q45 -70 189 -201q177 -161 233 -244q55 -83 55 -185q0 -172 -90 -269.5t-249 -97.5q-173 0 -249.5 94.5t-76.5 307.5v0h110v0q0 -160 52.5 -231t170.5 -71q102 0 159 65t57 180
q0 76 -43 136q-42 60 -196 200q-166 151 -225 243q-59 91 -59 197q0 156 82 243.5t228 87.5q171 0 247 -87.5t76 -285.5v0h-116zM377 1531l-123 284h91l92 -195v0l92 195h91l-123 -284h-60h-60z" />
    <glyph glyph-name="scaron" unicode="&#x161;" horiz-adv-x="645" 
d="M461 697v0q0 112 -34.5 164t-109.5 52q-63 0 -93.5 -35.5t-30.5 -108.5q0 -45 33 -86q32 -41 127 -117q127 -102 176 -170q49 -67 49 -140q0 -139 -65 -208t-195 -69q-138 0 -199 76.5t-61 248.5v0h112v0q0 -125 35 -180t113 -55q75 0 111.5 43t36.5 132q0 52 -37 99
t-146 135q-114 91 -158 152q-44 60 -44 126q0 124 61.5 185.5t184.5 61.5q130 0 188 -72t58 -234v0h-112zM267 1103l-123 284h91l92 -195v0l92 195h91l-123 -284h-60h-60z" />
    <glyph glyph-name="glyph295" horiz-adv-x="0" 
d="M-168 -370l121 259h95l-93 -259h-123z" />
    <glyph glyph-name="Tcommaaccent" unicode="&#x162;" 
d="M360 0v1310v0h-329v0v50v50v0h775v0v-50v-50v0h-330v0v-1310v0h-58h-58v0zM250 -370l121 259h95l-93 -259h-123z" />
    <glyph glyph-name="glyph297" horiz-adv-x="0" 
d="M-168 -370l121 259h95l-93 -259h-123z" />
    <glyph glyph-name="tcommaaccent" unicode="&#x163;" horiz-adv-x="531" 
d="M473 -12q-51 -9 -118 -9q-95 0 -132 53t-37 187v680v0h-152v83h152v0v147l116 48v-195v0h171v-83h-171v0v-585q0 -144 17 -194.5t66 -50.5q50 0 88 6v-87zM173 -370l121 259h95l-93 -259h-123z" />
    <glyph glyph-name="Tcaron" unicode="&#x164;" 
d="M360 0v1310v0h-329v0v50v50v0h775v0v-50v-50v0h-330v0v-1310v0h-58h-58v0zM358 1531l-123 284h91l92 -195v0l92 195h91l-123 -284h-60h-60z" />
    <glyph glyph-name="tcaron" unicode="&#x165;" horiz-adv-x="585" 
d="M473 -12q-51 -9 -118 -9q-95 0 -132 53t-37 187v680v0h-152v83h152v0v147l116 48v-195v0h171v-83h-171v0v-585q0 -144 17 -194.5t66 -50.5q50 0 88 6v-87zM423 1103l70 228h103l-101 -228h-72z" />
    <glyph glyph-name="Umacron" unicode="&#x16a;" horiz-adv-x="986" 
d="M846 295q0 -152 -91 -234t-260 -82t-260 82t-91 234v1115v0h58h58v0v-1095q0 -120 58 -178t178 -58t177.5 58t57.5 178v1095v0h57h58v0v-1115zM303 1612h384v-81h-384v81z" />
    <glyph glyph-name="umacron" unicode="&#x16b;" horiz-adv-x="796" 
d="M228 982v-733q0 -89 38.5 -134t114.5 -45q98 0 143 65t45 206v0v641v0h58h58v0v-982v0h-55h-55v0v83v0v0l-10 -12q-75 -92 -221 -92q-114 0 -173 70t-59 204v729v0h58h58v0zM206 1184h384v-81h-384v81z" />
    <glyph glyph-name="Uring" unicode="&#x16e;" horiz-adv-x="986" 
d="M846 295q0 -152 -91 -234t-260 -82t-260 82t-91 234v1115v0h58h58v0v-1095q0 -120 58 -178t178 -58t177.5 58t57.5 178v1095v0h57h58v0v-1115zM495 1534q-79 0 -133.5 50t-54.5 123t54.5 123.5t133.5 50.5t133.5 -50.5t54.5 -123.5t-54.5 -123t-133.5 -50v0zM495 1609
q38 0 64 28.5t26 69.5q0 42 -26 70.5t-64 28.5t-64 -28.5t-26 -70.5q0 -41 26 -69.5t64 -28.5v0z" />
    <glyph glyph-name="uring" unicode="&#x16f;" horiz-adv-x="796" 
d="M228 982v-733q0 -89 38.5 -134t114.5 -45q98 0 143 65t45 206v0v641v0h58h58v0v-982v0h-55h-55v0v83v0v0l-10 -12q-75 -92 -221 -92q-114 0 -173 70t-59 204v729v0h58h58v0zM398 1106q-79 0 -133.5 50t-54.5 123t54.5 123.5t133.5 50.5t133.5 -50.5t54.5 -123.5
t-54.5 -123t-133.5 -50v0zM398 1181q38 0 64 28.5t26 69.5q0 42 -26 70.5t-64 28.5t-64 -28.5t-26 -70.5q0 -41 26 -69.5t64 -28.5v0z" />
    <glyph glyph-name="Uhungarumlaut" unicode="&#x170;" horiz-adv-x="986" 
d="M846 295q0 -152 -91 -234t-260 -82t-260 82t-91 234v1115v0h58h58v0v-1095q0 -120 58 -178t178 -58t177.5 58t57.5 178v1095v0h57h58v0v-1115zM313 1531l123 300h130l-155 -300h-98zM579 1531l123 300h130l-155 -300h-98z" />
    <glyph glyph-name="uhungarumlaut" unicode="&#x171;" horiz-adv-x="796" 
d="M228 982v-733q0 -89 38.5 -134t114.5 -45q98 0 143 65t45 206v0v641v0h58h58v0v-982v0h-55h-55v0v83v0v0l-10 -12q-75 -92 -221 -92q-114 0 -173 70t-59 204v729v0h58h58v0zM216 1103l123 300h130l-155 -300h-98zM482 1103l123 300h130l-155 -300h-98z" />
    <glyph glyph-name="Uogonek" unicode="&#x172;" horiz-adv-x="986" 
d="M846 295q0 -152 -91 -234t-260 -82t-260 82t-91 234v1115v0h58h58v0v-1095q0 -120 58 -178t178 -58t177.5 58t57.5 178v1095v0h57h58v0v-1115zM383 -186q0 71 59.5 132.5t157.5 91.5l29 -40q-66 -32 -99 -69t-33 -80q0 -38 25 -61.5t66 -23.5q31 0 65.5 12t67.5 35v0
l51 -81v0q-51 -35 -104.5 -53.5t-101.5 -18.5q-77 0 -130 45t-53 111z" />
    <glyph glyph-name="uogonek" unicode="&#x173;" horiz-adv-x="796" 
d="M228 982v-733q0 -89 38.5 -134t114.5 -45q98 0 143 65t45 206v0v641v0h58h58v0v-982v0h-55h-55v0v83v0v0l-10 -12q-75 -92 -221 -92q-114 0 -173 70t-59 204v729v0h58h58v0zM417 -186q0 71 59.5 132.5t157.5 91.5l29 -40q-66 -32 -99 -69t-33 -80q0 -38 25 -61.5
t66 -23.5q31 0 65.5 12t67.5 35v0l51 -81v0q-51 -35 -104.5 -53.5t-101.5 -18.5q-77 0 -130 45t-53 111z" />
    <glyph glyph-name="Ydieresis" unicode="&#x178;" horiz-adv-x="910" 
d="M406 625v0l-351 785v0h64h64v0l281 -678v0l291 678v0h58h59v0l-350 -788v0v-622h-58h-58v625zM291 1673h130v-142h-130v142zM505 1673h130v-142h-130v142z" />
    <glyph glyph-name="Zacute" unicode="&#x179;" horiz-adv-x="796" 
d="M45 102l597 1206l1 2h-598v0v50v50v0h727v-51v-51l-597 -1206l-1 -2h598v0v-50v-50v0h-727v51v51zM307 1531l123 300h130l-155 -300h-98z" />
    <glyph glyph-name="zacute" unicode="&#x17a;" horiz-adv-x="569" 
d="M33 115l374 752l13 25v0h-387v0v45v45v0h505v-57v-58l-374 -752l-13 -25v0h387v0v-45v-45v0h-505v57v58zM184 1103l123 300h130l-155 -300h-98z" />
    <glyph glyph-name="Zdotaccent" unicode="&#x17b;" horiz-adv-x="796" 
d="M45 102l597 1206l1 2h-598v0v50v50v0h727v-51v-51l-597 -1206l-1 -2h598v0v-50v-50v0h-727v51v51zM338 1702h140v-139h-140v139z" />
    <glyph glyph-name="zdotaccent" unicode="&#x17c;" horiz-adv-x="569" 
d="M33 115l374 752l13 25v0h-387v0v45v45v0h505v-57v-58l-374 -752l-13 -25v0h387v0v-45v-45v0h-505v57v58zM215 1274h140v-139h-140v139z" />
    <glyph glyph-name="Zcaron" unicode="&#x17d;" horiz-adv-x="796" 
d="M45 102l597 1206l1 2h-598v0v50v50v0h727v-51v-51l-597 -1206l-1 -2h598v0v-50v-50v0h-727v51v51zM348 1531l-123 284h91l92 -195v0l92 195h91l-123 -284h-60h-60z" />
    <glyph glyph-name="zcaron" unicode="&#x17e;" horiz-adv-x="569" 
d="M33 115l374 752l13 25v0h-387v0v45v45v0h505v-57v-58l-374 -752l-13 -25v0h387v0v-45v-45v0h-505v57v58zM225 1103l-123 284h91l92 -195v0l92 195h91l-123 -284h-60h-60z" />
    <glyph glyph-name="florin" unicode="&#x192;" 
d="M465 897v0l-275 -897v0h-55h-55v0l275 897v0h-157l27 85h157v0l62 203q41 134 93 186.5t142 52.5q61 0 103 -10l-29 -96q-29 17 -85 16q-40 0 -66.5 -40t-61.5 -154l-48 -158v0h158l-27 -85h-158z" />
    <glyph glyph-name="circumflex" unicode="&#x2c6;" 
d="M486 1387l123 -284h-91l-92 195v0l-92 -195h-91l123 284h60h60z" />
    <glyph glyph-name="caron" unicode="&#x2c7;" 
d="M371 1103l-123 284h91l92 -195v0l92 195h91l-123 -284h-60h-60z" />
    <glyph glyph-name="uni02C9" unicode="&#x2c9;" 
d="M233 1184h384v-81h-384v81z" />
    <glyph glyph-name="breve" unicode="&#x2d8;" 
d="M418 1144q-116 0 -173.5 63.5t-57.5 191.5h109q0 -86 28.5 -124t93.5 -38t93.5 38t28.5 124h109q0 -128 -57.5 -191.5t-173.5 -63.5z" />
    <glyph glyph-name="dotaccent" unicode="&#x2d9;" 
d="M361 1274h140v-139h-140v139z" />
    <glyph glyph-name="ring" unicode="&#x2da;" 
d="M419 1106q-79 0 -133.5 50t-54.5 123t54.5 123.5t133.5 50.5t133.5 -50.5t54.5 -123.5t-54.5 -123t-133.5 -50v0zM419 1181q38 0 64 28.5t26 69.5q0 42 -26 70.5t-64 28.5t-64 -28.5t-26 -70.5q0 -41 26 -69.5t64 -28.5v0z" />
    <glyph glyph-name="ogonek" unicode="&#x2db;" 
d="M385 -186q0 71 59.5 132.5t157.5 91.5l29 -40q-66 -32 -99 -69t-33 -80q0 -38 25 -61.5t66 -23.5q31 0 65.5 12t67.5 35v0l51 -81v0q-51 -35 -104.5 -53.5t-101.5 -18.5q-77 0 -130 45t-53 111z" />
    <glyph glyph-name="tilde" unicode="&#x2dc;" 
d="M195 1109q-2 131 17 178t74 47q26 0 59 -15t105 -61q68 -43 82 -43q17 0 22.5 24.5t3.5 89.5h97q2 -131 -17 -178t-74 -47q-26 0 -59 15t-105 61q-68 43 -82 43q-17 0 -22.5 -24.5t-3.5 -89.5h-97z" />
    <glyph glyph-name="hungarumlaut" unicode="&#x2dd;" 
d="M236 1103l123 300h130l-155 -300h-98zM502 1103l123 300h130l-155 -300h-98z" />
    <glyph glyph-name="endash" unicode="&#x2013;" 
d="M83 547h672v-72h-672v72z" />
    <glyph glyph-name="emdash" unicode="&#x2014;" horiz-adv-x="1365" 
d="M85 547h1198v-72h-1198v72z" />
    <glyph glyph-name="quoteleft" unicode="&#x2018;" horiz-adv-x="341" 
d="M291 1410l-96 -427h-144l147 427h93z" />
    <glyph glyph-name="quoteright" unicode="&#x2019;" horiz-adv-x="341" 
d="M56 983l96 427h144l-147 -427h-93z" />
    <glyph glyph-name="quotesinglbase" unicode="&#x201a;" horiz-adv-x="341" 
d="M56 -158l96 426h144l-147 -426h-93z" />
    <glyph glyph-name="quotedblleft" unicode="&#x201c;" horiz-adv-x="569" 
d="M292 1410l-96 -427h-144l147 427h93zM538 1410l-96 -427h-144l147 427h93z" />
    <glyph glyph-name="quotedblright" unicode="&#x201d;" horiz-adv-x="569" 
d="M56 983l96 427h144l-147 -427h-93zM295 983l96 427h144l-147 -427h-93z" />
    <glyph glyph-name="quotedblbase" unicode="&#x201e;" horiz-adv-x="569" 
d="M56 -158l96 427h144l-147 -427h-93zM295 -158l96 427h144l-147 -427h-93z" />
    <glyph glyph-name="dagger" unicode="&#x2020;" 
d="M133 1118h233v0v292h116v-292v0h234v-116h-234v0v-1087h-116v1087v0h-233v116z" />
    <glyph glyph-name="daggerdbl" unicode="&#x2021;" 
d="M135 1118h233v0v292h116v-292v0h234v-116h-234v0v-581v0h234v-116h-234v0v-390h-116v390v0h-233v116h233v0v581v0h-233v116z" />
    <glyph glyph-name="bullet" unicode="&#x2022;" horiz-adv-x="1479" 
d="M599 1103q155 0 262.5 -107.5t107.5 -262.5t-107.5 -262.5t-262.5 -107.5t-262.5 107.5t-107.5 262.5t107.5 262.5t262.5 107.5z" />
    <glyph glyph-name="ellipsis" unicode="&#x2026;" horiz-adv-x="1365" 
d="M161 158h160v-158h-160v158zM598 158h160v-158h-160v158zM1036 158h160v-158h-160v158z" />
    <glyph glyph-name="perthousand" unicode="&#x2030;" horiz-adv-x="1669" 
d="M251 618q-100 0 -146.5 61t-46.5 193v306q0 128 46.5 187t146.5 59q101 0 147.5 -59t46.5 -187v-306q0 -132 -46.5 -193t-147.5 -61v0zM251 1347q-58 0 -81 -37.5t-23 -132.5v-306q0 -98 23 -137t81 -39q59 0 82 39t23 137v306q0 95 -23 132.5t-82 37.5v0zM261 -70
l558 1522h95l-558 -1522h-95zM922 -14q-100 0 -146.5 61t-46.5 193v306q0 128 46.5 187t146.5 59q101 0 147.5 -59t46.5 -187v-306q0 -132 -46.5 -193t-147.5 -61v0zM922 715q-58 0 -81 -37.5t-23 -132.5v-306q0 -98 23 -137t81 -39q59 0 82 39t23 137v306q0 95 -23 132.5
t-82 37.5v0zM1411 -14q-100 0 -146.5 61t-46.5 193v306q0 128 46.5 187t146.5 59q101 0 147.5 -59t46.5 -187v-306q0 -132 -46.5 -193t-147.5 -61v0zM1411 715q-58 0 -81 -37.5t-23 -132.5v-306q0 -98 23 -137t81 -39q59 0 82 39t23 137v306q0 95 -23 132.5t-82 37.5v0z" />
    <glyph glyph-name="guilsinglleft" unicode="&#x2039;" horiz-adv-x="417" 
d="M324 854l-99 -365v0l99 -366h-83l-121 366v0l121 365h83z" />
    <glyph glyph-name="guilsinglright" unicode="&#x203a;" horiz-adv-x="417" 
d="M120 123l99 365v0l-99 366h83l121 -366v0l-121 -365h-83z" />
    <glyph glyph-name="glyph341" horiz-adv-x="0" 
d="M0 1388h393v-89h-152v-518h-89v518h-152v89z" />
    <glyph glyph-name="glyph342" horiz-adv-x="0" 
d="M0 781v607h160l112 -486l112 486h160v-607h-89v559l-129 -559h-108l-129 559v-559h-89z" />
    <glyph glyph-name="trademark" unicode="&#x2122;" horiz-adv-x="1252" 
d="M123 1388h393v-89h-152v-518h-89v518h-152v89zM579 781v607h160l112 -486l112 486h160v-607h-89v559l-129 -559h-108l-129 559v-559h-89z" />
    <glyph glyph-name="uni2219" unicode="&#x2219;" horiz-adv-x="455" 
d="M149 784h160v-158h-160v158z" />
    <glyph glyph-name="uniEFED" unicode="&#xefed;" 
d="M361 1702h140v-139h-140v139z" />
    <glyph glyph-name="uniEFEE" unicode="&#xefee;" 
d="M418 1572q-116 0 -173.5 63.5t-57.5 191.5h109q0 -86 28.5 -124t93.5 -38t93.5 38t28.5 124h109q0 -128 -57.5 -191.5t-173.5 -63.5z" />
    <glyph glyph-name="uniEFEF" unicode="&#xefef;" 
d="M233 1612h384v-81h-384v81z" />
    <glyph glyph-name="uniEFF0" unicode="&#xeff0;" 
d="M236 1531l123 300h130l-155 -300h-98zM502 1531l123 300h130l-155 -300h-98z" />
    <glyph glyph-name="uniEFF1" unicode="&#xeff1;" 
d="M520 -186q0 71 59.5 132.5t157.5 91.5l29 -40q-66 -32 -99 -69t-33 -80q0 -38 25 -61.5t66 -23.5q31 0 65.5 12t67.5 35v0l51 -81v0q-51 -35 -104.5 -53.5t-101.5 -18.5q-77 0 -130 45t-53 111z" />
    <glyph glyph-name="uniEFF2" unicode="&#xeff2;" 
d="M272 -370l121 259h95l-93 -259h-123z" />
    <glyph glyph-name="uniEFF3" unicode="&#xeff3;" 
d="M419 1534q-79 0 -133.5 50t-54.5 123t54.5 123.5t133.5 50.5t133.5 -50.5t54.5 -123.5t-54.5 -123t-133.5 -50v0zM419 1609q38 0 64 28.5t26 69.5q0 42 -26 70.5t-64 28.5t-64 -28.5t-26 -70.5q0 -41 26 -69.5t64 -28.5v0z" />
    <glyph glyph-name="uniEFF4" unicode="&#xeff4;" 
d="M371 1531l-123 284h91l92 -195v0l92 195h91l-123 -284h-60h-60z" />
    <glyph glyph-name="uniEFF5" unicode="&#xeff5;" 
d="M195 1537q-2 131 17 178t74 47q26 0 59 -15t105 -61q68 -43 82 -43q17 0 22.5 24.5t3.5 89.5h97q2 -131 -17 -178t-74 -47q-26 0 -59 15t-105 61q-68 43 -82 43q-17 0 -22.5 -24.5t-3.5 -89.5h-97z" />
    <glyph glyph-name="uniEFF6" unicode="&#xeff6;" 
d="M258 1673h130v-142h-130v142zM472 1673h130v-142h-130v142z" />
    <glyph glyph-name="uniEFF7" unicode="&#xeff7;" 
d="M486 1815l123 -284h-91l-92 195v0l-92 -195h-91l123 284h60h60z" />
    <glyph glyph-name="uniEFF8" unicode="&#xeff8;" 
d="M381 1531l-155 300h130l123 -300h-98z" />
    <glyph glyph-name="uniEFF9" unicode="&#xeff9;" 
d="M350 1531l123 300h130l-155 -300h-98z" />
  </font>
</defs>
</svg>
