<?xml version="1.0" standalone="no"?>
<!DOCTYPE svg PUBLIC "-//W3C//DTD SVG 1.1//EN" "http://www.w3.org/Graphics/SVG/1.1/DTD/svg11.dtd" >
<svg xmlns="http://www.w3.org/2000/svg">
<metadata></metadata>
<defs>
<font id="dimboregular" horiz-adv-x="747" >
<font-face units-per-em="2048" ascent="1638" descent="-410" />
<missing-glyph horiz-adv-x="373" />
<glyph horiz-adv-x="0" />
<glyph horiz-adv-x="682" />
<glyph unicode=" "  horiz-adv-x="373" />
<glyph unicode="&#x09;" horiz-adv-x="373" />
<glyph unicode="&#xa0;" horiz-adv-x="373" />
<glyph unicode="!" horiz-adv-x="335" d="M27 191q0 61 43 104t103 43q61 0 104 -43t43 -104q0 -60 -43 -103t-104 -43q-60 0 -103 43t-43 103zM32 1453h264q-14 -509 -19 -1006l-222 -5q-10 426 -23 1011z" />
<glyph unicode="&#x22;" horiz-adv-x="713" d="M40 1221q111 32 129 123q-77 26 -101 62t-24 81t19 79.5t54.5 52.5t70.5 19h2q33 0 64 -12q31 -13 50.5 -39t27.5 -55.5t9 -70.5v-4q0 -40 -11 -88q-11 -51 -38 -97t-78.5 -87.5t-153.5 -49.5zM380 1171q111 32 129 123q-77 26 -101 62t-24 81t19 79.5t54.5 52.5t70.5 19 h2q33 0 64 -12q31 -13 50.5 -39t27.5 -55.5t9 -70.5v-4q0 -40 -11 -88q-11 -51 -38 -97t-78.5 -87.5t-153.5 -49.5z" />
<glyph unicode="#" horiz-adv-x="1309" d="M40 334l38 209h199l75 420h-199l38 209h199l54 304h209l-55 -304h263l55 304h209l-55 -304h199l-38 -209h-199l-74 -420h199l-38 -209h-199l-54 -304h-210l55 304h-262l-55 -304h-209l54 304h-199zM486 543h262l76 420h-263z" />
<glyph unicode="$" horiz-adv-x="909" d="M50 499q0 36 2 75l297 20q-6 -62 -6 -112q0 -227 113 -227h4q137 4 137 146v9q-5 151 -259 296q-247 140 -247 463v18q7 295 291 337v176h150v-173q281 -33 281 -423q0 -35 -2 -72l-261 -15q4 45 4 83q0 179 -87 179q-105 0 -115 -107q-1 -15 -1 -30q0 -89 53 -166 q61 -89 209.5 -163t207.5 -203q42 -93 42 -198q0 -40 -6 -82q-23 -151 -128 -251q-79 -74 -197 -98v-181h-150v172q-134 13 -228 116q-104 113 -104 411z" />
<glyph unicode="%" horiz-adv-x="1700" d="M50 1101v24q10 435 362 435q340 0 340 -398q0 -16 -1 -32q-14 -431 -362 -435q-4 -1 -8 -1q-331 0 -331 407zM279 1084q0 -43 6 -86q16 -106 103 -110h8q80 0 110 79q25 66 25 156q0 22 -1 45q-8 119 -48 149q-25 18 -60 18q-20 0 -43 -6q-63 -17 -86 -121 q-14 -62 -14 -124zM560 50l440 1540l170 -30l-440 -1540zM960 447v24q10 435 362 435q340 0 340 -398q0 -16 -1 -32q-14 -431 -362 -435q-4 -1 -8 -1q-331 0 -331 407zM1189 430q0 -43 6 -86q16 -106 103 -110h8q80 0 110 79q25 66 25 156q0 22 -1 45q-8 119 -48 149 q-25 18 -60 18q-20 0 -43 -6q-63 -17 -86 -121q-14 -62 -14 -124z" />
<glyph unicode="&#x26;" horiz-adv-x="936" d="M25 464q0 60 10 110q18 90 64.5 143.5t139.5 67.5q-112 37 -161 110q-44 65 -44 207v30q5 164 71.5 258t177.5 121q57 14 120 14q62 0 130 -13q139 -26 201 -136q47 -86 47 -245q0 -46 -4 -99l-252 -11q1 27 1 51q0 203 -105 210h-13q-106 0 -115 -128q-2 -22 -2 -43 q0 -107 45 -174q46 -72 171 -72q15 0 32 1l-12 -190q-143 0 -204 -78q-46 -58 -46 -137q0 -28 6 -59q21 -110 143 -110q8 0 17 1q102 6 102 183q0 63 -13 147l364 16l5 -204l-110 -7v-4q0 -199 -104 -289q-102 -88 -271 -88h-15q-181 4 -267.5 95t-101.5 216q-7 57 -7 106z " />
<glyph unicode="'" horiz-adv-x="381" d="M40 1221q111 32 129 123q-77 26 -101 62t-24 81t19 79.5t54.5 52.5t70.5 19h2q33 0 64 -12q31 -13 50.5 -39t27.5 -55.5t9 -70.5v-4q0 -40 -11 -88q-11 -51 -38 -97t-78.5 -87.5t-153.5 -49.5z" />
<glyph unicode="(" horiz-adv-x="553" d="M47 800q0 500 253 900h200q-200 -400 -200 -900q0 -600 200 -1000h-200q-248 400 -253 1000z" />
<glyph unicode=")" horiz-adv-x="553" d="M47 -200q200 400 200 1000q0 500 -200 900h200q253 -400 253 -900q-5 -600 -253 -1000h-200z" />
<glyph unicode="*" horiz-adv-x="640" d="M40 1328l51 162l157 -67l-9 173h168l-16 -177l180 68l29 -152l-164 -49l110 -147l-133 -78l-93 168l-94 -174l-139 78l123 160z" />
<glyph unicode="+" horiz-adv-x="920" d="M40 630v250h290v290h250v-290h300v-250h-300v-300h-250v300h-290z" />
<glyph unicode="," horiz-adv-x="381" d="M40 -79q111 32 129 123q-77 26 -101 62t-24 81t19 79.5t54.5 52.5t70.5 19h2q33 0 64 -12q31 -13 50.5 -39t27.5 -55.5t9 -70.5v-4q0 -40 -11 -88q-11 -51 -38 -97t-78.5 -87.5t-153.5 -49.5z" />
<glyph unicode="-" horiz-adv-x="580" d="M40 620v250h500v-250h-500z" />
<glyph unicode="." horiz-adv-x="373" d="M40 191q0 61 43 104t103 43q61 0 104 -43t43 -104q0 -60 -43 -103t-104 -43q-60 0 -103 43t-43 103z" />
<glyph unicode="/" horiz-adv-x="600" d="M-10 -100l430 1750l180 -50l-440 -1750z" />
<glyph unicode="0" horiz-adv-x="896" d="M26 850q0 694 451 694q395 0 395 -720q0 -721 -423 -721t-423 747zM296 765q0 -395 163 -395q172 0 172 447t-161 447t-173 -447q-1 -27 -1 -52z" />
<glyph unicode="1" horiz-adv-x="603" d="M15 1345l278 176l268 -5q-7 -472 -7 -939q0 -234 2 -467l-248 -13q-7 601 -17 1113q-84 -17 -228 -84z" />
<glyph unicode="2" horiz-adv-x="855" d="M55 390q272 294 388 452q106 145 106 285v25q-11 150 -126 150h-4q-100 -3 -100 -182q0 -34 3 -73l-250 5q-5 60 -5 111q0 179 65 258q83 101 212 121q46 7 90 7q79 0 152 -22q114 -35 172 -138q47 -86 47 -220q0 -26 -1 -55q-12 -172 -103.5 -316.5t-316.5 -413.5 l437 -3l-3 -251q-287 -13 -740 -13z" />
<glyph unicode="3" horiz-adv-x="824" d="M25 552v6l259 15q-1 -17 -1 -33q0 -210 110 -217q8 -1 15 -1q104 0 125 110q6 31 6 59q0 79 -45 137q-62 78 -205 78l-12 190q17 -1 32 -1q125 0 172 72q44 67 44 174q0 21 -2 43q-9 128 -115 128h-13q-105 -7 -105 -210q0 -24 1 -51l-252 11q-4 53 -4 99q0 159 48 245 q61 110 200 136q68 13 130 13q63 0 120 -14q111 -27 177.5 -121t71.5 -258v-30q0 -142 -44 -207q-49 -73 -161 -110q93 -14 139.5 -67.5t64.5 -143.5q10 -50 10 -110q0 -49 -7 -106q-15 -125 -101.5 -216t-266.5 -95h-16q-169 0 -270 88q-105 90 -105 387z" />
<glyph unicode="4" horiz-adv-x="921" d="M18 776q172 376 398 778l322 -18l-4 -772l141 -3v-239h-137v-421l-242 9l3 417l-460 10zM272 766l231 -5l3 516q-110 -254 -234 -511z" />
<glyph unicode="5" horiz-adv-x="824" d="M28 507q0 18 1 38l235 20q0 -219 138 -219q137 0 149 131q5 61 5 123q0 71 -7 143q-13 131 -108 131h-6q-102 -5 -148 -159l-243 6l28 829l672 12l3 -243l-445 -9l-18 -340q46 133 167 152q29 5 57 5q87 0 160 -46q96 -60 120 -286q8 -77 8 -151q0 -140 -30 -265 q-46 -191 -180 -237q-95 -33 -191 -33q-39 0 -79 6q-136 19 -215 117q-73 89 -73 275z" />
<glyph unicode="6" horiz-adv-x="885" d="M51 808q0 58 4 119q12 236 60 384.5t143 211.5q93 61 212 61h6q122 -2 206.5 -79t109.5 -210q16 -88 16 -173q0 -45 -4 -88h-224q2 35 2 65q0 187 -69 205q-18 4 -34 4q-58 0 -97 -59q-51 -76 -63 -210q-9 -91 -9 -167q0 -36 2 -68q78 147 226 147h2q149 -1 227 -109.5 t83 -249.5v-25q0 -129 -44 -257q-48 -140 -151 -186q-75 -35 -169 -35q-34 0 -71 5q-137 17 -219 126t-118 290q-27 133 -27 298zM332 614q2 -132 34.5 -197.5t96.5 -75.5q10 -2 21 -2q50 0 89 41q43 45 43 162v20q-4 133 -93 156q-14 3 -28 3q-77 0 -163 -107z" />
<glyph unicode="7" horiz-adv-x="826" d="M64 1274l10 250q363 6 698 9v-254q-278 -570 -322 -1131l-237 27q44 543 289 1102z" />
<glyph unicode="8" horiz-adv-x="820" d="M27 444q0 151 58 241q62 96 153 121q-67 27 -136 107.5t-71 231.5v9q0 144 60 252q61 110 200 136q68 13 130 13q63 0 120 -14q111 -27 177.5 -121t71.5 -248v-29q0 -134 -44 -208q-49 -83 -141 -130q136 -61 169 -176q23 -80 23 -164q0 -38 -5 -77q-15 -125 -101.5 -216 t-266.5 -95h-16q-169 0 -270 88q-106 91 -110 257q-1 11 -1 22zM286 495q0 -30 6 -58q14 -66 53 -94q28 -21 65 -21q14 0 30 3q56 10 81.5 48.5t29.5 106.5q1 8 1 17q0 58 -24 110q-28 60 -112 97q-102 -54 -120 -128q-10 -42 -10 -81zM296 1154q0 -24 4 -52 q14 -103 114 -146q104 45 121 145q7 38 7 70q0 50 -17 84q-27 55 -95 59h-9q-62 0 -97 -52q-28 -42 -28 -108z" />
<glyph unicode="9" horiz-adv-x="885" d="M41 1061q0 173 49 302q53 140 166 187q83 34 173 34q33 0 67 -5q127 -17 209 -126t118 -289q27 -134 27 -299q0 -58 -3 -118q-13 -237 -61 -385.5t-143 -210.5q-93 -62 -221 -62q-3 0 -6 1q-133 1 -227 98q-92 94 -92 336v15h224q-2 -23 -2 -44q0 -111 60 -145 q29 -18 58 -18q40 0 78 33q65 55 73 180q4 69 4 130q0 50 -3 94q-78 -147 -226 -147q-1 0 -1 1q-150 0 -233 108.5t-87 300.5q-1 14 -1 29zM285 1041q4 -173 114 -185q10 -2 21 -2q95 0 159 105q1 34 1 64q0 143 -30 214q-38 85 -101 95q-9 1 -17 1q-54 0 -99 -55 q-48 -59 -48 -213v-24z" />
<glyph unicode=":" horiz-adv-x="373" d="M40 191q0 61 43 104t103 43q61 0 104 -43t43 -104q0 -60 -43 -103t-104 -43q-60 0 -103 43t-43 103zM40 952q0 61 43 104t103 43q61 0 104 -43t43 -104q0 -60 -43 -103t-104 -43q-60 0 -103 43t-43 103z" />
<glyph unicode=";" horiz-adv-x="381" d="M40 -79q111 32 129 123q-77 26 -101 62t-24 81t19 79.5t54.5 52.5t70.5 19h2q33 0 64 -12q31 -13 50.5 -39t27.5 -55.5t9 -70.5v-4q0 -40 -11 -88q-11 -51 -38 -97t-78.5 -87.5t-153.5 -49.5zM40 952q0 61 43 104t103 43q61 0 104 -43t43 -104q0 -60 -43 -103t-104 -43 q-60 0 -103 43t-43 103z" />
<glyph unicode="&#x3c;" horiz-adv-x="780" d="M40 700v200l700 450v-300l-420 -250l420 -250v-300z" />
<glyph unicode="=" horiz-adv-x="880" d="M40 420v250h800v-250h-800zM40 920v250h800v-250h-800z" />
<glyph unicode="&#x3e;" horiz-adv-x="780" d="M40 250v300l420 250l-420 250v300l700 -450v-200z" />
<glyph unicode="?" horiz-adv-x="855" d="M67 1113q0 179 65 258q83 101 212 121q46 7 90 7q79 0 152 -22q114 -35 172 -138q51 -93 51 -237v-33q-7 -167 -68.5 -276.5t-186.5 -158.5l-3 -183l-213 -4l-3 333q162 24 198 142q25 82 25 160q0 33 -4 65q-16 105 -130 105h-5q-100 -3 -100 -182q0 -34 3 -73l-250 5 q-5 60 -5 111zM307 191q0 61 43 104t103 43q61 0 104 -43t43 -104q0 -60 -43 -103t-104 -43q-60 0 -103 43t-43 103z" />
<glyph unicode="@" horiz-adv-x="1454" d="M36 553q0 117 16 241q47 364 243 493q188 124 456 124h21q282 -5 443.5 -147t192.5 -489q9 -111 9 -208q0 -208 -44 -354q-65 -216 -310 -243q-29 -4 -55 -4q-193 0 -209 182q-90 -106 -185 -109q-7 -1 -13 -1q-87 0 -151 43q-70 45 -107 140t-46 223q-4 47 -4 95 q0 81 10 165q16 132 83 233.5t213 109.5h18q133 0 202 -105l6 154l216 4q-1 -325 -1 -535q0 -350 3 -379q5 -46 41 -46q1 0 3 1q38 1 93 70.5t68 262.5q3 46 3 95q0 150 -30 316q-41 218 -170 285.5t-313 71.5h-18q-172 0 -290 -72q-124 -77 -168 -241t-48 -366 q-1 -19 -1 -38q0 -179 40 -327q43 -163 198 -262q100 -64 320 -64q118 0 270 18l12 -166q-158 -20 -289 -20q-213 0 -352 53q-226 84 -316 379q-60 193 -60 417zM531 514q0 -199 74 -244q25 -16 53 -16q62 0 136 76v406q-49 99 -124 99q-15 0 -31 -4q-97 -23 -107 -267 q-1 -26 -1 -50z" />
<glyph unicode="A" horiz-adv-x="960" d="M-18 90q188 854 304 1448l375 6q138 -618 316 -1408l-256 -52l-81 379h-311l-84 -409zM308 737l324 7q-52 216 -170 517q-91 -253 -154 -524z" />
<glyph unicode="B" horiz-adv-x="917" d="M47 1539q170 18 298 18q235 0 326 -61q140 -94 158 -254q4 -41 4 -79q0 -109 -37 -189q-51 -109 -181 -156q145 -22 208 -105q53 -70 53 -200q0 -25 -2 -52q-12 -170 -107.5 -254t-265.5 -115q-96 -17 -225 -17q-101 0 -221 10q4 279 4 549q0 466 -12 905zM312 1309 l7 -429q186 10 236 127q27 62 27 122q0 50 -20 99q-35 85 -179 85q-32 0 -71 -4zM331 339q23 -1 44 -1q186 0 235 102q27 57 27 103q0 45 -26 79q-43 55 -200 55q-37 0 -80 -3v-335z" />
<glyph unicode="C" horiz-adv-x="885" d="M48 798q0 724 396 724q373 0 373 -484q0 -29 -1 -60l-222 -1v27q0 235 -132 235q-141 0 -141 -434q0 -489 148 -489h1q148 1 148 240v99h248v-75q0 -498 -409 -521q-12 -1 -24 -1q-385 0 -385 740z" />
<glyph unicode="D" horiz-adv-x="875" d="M48 88q2 337 2 694q0 358 -2 735q115 14 212 14q270 0 398 -108q174 -148 182 -547v-72q0 -342 -66 -488q-73 -161 -267 -214q-112 -31 -246 -31q-100 0 -213 17zM279 595q0 -116 2 -228q35 -8 67 -8q88 0 148 61q82 82 82 368v4q-1 288 -80 378q-61 68 -145 68 q-27 0 -57 -7q-17 -329 -17 -636z" />
<glyph unicode="E" horiz-adv-x="798" d="M48 1470q226 9 635 20v-282l-395 16v-328l355 10l9 -271h-317v-254h415v-284l-692 10q11 281 11 566q0 395 -21 797z" />
<glyph unicode="F" horiz-adv-x="731" d="M48 1490q226 10 635 21v-282l-395 15v-375l355 9l9 -271h-317v-493l-277 13q11 281 11 566q0 395 -21 797z" />
<glyph unicode="G" horiz-adv-x="981" d="M30 660q0 51 3 107q35 721 459 751q21 1 40 1q353 0 353 -476q0 -40 -3 -84l-227 -2q-5 254 -128 267h-18q-110 0 -178 -145t-68 -411v-44q6 -298 209 -298q140 0 140 228q0 23 -1 47l-199 -3l10 225l511 -8v-245l-102 -2q0 -522 -416 -522q-385 0 -385 614z" />
<glyph unicode="H" horiz-adv-x="904" d="M48 82q12 367 12 718q0 350 -12 684h261l-11 -583l285 -12v619l273 -24q-12 -673 -23 -1450h-227v583h-285v-536z" />
<glyph unicode="I" horiz-adv-x="381" d="M48 1482l285 24q-11 -679 -12 -1379l-249 -23q0 734 -24 1378z" />
<glyph unicode="J" horiz-adv-x="912" d="M64 647v42l263 18q-1 -29 -1 -55q0 -223 54 -270q33 -31 71 -31q30 0 62 18q70 39 70 273v23q-4 255 -22 828l285 17q7 -281 7 -496q0 -535 -44 -667q-62 -187 -204 -232q-85 -27 -165 -27q-54 0 -106 13q-129 30 -189.5 129.5t-71.5 210.5q-9 93 -9 206z" />
<glyph unicode="K" horiz-adv-x="904" d="M48 115q7 532 7 1338l250 20l-4 -625q167 322 309 589l280 -16q-141 -262 -386 -647q124 -255 373 -703l-318 -4q-92 233 -272 586v-534z" />
<glyph unicode="L" horiz-adv-x="842" d="M48 1527l301 27q-18 -521 -18 -893q0 -148 3 -273l446 22l7 -326l-714 -16q1 132 1 263q0 601 -26 1196z" />
<glyph unicode="M" horiz-adv-x="1307" d="M34 1524l362 9l233 -1036l171 960l456 -5q-12 -325 -12 -656q0 -369 15 -747l-291 -20q0 398 -9 973l-163 -879l-310 -21l-200 948l-4 -960l-244 -17q7 329 7 653q0 404 -11 798z" />
<glyph unicode="N" horiz-adv-x="947" d="M48 1470l294 14l270 -753q-4 388 -22 794l309 4q-46 -613 -46 -1238q0 -84 1 -168l-271 -3l-288 806q13 -446 24 -829l-267 -18q12 342 12 666q0 374 -16 725z" />
<glyph unicode="O" horiz-adv-x="952" d="M26 830q0 694 481 694q421 0 421 -720q0 -721 -451 -721t-451 747zM306 727q0 -377 176 -377q187 0 187 427t-174 427q-175 0 -188 -427q-1 -26 -1 -50z" />
<glyph unicode="P" horiz-adv-x="879" d="M48 1492q171 24 302 24q206 0 310 -60q161 -93 161 -381v-33q-10 -316 -143 -404.5t-328 -94.5q-1 -31 -1 -64q0 -166 17 -393l-310 -6q6 263 6 538q0 422 -14 874zM312 1260l7 -489q186 10 218 133q15 56 15 115q0 69 -20 142q-30 107 -150 107q-32 0 -70 -8z" />
<glyph unicode="Q" horiz-adv-x="957" d="M31 829q0 694 481 694q421 0 421 -721q0 -341 -101 -521q58 -77 114 -147l-145 -164q-51 77 -110 163q-88 -52 -209 -52q-451 0 -451 748zM311 725q0 -377 176 -377q25 0 47 8q-62 88 -131 183l143 157q54 -83 106 -161q22 96 22 240q0 428 -174 428q-175 0 -188 -428 q-1 -26 -1 -50z" />
<glyph unicode="R" horiz-adv-x="895" d="M48 1537q155 16 278 16q342 0 436 -125q88 -117 88 -258q0 -64 -17 -132q-58 -220 -244 -279q130 -18 197 -140q64 -118 64 -594v-43l-302 -4q5 126 5 226q0 303 -49 371q-56 76 -133 76q-15 0 -31 -3q6 -305 26 -578l-310 -6q6 286 6 576q0 444 -14 897zM312 1304 l7 -428q186 9 236 126q27 62 27 121q0 51 -20 100q-36 85 -179 85q-33 0 -71 -4z" />
<glyph unicode="S" horiz-adv-x="909" d="M50 534q0 36 2 75l297 20q-6 -62 -6 -112q0 -227 113 -227h4q137 4 137 146v9q-5 151 -259 296q-247 140 -247 462q0 10 1 20q7 337 378 343h8q335 0 335 -427q0 -34 -2 -72l-261 -15q4 45 4 83q0 179 -87 179q-105 0 -115 -107q-1 -15 -1 -30q0 -89 53 -166 q61 -89 209.5 -163t207.5 -203q42 -93 42 -198q0 -40 -6 -82q-23 -151 -128 -250.5t-282 -108.5q-12 -1 -24 -1q-161 0 -269 118q-104 113 -104 411z" />
<glyph unicode="T" horiz-adv-x="835" d="M48 1232v263q147 -4 291 -4q224 0 439 9l9 -280h-252q0 -711 15 -1128l-282 -14q22 710 32 1158z" />
<glyph unicode="U" horiz-adv-x="912" d="M48 1533h266q-10 -226 -10 -531q0 -214 5 -468q2 -186 134 -186q0 -1 1 -1q131 0 131 238l-5 922l294 9v-989q0 -457 -418 -457h-22q-350 40 -362 383q0 685 -14 1080z" />
<glyph unicode="V" horiz-adv-x="913" d="M-25 1503l292 30l171 -1096q131 575 214 1041l277 -34q-210 -907 -313 -1339l-352 -11q-122 674 -289 1409z" />
<glyph unicode="W" horiz-adv-x="1337" d="M-42 1496l300 19l91 -989l155 869l361 4l103 -866l89 947l300 -39q-108 -654 -204 -1322l-364 -19l-119 959l-184 -978l-342 14q-77 680 -186 1401z" />
<glyph unicode="X" horiz-adv-x="913" d="M6 1470l287 43l181 -530l166 529l267 -13q-75 -216 -236 -683q90 -290 245 -729l-281 -28l-168 560l-169 -536l-284 40q106 284 257 693z" />
<glyph unicode="Y" horiz-adv-x="835" d="M-37 1479l282 29l191 -558q129 402 207 599h273q-245 -603 -352 -873v-589l-260 -12l11 620q-228 482 -352 784z" />
<glyph unicode="Z" horiz-adv-x="826" d="M51 422q290 502 434 832l-424 -2l14 260q473 6 685 6v-263q-264 -513 -432 -858q116 -3 220 -3q121 0 226 4l10 -279q-265 11 -712 11z" />
<glyph unicode="[" horiz-adv-x="553" d="M53 -200v1900h450v-250h-200v-1400h200v-250h-450z" />
<glyph unicode="\" horiz-adv-x="600" d="M-10 1600l180 50l430 -1750l-170 -50z" />
<glyph unicode="]" horiz-adv-x="553" d="M53 50h200v1400h-200v250h450v-1900h-450v250z" />
<glyph unicode="^" horiz-adv-x="980" d="M40 1100l300 600h300l300 -600h-250l-200 400l-200 -400h-250z" />
<glyph unicode="_" horiz-adv-x="694" d="M-8 -150h700v-200h-700v200z" />
<glyph unicode="`" horiz-adv-x="395" d="M18 1436l164 130q75 -126 192 -265l-120 -120q-130 151 -236 255z" />
<glyph unicode="a" horiz-adv-x="796" d="M37 364q0 28 3 60q20 237 337 237q61 0 134 -9v116q0 141 -89 141h-4q-7 1 -13 1q-97 0 -97 -158v-15l-238 20q0 349 336 349h21q329 -18 329 -331v-710l-233 -4l-8 95q-72 -82 -191 -82q-51 0 -110 16q-177 44 -177 274zM289 371q0 -40 32 -71q25 -24 65 -24 q51 0 125 40v176q-43 9 -78 9q-91 0 -124 -61q-20 -37 -20 -69z" />
<glyph unicode="b" horiz-adv-x="835" d="M46 1465h266q-11 -301 -11 -523q53 95 135 111q14 1 27 1q326 0 333 -471v-18q0 -472 -347 -472q-83 0 -157 111l-8 -153l-237 1q5 366 5 704q0 371 -6 709zM296 409q52 -106 132 -106q9 0 18 1q92 13 102 247q1 24 1 46q0 192 -78 229q-24 11 -47 11q-63 0 -123 -82z " />
<glyph unicode="c" horiz-adv-x="730" d="M30 561v30q10 516 338 521h8q302 0 302 -346q0 -20 -1 -40l-215 -16v24q0 182 -103 182q-105 0 -105 -295v-33q6 -319 106 -319h6q87 7 87 133q0 27 -4 60l238 -15q0 -361 -333 -366q-4 -1 -7 -1q-317 0 -317 481z" />
<glyph unicode="d" horiz-adv-x="835" d="M46 563q0 10 1 20q6 471 304 471q12 0 25 -1q102 -6 165 -111q0 222 -11 523h266q-6 -338 -6 -709q0 -338 5 -704l-237 -1l-8 153q-74 -111 -197 -111q-307 0 -307 470zM293 591q0 -22 1 -45q10 -229 102 -242q9 -1 18 -1q80 0 132 106l-5 346q-58 79 -119 79 q-25 0 -50 -13q-79 -41 -79 -230z" />
<glyph unicode="e" d="M30 531v30q10 516 335 516q347 0 347 -461q0 -56 -5 -120h-447q0 -257 99 -257h7q87 7 87 133q0 27 -4 60l238 5q0 -381 -333 -386q-4 -1 -7 -1q-317 0 -317 481zM236 680h226v24q0 182 -103 182q-111 0 -123 -206z" />
<glyph unicode="f" horiz-adv-x="699" d="M28 1034l158 7q-2 27 -2 55q0 94 19 193q23 129 140 206q87 58 220 58q44 0 94 -7l-2 -219q-30 4 -56 4q-83 0 -122 -41q-43 -43 -43 -168q0 -30 3 -66l214 3v-203l-220 -14q8 -328 8 -620q0 -88 -1 -172l-254 -11q3 333 10 788l-162 -8z" />
<glyph unicode="g" horiz-adv-x="827" d="M43 535v7q2 508 353 511q96 0 172 -112l3 159l219 -10q0 -825 -5 -1022t-59.5 -316t-185.5 -152q-69 -18 -137 -18q-61 0 -121 14q-128 30 -176 113q-40 68 -40 178q0 22 2 47l235 13q-1 -12 -1 -24q0 -109 87 -119q14 -2 26 -2q75 0 107 60q28 54 28 202q0 40 -2 88 q-56 -112 -208 -122q-297 3 -297 505zM283 514q0 -199 74 -244q25 -16 53 -16q62 0 136 76v406q-49 99 -124 99q-15 0 -31 -4q-97 -23 -107 -267q-1 -26 -1 -50z" />
<glyph unicode="h" horiz-adv-x="791" d="M34 1473l244 10l10 -563q42 130 196 132h3q152 0 216 -138q44 -94 44 -440q0 -170 -11 -402h-252q13 309 13 479q0 85 -3 136q-10 150 -86 150t-98 -80l10 -725l-245 -2q0 460 -41 1443z" />
<glyph unicode="i" horiz-adv-x="335" d="M27 1307q0 60 43 103t103 43q61 0 104 -43t43 -103q0 -61 -43 -104t-104 -43q-60 0 -103 43t-43 104zM45 1056l252 15q-12 -408 -12 -811q0 -108 1 -215h-234q-7 585 -7 1011z" />
<glyph unicode="j" horiz-adv-x="335" d="M-187 -123q42 -7 76 -7q95 0 131 55q47 73 47 305v10q-1 239 -19 797l246 18q4 -305 4 -529q0 -281 -6 -437q-10 -280 -118 -380q-95 -88 -277 -88q-27 0 -56 2zM27 1307q0 60 43 103t103 43q61 0 104 -43t43 -103q0 -61 -43 -104t-104 -43q-60 0 -103 43t-43 104z" />
<glyph unicode="k" horiz-adv-x="808" d="M48 115q7 532 7 1338l230 20l-4 -775q137 212 259 409l230 -26q-181 -252 -316 -477q114 -205 313 -533l-248 -24q-112 243 -252 456v-384z" />
<glyph unicode="l" horiz-adv-x="367" d="M68 1492l245 4q-4 -245 -4 -503q0 -445 12 -926l-249 -23q4 331 4 637q0 430 -8 811z" />
<glyph unicode="m" horiz-adv-x="1140" d="M18 1079l183 19l4 -160q54 115 125 143q42 16 85 16q32 0 64 -8q78 -20 111 -160q26 109 90 145.5t142 37.5h4q76 0 146 -37q71 -38 108.5 -142.5t39.5 -286.5v-581l-216 -5q13 329 13 560t-88 249q-13 2 -25 2q-70 0 -108 -90q-6 -104 -6 -243q0 -189 11 -441l-250 -2 q14 387 14 564v12q-1 175 -69 184h-13q-61 0 -118 -70l2 -732l-236 -9v164q0 436 -13 871z" />
<glyph unicode="n" horiz-adv-x="786" d="M40 1083l184 20l10 -163q42 130 221 132h4q176 0 240 -138q44 -94 44 -440q0 -170 -11 -402h-242q13 309 13 479q0 85 -3 136q-10 150 -96 150t-108 -80l10 -725l-235 -2q0 460 -31 1033z" />
<glyph unicode="o" d="M30 533v28q10 516 362 516q340 0 340 -472q0 -19 -1 -38q-14 -511 -362 -516q-4 -1 -8 -1q-331 0 -331 483zM259 517q0 -57 6 -115q16 -144 103 -149h7q81 0 111 107q25 89 25 211q0 30 -1 61q-8 161 -48 201q-25 24 -60 24q-20 0 -43 -8q-63 -22 -86 -163 q-14 -84 -14 -169z" />
<glyph unicode="p" horiz-adv-x="835" d="M46 -349q6 337 6 717q0 346 -5 726l237 1l8 -154q74 112 197 112q307 0 307 -485v-20q-7 -486 -306 -486q-12 0 -24 1q-102 5 -165 111q0 -222 11 -523h-266zM296 736l5 -376q58 -79 117 -79q24 0 48 14q73 40 73 239q0 24 -1 50q-10 244 -97 257q-9 1 -17 1 q-76 0 -128 -106z" />
<glyph unicode="q" horiz-adv-x="835" d="M41 547q0 506 352 506q103 0 177 -112l8 154l217 -1q-5 -395 -5 -748q0 -388 6 -725l-251 -20q1 321 1 543q-58 -106 -210 -111q-293 0 -294 510q-1 2 -1 4zM283 514q0 -199 74 -244q25 -16 53 -16q62 0 136 76v406q-49 99 -124 99q-15 0 -31 -4q-97 -23 -107 -267 q-1 -26 -1 -50z" />
<glyph unicode="r" horiz-adv-x="759" d="M40 1073l184 20l10 -163q42 120 196 137q23 2 44 2q121 0 184 -79q73 -94 74 -299l-222 -22q1 17 1 33q0 160 -83 160h-4q-96 -5 -118 -95l10 -725l-245 -2q0 460 -31 1033z" />
<glyph unicode="s" horiz-adv-x="710" d="M28 405l229 11v-13q0 -154 95 -156h4q92 0 92 89v7q-4 98 -181.5 158t-213.5 202q-13 50 -13 96q0 84 43 156q66 110 200 126q36 4 70 4q89 0 157 -31q93 -43 129 -123q24 -55 24 -122q0 -32 -5 -66l-214 -5q3 25 3 46q0 100 -64 107q-7 1 -14 1q-66 0 -89 -67 q-8 -23 -8 -42q0 -47 44 -81q62 -48 183.5 -97.5t163.5 -168.5q15 -45 15 -90q0 -76 -44 -153q-70 -123 -217 -143q-32 -5 -63 -5q-110 0 -204 57q-120 73 -122 303z" />
<glyph unicode="t" horiz-adv-x="671" d="M40 1082l168 -2l-1 316l227 15v-331l191 5l3 -189l-194 -9v-455q0 -159 135 -159q28 0 61 7l-9 -220q-48 -6 -91 -6q-316 0 -322 326v489l-164 -10z" />
<glyph unicode="u" horiz-adv-x="786" d="M39 696q0 176 11 415h243q-20 -336 -20 -517q0 -91 5 -142q15 -156 101 -156t108 81l-10 694l235 2q0 -430 31 -1002l-184 -21l-10 163q-42 -130 -226 -131q-2 -1 -3 -1q-182 0 -241 164q-40 109 -40 451z" />
<glyph unicode="v" horiz-adv-x="755" d="M0 1070l243 13l123 -727q96 408 153 744l239 -30q-113 -419 -263 -990l-269 -4q-126 579 -226 994z" />
<glyph unicode="w" horiz-adv-x="1168" d="M-22 1071l243 36l97 -757l126 700l279 10l143 -648l92 695l221 -20q-92 -479 -166 -1009l-296 -13l-107 686l-168 -676l-270 -13q-97 490 -194 1009z" />
<glyph unicode="x" horiz-adv-x="812" d="M22 105q107 243 202 478l-196 473l263 40l105 -393l104 396l264 -31q-92 -195 -196 -475q92 -242 203 -495l-258 -28l-126 385l-120 -382z" />
<glyph unicode="y" horiz-adv-x="803" d="M38 1081l262 21q-9 -300 -9 -494q0 -73 2 -131q4 -214 96 -220q6 -1 11 -1q82 0 104 94q12 55 12 261q0 165 -8 426l246 18q4 -305 4 -524q0 -273 -6 -412q-10 -250 -143 -380q-120 -118 -337 -118q-25 0 -51 2l-28 244q19 -1 37 -1q168 0 230 59q64 61 64 196v16 q-57 -90 -175 -90h-14q-129 6 -200 101.5t-77.5 268t-19.5 664.5z" />
<glyph unicode="z" horiz-adv-x="685" d="M30 246l373 635q-179 0 -353 -13l-5 214q88 -2 197 -2q175 0 405 5l5 -204l-356 -600h356l-3 -219q-251 0 -611 -10z" />
<glyph unicode="{" horiz-adv-x="830" d="M40 620v250q250 0 250 150v280q0 400 400 400h100v-250h-100q-150 0 -150 -150v-300q0 -200 -200 -250q200 -50 200 -250v-300q0 -150 150 -150h100v-250h-100q-400 0 -400 400v270q0 150 -250 150z" />
<glyph unicode="|" horiz-adv-x="330" d="M40 -200v1900h250v-1900h-250z" />
<glyph unicode="}" horiz-adv-x="830" d="M40 50h100q150 0 150 150v300q0 200 200 250q-200 50 -200 250v300q0 150 -150 150h-100v250h100q400 0 400 -400v-280q0 -150 250 -150v-250q-250 0 -250 -150v-270q0 -400 -400 -400h-100v250z" />
<glyph unicode="~" horiz-adv-x="883" d="M50 614q0 366 244 366q122 0 189 -91q56 -77 103 -77q10 0 19 4q55 18 55 164h183q0 -366 -244 -366q-122 0 -195 92q-61 76 -105 76q-9 0 -17 -3q-49 -19 -49 -165h-183z" />
<glyph unicode="&#xa1;" horiz-adv-x="335" d="M27 953q0 60 43 103t104 43q60 0 103 -43t43 -103q0 -61 -43 -104t-103 -43q-61 0 -104 43t-43 104zM51 -309q14 509 19 1006l222 5q10 -426 23 -1011h-264z" />
<glyph unicode="&#xa2;" horiz-adv-x="730" d="M30 971v30q8 444 253 509v190h150v-182q245 -31 245 -343q0 -19 -1 -39l-215 -16v24q0 182 -103 182q-105 0 -105 -295v-33q6 -319 106 -319h6q87 7 87 133q0 27 -4 60l238 -15q0 -315 -254 -359v-198h-150v195q-253 46 -253 476z" />
<glyph unicode="&#xa3;" horiz-adv-x="919" d="M40 620v220h102q-19 101 -20 210v9q0 175 77 295q79 122 210 146q53 9 101 9q69 0 125 -19q96 -34 157 -146q49 -92 49 -231q0 -32 -3 -67l-238 -6v28q0 207 -94 207h-11q-110 -14 -110 -199v-10q2 -118 12 -226h293v-220h-267v-11q0 -124 -45 -267q39 -4 80 -4 q164 0 347 65l74 -248q-189 -64 -348 -71q-65 -3 -159 -3q-133 0 -322 6l-7 253l144 -1q20 94 20 179q0 53 -8 102h-159z" />
<glyph unicode="&#xa5;" horiz-adv-x="1033" d="M40 1479l282 29l191 -558q129 402 207 599h273q-203 -499 -311 -769h275v-170h-316v-130h316v-170h-316v-223l-260 -12l4 235h-328v170h331l2 130h-333v170h295q-199 424 -312 699z" />
<glyph unicode="&#xa8;" horiz-adv-x="777" d="M40 1391q0 61 43 104t103 43q61 0 104 -43t43 -104q0 -60 -43 -103t-104 -43q-60 0 -103 43t-43 103zM450 1391q0 61 43 104t103 43q61 0 104 -43t43 -104q0 -60 -43 -103t-104 -43q-60 0 -103 43t-43 103z" />
<glyph unicode="&#xa9;" horiz-adv-x="1108" d="M71 670q0 62 10 124q31 184 149 326q108 129 327 129q20 0 41 -1q251 -13 343 -137.5t110 -355.5q3 -51 3 -99q0 -166 -47 -286q-62 -155 -258 -212q-88 -26 -175 -26q-106 0 -211 39q-190 70 -251 254q-41 122 -41 245zM213 667q0 -84 26 -166q41 -135 180 -190 q82 -33 164 -33q58 0 116 16q140 39 189 158q38 94 38 222q0 34 -3 71q-13 173 -90.5 266.5t-250.5 99.5h-19q-158 0 -233 -96q-80 -103 -106 -241q-11 -54 -11 -107zM371 697q0 26 2 54q8 106 66.5 181t145.5 76h1q86 0 129.5 -53t47.5 -186l-115 1q-6 88 -35 110 q-12 8 -24 8q-19 0 -40 -21q-34 -35 -35 -193q-1 -4 -1 -8q0 -151 62 -154q1 -1 3 -1q59 0 64 129l126 -3q-14 -208 -120 -242q-42 -13 -78 -13q-56 0 -96 32q-68 52 -88 146q-15 68 -15 137z" />
<glyph unicode="&#xab;" horiz-adv-x="936" d="M50 700l230 400h220l-200 -400l200 -400h-220zM446 700l230 400h220l-200 -400l200 -400h-220z" />
<glyph unicode="&#xac;" horiz-adv-x="920" d="M40 630v250h840v-550h-250v300h-590z" />
<glyph unicode="&#xad;" horiz-adv-x="580" d="M40 620v250h500v-250h-500z" />
<glyph unicode="&#xae;" horiz-adv-x="1108" d="M71 670q0 62 10 124q31 184 149 326q108 129 327 129q20 0 41 -1q251 -13 343 -137.5t110 -355.5q3 -51 3 -99q0 -166 -47 -286q-62 -155 -258 -212q-88 -26 -175 -26q-106 0 -211 39q-190 70 -251 254q-41 122 -41 245zM212 661q0 -83 26 -165q41 -134 179 -189 q80 -33 162 -33q57 0 114 16q139 39 187 157q37 93 37 221q0 33 -2 69q-13 172 -90 264t-248 98h-19q-156 0 -231 -95q-79 -102 -105 -238q-10 -53 -10 -105zM373 1000q65 5 118 5q81 0 132 -11q84 -19 112 -87q17 -43 17 -84q0 -27 -6 -52q-18 -68 -87 -96q75 -16 90.5 -67 t15.5 -193l-136 -4q1 18 1 34q0 96 -25 125q-26 29 -81 29q-9 0 -20 -1l1 -184l-130 -2v145q0 218 -2 443zM507 878l2 -177h7q40 0 72 22q35 24 35 75t-26 70q-18 12 -55 12q-16 0 -35 -2z" />
<glyph unicode="&#xb0;" horiz-adv-x="690" d="M50 1130q0 124 88 212t212 88t212 -88t88 -212t-88 -212t-212 -88t-212 88t-88 212zM215 1130q0 -56 39.5 -95.5t95.5 -39.5t95.5 39.5t39.5 95.5t-39.5 95.5t-95.5 39.5t-95.5 -39.5t-39.5 -95.5z" />
<glyph unicode="&#xb1;" horiz-adv-x="920" d="M40 50v250h840v-250h-840zM40 780v250h290v290h250v-290h300v-250h-300v-300h-250v300h-290z" />
<glyph unicode="&#xb4;" horiz-adv-x="395" d="M18 1301q117 139 192 265l164 -130q-106 -104 -236 -255z" />
<glyph unicode="&#xb5;" horiz-adv-x="786" d="M40 -340q13 509 13 995q0 231 -3 456h233q-5 -252 -5 -416q0 -163 5 -238q10 -151 96 -151t108 81l-10 684l235 2q0 -430 31 -1002l-184 -21l-10 133q-52 -100 -129 -110q-10 -2 -20 -2q-64 0 -111 59l1 -460z" />
<glyph unicode="&#xb6;" horiz-adv-x="1130" d="M40 1080q0 390 390 390h660v-1450h-250v1200h-150v-1200h-250v670q-400 0 -400 390z" />
<glyph unicode="&#xb7;" horiz-adv-x="381" d="M39 753q0 52 36.5 88.5t87.5 36.5q52 0 88.5 -36.5t36.5 -88.5q0 -51 -36.5 -87.5t-88.5 -36.5q-51 0 -87.5 36.5t-36.5 87.5z" />
<glyph unicode="&#xb8;" horiz-adv-x="429" d="M50 -228q10 156 18 232h122l-9 -89q26 21 59 21q18 0 38 -6q56 -17 84 -79q17 -40 17 -82q0 -25 -6 -51q-16 -70 -86 -106q-45 -23 -123 -23q-45 0 -102 8l-10 119q56 -6 95 -6q63 0 83 15q21 16 21 37q0 10 -4 20q-12 27 -42 27q-7 0 -14 -1q-41 -7 -52 -45z" />
<glyph unicode="&#xbb;" horiz-adv-x="936" d="M50 300l200 400l-200 400h220l230 -400l-230 -400h-220zM446 300l200 400l-200 400h220l230 -400l-230 -400h-220z" />
<glyph unicode="&#xbf;" horiz-adv-x="855" d="M54 42q0 16 1 33q6 167 67.5 276.5t186.5 158.5l3 183l213 4l3 -333q-162 -24 -198 -142q-25 -82 -25 -160q0 -33 5 -65q15 -105 129 -105q2 0 5 1q100 2 100 181q0 34 -3 73l250 -5q5 -60 5 -111q0 -179 -64 -257q-84 -102 -212 -121q-47 -8 -91 -8q-79 0 -152 23 q-114 34 -171 137q-52 93 -52 237zM263 953q0 60 43 103t104 43q60 0 103 -43t43 -103q0 -61 -43 -104t-103 -43q-61 0 -104 43t-43 104z" />
<glyph unicode="&#xc0;" horiz-adv-x="960" d="M-18 90q188 854 304 1448l375 6q138 -618 316 -1408l-256 -52l-81 379h-311l-84 -409zM242 1865l164 130q75 -126 192 -265l-120 -120q-130 151 -236 255zM308 737l324 7q-52 216 -170 517q-91 -253 -154 -524z" />
<glyph unicode="&#xc1;" horiz-adv-x="960" d="M-18 90q188 854 304 1448l375 6q138 -618 316 -1408l-256 -52l-81 379h-311l-84 -409zM308 737l324 7q-52 216 -170 517q-91 -253 -154 -524zM361 1730q117 139 192 265l164 -130q-106 -104 -236 -255z" />
<glyph unicode="&#xc2;" horiz-adv-x="960" d="M-18 90q188 854 304 1448l375 6q138 -618 316 -1408l-256 -52l-81 379h-311l-84 -409zM180 1659l180 300h240l180 -300h-200l-100 150l-100 -150h-200zM308 737l324 7q-52 216 -170 517q-91 -253 -154 -524z" />
<glyph unicode="&#xc3;" horiz-adv-x="960" d="M-18 90q188 854 304 1448l375 6q138 -618 316 -1408l-256 -52l-81 379h-311l-84 -409zM155 1669q0 300 200 300q100 0 155 -75q46 -62 85 -62q8 0 15 2q45 15 45 135h150q0 -300 -200 -300q-100 0 -160 75q-50 63 -86 63q-7 0 -14 -3q-40 -15 -40 -135h-150zM308 737 l324 7q-52 216 -170 517q-91 -253 -154 -524z" />
<glyph unicode="&#xc4;" horiz-adv-x="960" d="M-18 90q188 854 304 1448l375 6q138 -618 316 -1408l-256 -52l-81 379h-311l-84 -409zM128 1800q0 61 43 104t103 43q61 0 104 -43t43 -104q0 -60 -43 -103t-104 -43q-60 0 -103 43t-43 103zM308 737l324 7q-52 216 -170 517q-91 -253 -154 -524zM538 1800q0 61 43 104 t103 43q61 0 104 -43t43 -104q0 -60 -43 -103t-104 -43q-60 0 -103 43t-43 103z" />
<glyph unicode="&#xc5;" horiz-adv-x="960" d="M-18 90q188 854 304 1448l375 6q138 -618 316 -1408l-256 -52l-81 379h-311l-84 -409zM280 1809q0 83 58.5 141.5t141.5 58.5t141.5 -58.5t58.5 -141.5t-58.5 -141.5t-141.5 -58.5t-141.5 58.5t-58.5 141.5zM308 737l324 7q-52 216 -170 517q-91 -253 -154 -524z M398 1809q0 -34 24 -58t58 -24t58.5 24t24.5 58t-24.5 58.5t-58.5 24.5t-58 -24.5t-24 -58.5z" />
<glyph unicode="&#xc6;" horiz-adv-x="1376" d="M22 90q188 854 304 1378l935 22v-282l-395 16v-328l355 10l9 -271h-317v-254h415v-284l-692 10q7 177 9 356h-276l-84 -409zM378 737l268 6l-10 489l-124 -1q-71 -223 -134 -494z" />
<glyph unicode="&#xc7;" horiz-adv-x="885" d="M48 798q0 724 396 724q373 0 373 -484q0 -29 -1 -60l-222 -1v27q0 235 -132 235q-141 0 -141 -434q0 -489 148 -489h1q148 1 148 240v99h248v-75q0 -473 -369 -518l-9 -87q26 21 59 21q18 0 38 -6q56 -17 84 -79q17 -40 17 -82q0 -25 -6 -51q-16 -70 -86 -106 q-45 -23 -123 -23q-45 0 -102 8l-10 119q56 -6 95 -6q63 0 83 15q21 16 21 37q0 10 -4 20q-12 27 -42 27q-7 0 -14 -1q-41 -7 -52 -45l-89 9q10 155 18 230q-327 53 -327 736z" />
<glyph unicode="&#xc8;" horiz-adv-x="798" d="M48 1470q226 9 635 20v-282l-395 16v-328l355 10l9 -271h-317v-254h415v-284l-692 10q11 281 11 566q0 395 -21 797zM162 1815l164 130q75 -126 192 -265l-120 -120q-130 151 -236 255z" />
<glyph unicode="&#xc9;" horiz-adv-x="798" d="M48 1470q226 9 635 20v-282l-395 16v-328l355 10l9 -271h-317v-254h415v-284l-692 10q11 281 11 566q0 395 -21 797zM280 1680q117 139 192 265l164 -130q-106 -104 -236 -255z" />
<glyph unicode="&#xca;" horiz-adv-x="798" d="M48 1470q226 9 635 20v-282l-395 16v-328l355 10l9 -271h-317v-254h415v-284l-692 10q11 281 11 566q0 395 -21 797zM99 1629l180 300h240l180 -300h-200l-100 150l-100 -150h-200z" />
<glyph unicode="&#xcb;" horiz-adv-x="798" d="M48 1750q0 61 43 104t103 43q61 0 104 -43t43 -104q0 -60 -43 -103t-104 -43q-60 0 -103 43t-43 103zM49 1470q226 9 635 20v-282l-395 16v-328l355 10l9 -271h-317v-254h415v-284l-692 10q11 281 11 566q0 395 -21 797zM458 1750q0 61 43 104t103 43q61 0 104 -43 t43 -104q0 -60 -43 -103t-104 -43q-60 0 -103 43t-43 103z" />
<glyph unicode="&#xcc;" horiz-adv-x="381" d="M-46 1845l164 130q75 -126 192 -265l-120 -120q-130 151 -236 255zM48 1482l285 24q-11 -679 -12 -1379l-249 -23q0 734 -24 1378z" />
<glyph unicode="&#xcd;" horiz-adv-x="381" d="M48 1482l285 24q-11 -679 -12 -1379l-249 -23q0 734 -24 1378zM72 1710q117 139 192 265l164 -130q-106 -104 -236 -255z" />
<glyph unicode="&#xce;" horiz-adv-x="381" d="M-108 1659l180 300h240l180 -300h-200l-100 150l-100 -150h-200zM49 1482l285 24q-11 -679 -12 -1379l-249 -23q0 734 -24 1378z" />
<glyph unicode="&#xcf;" horiz-adv-x="381" d="M-160 1800q0 61 43 104t103 43q61 0 104 -43t43 -104q0 -60 -43 -103t-104 -43q-60 0 -103 43t-43 103zM48 1482l285 24q-11 -679 -12 -1379l-249 -23q0 734 -24 1378zM250 1800q0 61 43 104t103 43q61 0 104 -43t43 -104q0 -60 -43 -103t-104 -43q-60 0 -103 43t-43 103 z" />
<glyph unicode="&#xd0;" horiz-adv-x="875" d="M-90 710v170h140q-1 310 -2 637q115 14 212 14q270 0 398 -108q174 -148 182 -547v-72q0 -342 -66 -488q-73 -161 -267 -214q-112 -31 -246 -31q-100 0 -213 17q2 302 2 622h-140zM278 594q0 -115 3 -227q35 -8 67 -8q88 0 148 61q82 82 82 368v4q-1 288 -80 378 q-61 68 -145 68q-27 0 -57 -7l-14 -351h128v-170h-131q-1 -58 -1 -116z" />
<glyph unicode="&#xd1;" horiz-adv-x="947" d="M48 1470l294 14l270 -753q-4 388 -22 794l309 4q-46 -613 -46 -1238q0 -84 1 -168l-271 -3l-288 806q13 -446 24 -829l-267 -18q12 342 12 666q0 374 -16 725zM149 1669q0 300 200 300q100 0 155 -75q46 -62 85 -62q8 0 15 2q45 15 45 135h150q0 -300 -200 -300 q-100 0 -160 75q-50 63 -86 63q-7 0 -14 -3q-40 -15 -40 -135h-150z" />
<glyph unicode="&#xd2;" horiz-adv-x="952" d="M26 830q0 694 481 694q421 0 421 -720q0 -721 -451 -721t-451 747zM240 1855l164 130q75 -126 192 -265l-120 -120q-130 151 -236 255zM306 727q0 -377 176 -377q187 0 187 427t-174 427q-175 0 -188 -427q-1 -26 -1 -50z" />
<glyph unicode="&#xd3;" horiz-adv-x="952" d="M26 830q0 694 481 694q421 0 421 -720q0 -721 -451 -721t-451 747zM306 727q0 -377 176 -377q187 0 187 427t-174 427q-175 0 -188 -427q-1 -26 -1 -50zM358 1720q117 139 192 265l164 -130q-106 -104 -236 -255z" />
<glyph unicode="&#xd4;" horiz-adv-x="952" d="M26 830q0 694 481 694q421 0 421 -720q0 -721 -451 -721t-451 747zM177 1609l180 300h240l180 -300h-200l-100 150l-100 -150h-200zM306 727q0 -377 176 -377q187 0 187 427t-174 427q-175 0 -188 -427q-1 -26 -1 -50z" />
<glyph unicode="&#xd5;" horiz-adv-x="952" d="M26 830q0 694 481 694q421 0 421 -720q0 -721 -451 -721t-451 747zM152 1619q0 300 200 300q100 0 155 -75q46 -62 85 -62q8 0 15 2q45 15 45 135h150q0 -300 -200 -300q-100 0 -160 75q-50 63 -86 63q-7 0 -14 -3q-40 -15 -40 -135h-150zM306 727q0 -377 176 -377 q187 0 187 427t-174 427q-175 0 -188 -427q-1 -26 -1 -50z" />
<glyph unicode="&#xd6;" horiz-adv-x="952" d="M26 830q0 694 481 694q421 0 421 -720q0 -721 -451 -721t-451 747zM126 1760q0 61 43 104t103 43q61 0 104 -43t43 -104q0 -60 -43 -103t-104 -43q-60 0 -103 43t-43 103zM306 727q0 -377 176 -377q187 0 187 427t-174 427q-175 0 -188 -427q-1 -26 -1 -50zM536 1760 q0 61 43 104t103 43q61 0 104 -43t43 -104q0 -60 -43 -103t-104 -43q-60 0 -103 43t-43 103z" />
<glyph unicode="&#xd7;" horiz-adv-x="993" d="M40 474l276 276l-276 276l177 177l276 -276l282 283l177 -177l-283 -283l283 -283l-177 -177l-282 283l-276 -276z" />
<glyph unicode="&#xd8;" horiz-adv-x="952" d="M26 830q0 694 481 694q64 0 119 -17l47 173l119 -36l-54 -198q190 -159 190 -642q0 -721 -451 -721q-59 0 -110 12l-45 -165l-112 36l48 177q-232 151 -232 687zM306 726q0 -173 37 -267l199 736q-22 9 -48 9q-174 0 -187 -427q-1 -26 -1 -51zM439 356q20 -6 43 -6 q187 0 187 427q0 188 -34 294z" />
<glyph unicode="&#xd9;" horiz-adv-x="912" d="M48 1533h266q-10 -226 -10 -531q0 -214 5 -468q2 -186 134 -186q0 -1 1 -1q131 0 131 238l-5 922l294 9v-989q0 -457 -418 -457h-22q-350 40 -362 383q0 685 -14 1080zM219 1845l164 130q75 -126 192 -265l-120 -120q-130 151 -236 255z" />
<glyph unicode="&#xda;" horiz-adv-x="912" d="M48 1533h266q-10 -226 -10 -531q0 -214 5 -468q2 -186 134 -186q0 -1 1 -1q131 0 131 238l-5 922l294 9v-989q0 -457 -418 -457h-22q-350 40 -362 383q0 685 -14 1080zM337 1710q117 139 192 265l164 -130q-106 -104 -236 -255z" />
<glyph unicode="&#xdb;" horiz-adv-x="912" d="M48 1533h266q-10 -226 -10 -531q0 -214 5 -468q2 -186 134 -186q0 -1 1 -1q131 0 131 238l-5 922l294 9v-989q0 -457 -418 -457h-22q-350 40 -362 383q0 685 -14 1080zM156 1659l180 300h240l180 -300h-200l-100 150l-100 -150h-200z" />
<glyph unicode="&#xdc;" horiz-adv-x="912" d="M48 1533h266q-10 -226 -10 -531q0 -214 5 -468q2 -186 134 -186q0 -1 1 -1q131 0 131 238l-5 922l294 9v-989q0 -457 -418 -457h-22q-350 40 -362 383q0 685 -14 1080zM105 1780q0 61 43 104t103 43q61 0 104 -43t43 -104q0 -60 -43 -103t-104 -43q-60 0 -103 43t-43 103 zM515 1780q0 61 43 104t103 43q61 0 104 -43t43 -104q0 -60 -43 -103t-104 -43q-60 0 -103 43t-43 103z" />
<glyph unicode="&#xdd;" horiz-adv-x="835" d="M-37 1479l282 29l191 -558q129 402 207 599h273q-245 -603 -352 -873v-589l-260 -12l11 620q-228 482 -352 784zM321 1710q117 139 192 265l164 -130q-106 -104 -236 -255z" />
<glyph unicode="&#xde;" horiz-adv-x="879" d="M48 1492l252 18v-230q68 19 133 19q117 0 227 -63q161 -93 161 -381v-33q-10 -316 -143 -404.5t-348 -94.5l6 -237l-280 -6q1 185 1 376q0 497 -9 1036zM312 1040l7 -489q186 10 218 133q15 56 15 115q0 69 -20 142q-30 107 -150 107q-32 0 -70 -8z" />
<glyph unicode="&#xdf;" horiz-adv-x="891" d="M40 85l1 1051q11 373 258 404q66 8 122 8q156 0 240 -62q115 -84 133 -244q4 -41 4 -79q0 -109 -37 -189q-51 -109 -181 -156q145 -22 208 -105q53 -70 53 -200q0 -25 -2 -52q-12 -170 -107.5 -254t-265.5 -115q-50 -9 -100 -14l-3 260q164 3 212 102q27 57 27 103 q0 45 -26 79q-42 55 -191 55h-26l-2 230q122 4 168 110q23 54 23 106q0 49 -21 95q-40 88 -133 88h-13q-95 -6 -95 -157q0 -14 1 -30l-1 -1030z" />
<glyph unicode="&#xe0;" horiz-adv-x="796" d="M37 364q0 28 3 60q20 237 337 237q61 0 134 -9v116q0 141 -89 141h-4q-7 1 -13 1q-97 0 -97 -158v-15l-238 20q0 349 336 349h21q329 -18 329 -331v-710l-233 -4l-8 95q-72 -82 -191 -82q-51 0 -110 16q-177 44 -177 274zM159 1417l164 130q75 -126 192 -265l-120 -120 q-130 151 -236 255zM289 371q0 -40 32 -71q25 -24 65 -24q51 0 125 40v176q-43 9 -78 9q-91 0 -124 -61q-20 -37 -20 -69z" />
<glyph unicode="&#xe1;" horiz-adv-x="796" d="M37 364q0 28 3 60q20 237 337 237q61 0 134 -9v116q0 141 -89 141h-4q-7 1 -13 1q-97 0 -97 -158v-15l-238 20q0 349 336 349h21q329 -18 329 -331v-710l-233 -4l-8 95q-72 -82 -191 -82q-51 0 -110 16q-177 44 -177 274zM278 1282q117 139 192 265l164 -130 q-106 -104 -236 -255zM289 371q0 -40 32 -71q25 -24 65 -24q51 0 125 40v176q-43 9 -78 9q-91 0 -124 -61q-20 -37 -20 -69z" />
<glyph unicode="&#xe2;" horiz-adv-x="796" d="M37 364q0 28 3 60q20 237 337 237q61 0 134 -9v116q0 141 -89 141h-4q-7 1 -13 1q-97 0 -97 -158v-15l-238 20q0 349 336 349h21q329 -18 329 -331v-710l-233 -4l-8 95q-72 -82 -191 -82q-51 0 -110 16q-177 44 -177 274zM96 1201l180 300h240l180 -300h-200l-100 150 l-100 -150h-200zM289 371q0 -40 32 -71q25 -24 65 -24q51 0 125 40v176q-43 9 -78 9q-91 0 -124 -61q-20 -37 -20 -69z" />
<glyph unicode="&#xe3;" horiz-adv-x="796" d="M37 364q0 28 3 60q20 237 337 237q61 0 134 -9v116q0 141 -89 141h-4q-7 1 -13 1q-97 0 -97 -158v-15l-238 20q0 349 336 349h21q329 -18 329 -331v-710l-233 -4l-8 95q-72 -82 -191 -82q-51 0 -110 16q-177 44 -177 274zM71 1211q0 300 200 300q100 0 155 -75 q46 -62 85 -62q8 0 15 2q45 15 45 135h150q0 -300 -200 -300q-100 0 -160 75q-50 63 -86 63q-7 0 -14 -3q-40 -15 -40 -135h-150zM289 371q0 -40 32 -71q25 -24 65 -24q51 0 125 40v176q-43 9 -78 9q-91 0 -124 -61q-20 -37 -20 -69z" />
<glyph unicode="&#xe4;" horiz-adv-x="796" d="M37 364q0 28 3 60q20 237 337 237q61 0 134 -9v116q0 141 -89 141h-4q-7 1 -13 1q-97 0 -97 -158v-15l-238 20q0 349 336 349h21q329 -18 329 -331v-710l-233 -4l-8 95q-72 -82 -191 -82q-51 0 -110 16q-177 44 -177 274zM45 1342q0 61 43 104t103 43q61 0 104 -43 t43 -104q0 -60 -43 -103t-104 -43q-60 0 -103 43t-43 103zM289 371q0 -40 32 -71q25 -24 65 -24q51 0 125 40v176q-43 9 -78 9q-91 0 -124 -61q-20 -37 -20 -69zM455 1342q0 61 43 104t103 43q61 0 104 -43t43 -104q0 -60 -43 -103t-104 -43q-60 0 -103 43t-43 103z" />
<glyph unicode="&#xe5;" horiz-adv-x="796" d="M37 364q0 28 3 60q20 237 337 237q61 0 134 -9v116q0 141 -89 141h-4q-7 1 -13 1q-97 0 -97 -158v-15l-238 20q0 349 336 349h21q329 -18 329 -331v-710l-233 -4l-8 95q-72 -82 -191 -82q-51 0 -110 16q-177 44 -177 274zM196 1450q0 83 58.5 141.5t141.5 58.5 t141.5 -58.5t58.5 -141.5t-58.5 -141.5t-141.5 -58.5t-141.5 58.5t-58.5 141.5zM289 371q0 -40 32 -71q25 -24 65 -24q51 0 125 40v176q-43 9 -78 9q-91 0 -124 -61q-20 -37 -20 -69zM314 1450q0 -34 24 -58t58 -24t58.5 24t24.5 58t-24.5 58.5t-58.5 24.5t-58 -24.5 t-24 -58.5z" />
<glyph unicode="&#xe6;" horiz-adv-x="1220" d="M27 371q0 25 3 53q20 237 337 237q61 0 134 -9v116q0 141 -89 141h-4q-7 1 -13 1q-97 0 -97 -158v-15l-238 20q0 349 336 349h21q159 -10 233 -103q78 74 202 74q347 0 347 -461q0 -56 -5 -120h-447q0 -257 99 -257h7q87 7 87 133q0 27 -4 60l238 5q0 -381 -334 -387h-6 q-146 0 -225 101q-141 -73 -273 -73q-52 0 -103 11q-206 46 -206 282zM279 371q0 -40 32 -71q25 -24 65 -24q51 0 125 40v176q-43 9 -78 9q-91 0 -124 -61q-20 -37 -20 -69zM723 680h226v24q0 182 -103 182q-111 0 -123 -206z" />
<glyph unicode="&#xe7;" horiz-adv-x="730" d="M30 561v30q10 516 338 521h8q302 0 302 -346q0 -20 -1 -40l-215 -16v24q0 182 -103 182q-105 0 -105 -295v-33q6 -319 106 -319h6q87 7 87 133q0 27 -4 60l238 -15q0 -331 -281 -363h8l-9 -89q26 21 59 21q18 0 38 -6q56 -17 84 -79q17 -40 17 -82q0 -25 -6 -51 q-16 -70 -86 -106q-45 -23 -123 -23q-45 0 -102 8l-10 119q56 -6 95 -6q63 0 83 15q21 16 21 37q0 10 -4 20q-12 27 -42 27q-7 0 -14 -1q-41 -7 -52 -45l-89 9q10 156 18 232q-262 40 -262 477z" />
<glyph unicode="&#xe8;" d="M30 531v30q10 516 335 516q347 0 347 -461q0 -56 -5 -120h-447q0 -257 99 -257h7q87 7 87 133q0 27 -4 60l238 5q0 -381 -333 -386q-4 -1 -7 -1q-317 0 -317 481zM134 1407l164 130q75 -126 192 -265l-120 -120q-130 151 -236 255zM236 680h226v24q0 182 -103 182 q-111 0 -123 -206z" />
<glyph unicode="&#xe9;" d="M30 531v30q10 516 335 516q347 0 347 -461q0 -56 -5 -120h-447q0 -257 99 -257h7q87 7 87 133q0 27 -4 60l238 5q0 -381 -333 -386q-4 -1 -7 -1q-317 0 -317 481zM236 680h226v24q0 182 -103 182q-111 0 -123 -206zM252 1272q117 139 192 265l164 -130 q-106 -104 -236 -255z" />
<glyph unicode="&#xea;" d="M30 531v30q10 516 335 516q347 0 347 -461q0 -56 -5 -120h-447q0 -257 99 -257h7q87 7 87 133q0 27 -4 60l238 5q0 -381 -333 -386q-4 -1 -7 -1q-317 0 -317 481zM71 1201l180 300h240l180 -300h-200l-100 150l-100 -150h-200zM236 680h226v24q0 182 -103 182 q-111 0 -123 -206z" />
<glyph unicode="&#xeb;" d="M20 1342q0 61 43 104t103 43q61 0 104 -43t43 -104q0 -60 -43 -103t-104 -43q-60 0 -103 43t-43 103zM30 531v30q10 516 335 516q347 0 347 -461q0 -56 -5 -120h-447q0 -257 99 -257h7q87 7 87 133q0 27 -4 60l238 5q0 -381 -333 -386q-4 -1 -7 -1q-317 0 -317 481z M236 680h226v24q0 182 -103 182q-111 0 -123 -206zM430 1342q0 61 43 104t103 43q61 0 104 -43t43 -104q0 -60 -43 -103t-104 -43q-60 0 -103 43t-43 103z" />
<glyph unicode="&#xec;" horiz-adv-x="335" d="M-65 1407l164 130q75 -126 192 -265l-120 -120q-130 151 -236 255zM45 1056l252 15q-12 -408 -12 -811q0 -108 1 -215h-234q-7 585 -7 1011z" />
<glyph unicode="&#xed;" horiz-adv-x="335" d="M45 1056l252 15q-12 -408 -12 -811q0 -108 1 -215h-234q-7 585 -7 1011zM52 1272q117 139 192 265l164 -130q-106 -104 -236 -255z" />
<glyph unicode="&#xee;" horiz-adv-x="335" d="M-128 1201l180 300h240l180 -300h-200l-100 150l-100 -150h-200zM45 1056l252 15q-12 -408 -12 -811q0 -108 1 -215h-234q-7 585 -7 1011z" />
<glyph unicode="&#xef;" horiz-adv-x="335" d="M-179 1342q0 61 43 104t103 43q61 0 104 -43t43 -104q0 -60 -43 -103t-104 -43q-60 0 -103 43t-43 103zM46 1056l252 15q-12 -408 -12 -811q0 -108 1 -215h-234q-7 585 -7 1011zM231 1342q0 61 43 104t103 43q61 0 104 -43t43 -104q0 -60 -43 -103t-104 -43 q-60 0 -103 43t-43 103z" />
<glyph unicode="&#xf0;" horiz-adv-x="835" d="M46 563q0 10 1 20q6 471 304 471q12 0 25 -1q102 -6 165 -111q0 92 -2 198h-129v170h125q-2 74 -5 155h266q-2 -77 -3 -155h117v-170h-119q-1 -170 -1 -347q0 -355 5 -741l-237 -1l-8 153q-74 -111 -197 -111q-307 0 -307 470zM293 591q0 -22 1 -45q10 -229 102 -242 q9 -1 18 -1q80 0 132 106l-5 346q-58 79 -119 79q-25 0 -50 -13q-79 -41 -79 -230z" />
<glyph unicode="&#xf1;" horiz-adv-x="786" d="M40 1083l184 20l10 -163q42 130 221 132h4q176 0 240 -138q44 -94 44 -440q0 -170 -11 -402h-242q13 309 13 479q0 85 -3 136q-10 150 -96 150t-108 -80l10 -725l-235 -2q0 460 -31 1033zM66 1211q0 300 200 300q100 0 155 -75q46 -62 85 -62q8 0 15 2q45 15 45 135h150 q0 -300 -200 -300q-100 0 -160 75q-50 63 -86 63q-7 0 -14 -3q-40 -15 -40 -135h-150z" />
<glyph unicode="&#xf2;" d="M30 533v28q10 516 362 516q340 0 340 -472q0 -19 -1 -38q-14 -511 -362 -516q-4 -1 -8 -1q-331 0 -331 483zM143 1407l164 130q75 -126 192 -265l-120 -120q-130 151 -236 255zM259 517q0 -57 6 -115q16 -144 103 -149h7q81 0 111 107q25 89 25 211q0 30 -1 61 q-8 161 -48 201q-25 24 -60 24q-20 0 -43 -8q-63 -22 -86 -163q-14 -84 -14 -169z" />
<glyph unicode="&#xf3;" d="M30 533v28q10 516 362 516q340 0 340 -472q0 -19 -1 -38q-14 -511 -362 -516q-4 -1 -8 -1q-331 0 -331 483zM259 517q0 -57 6 -115q16 -144 103 -149h7q81 0 111 107q25 89 25 211q0 30 -1 61q-8 161 -48 201q-25 24 -60 24q-20 0 -43 -8q-63 -22 -86 -163 q-14 -84 -14 -169zM262 1272q117 139 192 265l164 -130q-106 -104 -236 -255z" />
<glyph unicode="&#xf4;" d="M30 533v28q10 516 362 516q340 0 340 -472q0 -19 -1 -38q-14 -511 -362 -516q-4 -1 -8 -1q-331 0 -331 483zM81 1201l180 300h240l180 -300h-200l-100 150l-100 -150h-200zM259 517q0 -57 6 -115q16 -144 103 -149h7q81 0 111 107q25 89 25 211q0 30 -1 61 q-8 161 -48 201q-25 24 -60 24q-20 0 -43 -8q-63 -22 -86 -163q-14 -84 -14 -169z" />
<glyph unicode="&#xf5;" d="M30 533v28q10 516 362 516q340 0 340 -472q0 -19 -1 -38q-14 -511 -362 -516q-4 -1 -8 -1q-331 0 -331 483zM56 1211q0 300 200 300q100 0 155 -75q46 -62 85 -62q8 0 15 2q45 15 45 135h150q0 -300 -200 -300q-100 0 -160 75q-50 63 -86 63q-7 0 -14 -3 q-40 -15 -40 -135h-150zM259 517q0 -57 6 -115q16 -144 103 -149h7q81 0 111 107q25 89 25 211q0 30 -1 61q-8 161 -48 201q-25 24 -60 24q-20 0 -43 -8q-63 -22 -86 -163q-14 -84 -14 -169z" />
<glyph unicode="&#xf6;" d="M30 533v28q10 516 362 516q340 0 340 -472q0 -19 -1 -38q-14 -511 -362 -516q-4 -1 -8 -1q-331 0 -331 483zM30 1342q0 61 43 104t103 43q61 0 104 -43t43 -104q0 -60 -43 -103t-104 -43q-60 0 -103 43t-43 103zM259 517q0 -57 6 -115q16 -144 103 -149h7q81 0 111 107 q25 89 25 211q0 30 -1 61q-8 161 -48 201q-25 24 -60 24q-20 0 -43 -8q-63 -22 -86 -163q-14 -84 -14 -169zM440 1342q0 61 43 104t103 43q61 0 104 -43t43 -104q0 -60 -43 -103t-104 -43q-60 0 -103 43t-43 103z" />
<glyph unicode="&#xf7;" horiz-adv-x="980" d="M40 620v250h900v-250h-900zM344 361q0 61 43 104t103 43q61 0 104 -43t43 -104q0 -60 -43 -103t-104 -43q-60 0 -103 43t-43 103zM344 1122q0 61 43 104t103 43q61 0 104 -43t43 -104q0 -60 -43 -103t-104 -43q-60 0 -103 43t-43 103z" />
<glyph unicode="&#xf8;" d="M30 531v30q10 516 362 516q21 0 41 -2l30 135l119 -36l-30 -133q180 -94 180 -438q0 -18 -1 -37q-14 -510 -363 -516q-21 0 -42 1l-34 -151l-112 36l32 146q-182 92 -182 449zM259 517q0 -58 6 -116q3 -26 8 -47l111 501q-12 -1 -25 -6q-63 -22 -86 -163 q-14 -84 -14 -169zM372 253h3q82 0 111 106q25 89 25 209q0 31 -2 64q-4 90 -18 142z" />
<glyph unicode="&#xf9;" horiz-adv-x="786" d="M39 696q0 176 11 415h243q-20 -336 -20 -517q0 -91 5 -142q15 -156 101 -156t108 81l-10 694l235 2q0 -430 31 -1002l-184 -21l-10 163q-42 -130 -226 -131q-2 -1 -3 -1q-182 0 -241 164q-40 109 -40 451zM154 1436l164 130q75 -126 192 -265l-120 -120 q-130 151 -236 255z" />
<glyph unicode="&#xfa;" horiz-adv-x="786" d="M39 696q0 176 11 415h243q-20 -336 -20 -517q0 -91 5 -142q15 -156 101 -156t108 81l-10 694l235 2q0 -430 31 -1002l-184 -21l-10 163q-42 -130 -226 -131q-2 -1 -3 -1q-182 0 -241 164q-40 109 -40 451zM273 1301q117 139 192 265l164 -130q-106 -104 -236 -255z" />
<glyph unicode="&#xfb;" horiz-adv-x="786" d="M39 696q0 176 11 415h243q-20 -336 -20 -517q0 -91 5 -142q15 -156 101 -156t108 81l-10 694l235 2q0 -430 31 -1002l-184 -21l-10 163q-42 -130 -226 -131q-2 -1 -3 -1q-182 0 -241 164q-40 109 -40 451zM91 1250l180 300h240l180 -300h-200l-100 150l-100 -150h-200z " />
<glyph unicode="&#xfc;" horiz-adv-x="786" d="M39 696q0 176 11 415h243q-20 -336 -20 -517q0 -91 5 -142q15 -156 101 -156t108 81l-10 694l235 2q0 -430 31 -1002l-184 -21l-10 163q-42 -130 -226 -131q-2 -1 -3 -1q-182 0 -241 164q-40 109 -40 451zM40 1362q0 61 43 104t103 43q61 0 104 -43t43 -104 q0 -60 -43 -103t-104 -43q-60 0 -103 43t-43 103zM450 1362q0 61 43 104t103 43q61 0 104 -43t43 -104q0 -60 -43 -103t-104 -43q-60 0 -103 43t-43 103z" />
<glyph unicode="&#xfd;" horiz-adv-x="803" d="M38 1081l262 21q-9 -300 -9 -494q0 -73 2 -131q4 -214 96 -220q6 -1 11 -1q82 0 104 94q12 55 12 261q0 165 -8 426l246 18q4 -305 4 -524q0 -273 -6 -412q-10 -250 -143 -380q-120 -118 -337 -118q-25 0 -51 2l-28 244q19 -1 37 -1q168 0 230 59q64 61 64 196v16 q-57 -90 -175 -90h-14q-129 6 -200 101.5t-77.5 268t-19.5 664.5zM279 1301q117 139 192 265l164 -130q-106 -104 -236 -255z" />
<glyph unicode="&#xfe;" horiz-adv-x="835" d="M46 -349q6 337 6 832q0 451 -5 1031l243 1l2 -574q74 112 197 112q307 0 307 -485v-20q-7 -486 -306 -486q-12 0 -24 1q-102 5 -165 111q0 -222 11 -523h-266zM296 736l5 -376q58 -79 117 -79q24 0 48 14q73 40 73 239q0 24 -1 50q-10 244 -97 257q-9 1 -17 1 q-76 0 -128 -106z" />
<glyph unicode="&#xff;" horiz-adv-x="803" d="M38 1081l262 21q-9 -300 -9 -494q0 -73 2 -131q4 -214 96 -220q6 -1 11 -1q82 0 104 94q12 55 12 261q0 165 -8 426l246 18q4 -305 4 -524q0 -273 -6 -412q-10 -250 -143 -380q-120 -118 -337 -118q-25 0 -51 2l-28 244q19 -1 37 -1q168 0 230 59q64 61 64 196v16 q-57 -90 -175 -90h-14q-129 6 -200 101.5t-77.5 268t-19.5 664.5zM46 1362q0 61 43 104t103 43q61 0 104 -43t43 -104q0 -60 -43 -103t-104 -43q-60 0 -103 43t-43 103zM456 1362q0 61 43 104t103 43q61 0 104 -43t43 -104q0 -60 -43 -103t-104 -43q-60 0 -103 43t-43 103z " />
<glyph unicode="&#x152;" horiz-adv-x="1451" d="M36 830q0 694 411 694q192 0 269 -259q-4 102 -9 205q226 9 635 20v-282l-395 16v-328l355 10l9 -271h-317v-254h415v-284l-692 10q5 139 8 280q-80 -304 -308 -304q-381 0 -381 747zM316 727q0 -377 176 -377q187 0 187 427t-174 427q-175 0 -188 -427q-1 -26 -1 -50z " />
<glyph unicode="&#x153;" horiz-adv-x="1238" d="M30 529v32q10 516 317 516q169 0 241 -155q84 155 262 155q347 0 347 -461q0 -56 -5 -120h-447q0 -257 99 -257h7q87 7 87 133q0 27 -4 60l238 5q0 -381 -334 -387h-7q-183 0 -260 161q-79 -158 -248 -161h-6q-287 0 -287 479zM259 517q0 -57 6 -115q16 -144 103 -149h7 q81 0 111 107q25 89 25 211q0 30 -1 61q-8 161 -48 201q-25 24 -60 24q-20 0 -43 -8q-63 -22 -86 -163q-14 -84 -14 -169zM721 680h226v24q0 182 -103 182q-111 0 -123 -206z" />
<glyph unicode="&#x178;" horiz-adv-x="835" d="M-37 1479l282 29l191 -558q129 402 207 599h273q-245 -603 -352 -873v-589l-260 -12l11 620q-228 482 -352 784zM88 1800q0 61 43 104t103 43q61 0 104 -43t43 -104q0 -60 -43 -103t-104 -43q-60 0 -103 43t-43 103zM498 1800q0 61 43 104t103 43q61 0 104 -43t43 -104 q0 -60 -43 -103t-104 -43q-60 0 -103 43t-43 103z" />
<glyph unicode="&#x2c6;" horiz-adv-x="690" d="M50 1250l180 300h240l180 -300h-200l-100 150l-100 -150h-200z" />
<glyph unicode="&#x2dc;" horiz-adv-x="740" d="M50 1260q0 300 200 300q100 0 155 -75q46 -62 85 -62q8 0 15 2q45 15 45 135h150q0 -300 -200 -300q-100 0 -160 75q-50 63 -86 63q-7 0 -14 -3q-40 -15 -40 -135h-150z" />
<glyph unicode="&#x2000;" horiz-adv-x="1004" />
<glyph unicode="&#x2001;" horiz-adv-x="2009" />
<glyph unicode="&#x2002;" horiz-adv-x="1004" />
<glyph unicode="&#x2003;" horiz-adv-x="2009" />
<glyph unicode="&#x2004;" horiz-adv-x="669" />
<glyph unicode="&#x2005;" horiz-adv-x="502" />
<glyph unicode="&#x2006;" horiz-adv-x="334" />
<glyph unicode="&#x2007;" horiz-adv-x="334" />
<glyph unicode="&#x2008;" horiz-adv-x="251" />
<glyph unicode="&#x2009;" horiz-adv-x="401" />
<glyph unicode="&#x200a;" horiz-adv-x="111" />
<glyph unicode="&#x2010;" horiz-adv-x="580" d="M40 620v250h500v-250h-500z" />
<glyph unicode="&#x2011;" horiz-adv-x="580" d="M40 620v250h500v-250h-500z" />
<glyph unicode="&#x2012;" horiz-adv-x="580" d="M40 620v250h500v-250h-500z" />
<glyph unicode="&#x2013;" horiz-adv-x="580" d="M40 620v250h500v-250h-500z" />
<glyph unicode="&#x2014;" horiz-adv-x="772" d="M40 620v250h700v-250h-700z" />
<glyph unicode="&#x2018;" horiz-adv-x="381" d="M40 1457q0 2 1 4q0 41 8 70.5t27.5 55.5t51.5 39q30 12 63 12h3q34 -1 69.5 -19t54.5 -52.5t19 -79.5t-24 -81t-101 -62q18 -91 129 -123l-20 -86q-102 8 -153.5 49.5t-78.5 87.5t-38 97q-11 48 -11 88z" />
<glyph unicode="&#x2019;" horiz-adv-x="381" d="M40 1221q111 32 129 123q-77 26 -101 62t-24 81t19 79.5t54.5 52.5t70.5 19h2q33 0 64 -12q31 -13 50.5 -39t27.5 -55.5t9 -70.5v-4q0 -40 -11 -88q-11 -51 -38 -97t-78.5 -87.5t-153.5 -49.5z" />
<glyph unicode="&#x201a;" horiz-adv-x="381" d="M40 -79q111 32 129 123q-77 26 -101 62t-24 81t19 79.5t54.5 52.5t70.5 19h2q33 0 64 -12q31 -13 50.5 -39t27.5 -55.5t9 -70.5v-4q0 -40 -11 -88q-11 -51 -38 -97t-78.5 -87.5t-153.5 -49.5z" />
<glyph unicode="&#x201c;" horiz-adv-x="713" d="M40 1407q0 2 1 4q0 41 8 70.5t27.5 55.5t51.5 39q30 12 63 12h3q34 -1 69.5 -19t54.5 -52.5t19 -79.5t-24 -81t-101 -62q18 -91 129 -123l-20 -86q-102 8 -153.5 49.5t-78.5 87.5t-38 97q-11 48 -11 88zM380 1457q0 2 1 4q0 41 8 70.5t27.5 55.5t51.5 39q30 12 63 12h3 q34 -1 69.5 -19t54.5 -52.5t19 -79.5t-24 -81t-101 -62q18 -91 129 -123l-20 -86q-102 8 -153.5 49.5t-78.5 87.5t-38 97q-11 48 -11 88z" />
<glyph unicode="&#x201d;" horiz-adv-x="713" d="M40 1221q111 32 129 123q-77 26 -101 62t-24 81t19 79.5t54.5 52.5t70.5 19h2q33 0 64 -12q31 -13 50.5 -39t27.5 -55.5t9 -70.5v-4q0 -40 -11 -88q-11 -51 -38 -97t-78.5 -87.5t-153.5 -49.5zM380 1171q111 32 129 123q-77 26 -101 62t-24 81t19 79.5t54.5 52.5t70.5 19 h2q33 0 64 -12q31 -13 50.5 -39t27.5 -55.5t9 -70.5v-4q0 -40 -11 -88q-11 -51 -38 -97t-78.5 -87.5t-153.5 -49.5z" />
<glyph unicode="&#x201e;" horiz-adv-x="713" d="M40 -109q111 32 129 123q-77 26 -101 62t-24 81t19 79.5t54.5 52.5t70.5 19h2q33 0 64 -12q31 -13 50.5 -39t27.5 -55.5t9 -70.5v-4q0 -40 -11 -88q-11 -51 -38 -97t-78.5 -87.5t-153.5 -49.5zM380 -159q111 32 129 123q-77 26 -101 62t-24 81t19 79.5t54.5 52.5t70.5 19 h2q33 0 64 -12q31 -13 50.5 -39t27.5 -55.5t9 -70.5v-4q0 -40 -11 -88q-11 -51 -38 -97t-78.5 -87.5t-153.5 -49.5z" />
<glyph unicode="&#x2022;" horiz-adv-x="515" d="M59 677q0 26 4 52q13 77 63 136q44 54 134 54q9 0 19 -1q105 -5 143.5 -57t45.5 -148q2 -21 2 -41q0 -70 -20 -120q-26 -65 -108 -88q-37 -11 -73 -11q-45 0 -88 16q-80 29 -105 106q-17 51 -17 102z" />
<glyph unicode="&#x2026;" horiz-adv-x="1150" d="M40 191q0 61 43 104t103 43q61 0 104 -43t43 -104q0 -60 -43 -103t-104 -43q-60 0 -103 43t-43 103zM423 191q0 61 43 104t103 43q61 0 104 -43t43 -104q0 -60 -43 -103t-104 -43q-60 0 -103 43t-43 103zM806 191q0 61 43 104t103 43q61 0 104 -43t43 -104 q0 -60 -43 -103t-104 -43q-60 0 -103 43t-43 103z" />
<glyph unicode="&#x202f;" horiz-adv-x="401" />
<glyph unicode="&#x2039;" horiz-adv-x="540" d="M50 700l230 400h220l-200 -400l200 -400h-220z" />
<glyph unicode="&#x203a;" horiz-adv-x="540" d="M50 300l200 400l-200 400h220l230 -400l-230 -400h-220z" />
<glyph unicode="&#x205f;" horiz-adv-x="502" />
<glyph unicode="&#x20ac;" horiz-adv-x="1039" d="M40 510v170h144q-3 56 -3 118v12h-141v170h148q46 542 389 542q373 0 373 -484q0 -29 -1 -60l-222 -1v27q0 235 -133 235q-108 0 -133 -259h229l-30 -170h-206v-5q0 -67 3 -125h180l-30 -170h-133q35 -194 127 -194h1q149 1 149 240v99h248v-75q0 -498 -409 -522 q-12 -1 -23 -1q-303 0 -368 453h-159z" />
<glyph unicode="&#x2122;" horiz-adv-x="1080" d="M50 1390v120h400v-120h-140v-380h-120v380h-140zM500 1010v500h160l110 -300l110 300h160v-500h-120v300l-100 -300h-100l-100 300v-300h-120z" />
<glyph unicode="&#x25fc;" horiz-adv-x="1100" d="M0 0v1100h1100v-1100h-1100z" />
</font>
</defs>
</svg>
